<svg width="32" height="32" viewBox="0 0 32 32" fill="none" xmlns="http://www.w3.org/2000/svg">
<path d="M5.40606 0.907599C5.78467 0.497434 6.31747 0.26416 6.87566 0.26416H30C31.1046 0.26416 32 1.15959 32 2.26416V26.5671C32 26.9404 31.8955 27.3063 31.6983 27.6233L30.0209 30.3204C29.6559 30.9073 29.0137 31.2642 28.3226 31.2642H2C0.89543 31.2642 0 30.3687 0 29.2642V7.54613C0 7.04335 0.189367 6.55901 0.530393 6.18957L5.40606 0.907599Z" fill="#D11216"/>
<g clip-path="url(#clip0_264_2935)">
<path d="M25.0006 14.329V16.6355C24.9776 16.722 24.9516 16.8085 24.9285 16.895C24.8124 17.366 24.544 17.7856 24.165 18.0885C23.786 18.3914 23.3176 18.5607 22.8325 18.5701C22.2001 18.5816 21.5677 18.5816 20.9354 18.5701C20.8104 18.5533 20.6957 18.4919 20.6125 18.3971C20.5173 18.2875 20.5692 18.152 20.6557 18.0367C21.5899 16.7941 22.5182 15.5485 23.461 14.3117C23.5477 14.2186 23.6659 14.1611 23.7926 14.1502C24.0405 14.1243 24.2943 14.1502 24.5451 14.1502C24.6301 14.1356 24.7175 14.1446 24.7978 14.1761C24.8781 14.2076 24.9482 14.2604 25.0006 14.329Z" fill="white"/>
<path d="M18.6861 16.69C18.7082 16.208 18.6091 15.7282 18.3978 15.2945C18.2104 14.8909 18.0633 14.4642 17.8961 14.049C17.6914 13.5416 17.4925 13.0341 17.2762 12.5325C17.2042 12.3358 17.0695 12.1683 16.8929 12.0557C16.7163 11.9432 16.5075 11.8919 16.2988 11.9097C15.1312 11.927 13.9635 11.9097 12.7958 11.9097C12.173 11.9097 11.8444 12.198 11.6973 12.7948C11.5186 13.5531 11.3254 14.3056 11.1207 15.0754H6.98623C6.85471 15.0696 6.72343 15.0914 6.6008 15.1393C6.47816 15.1871 6.36688 15.2601 6.27406 15.3534C6.18124 15.4468 6.10894 15.5585 6.06178 15.6814C6.01462 15.8043 5.99365 15.9357 6.00019 16.0672C6.00019 16.7794 6.00019 17.4915 6.00019 18.2065C5.99458 18.3373 6.016 18.4678 6.06313 18.5899C6.11025 18.712 6.18206 18.8231 6.27407 18.9162C6.36607 19.0093 6.4763 19.0824 6.59784 19.1309C6.71939 19.1795 6.84965 19.2024 6.98047 19.1983H17.6827C17.8138 19.2041 17.9445 19.1825 18.0668 19.1349C18.189 19.0874 18.3 19.015 18.3927 18.9223C18.4854 18.8295 18.5579 18.7185 18.6054 18.5963C18.6529 18.4741 18.6745 18.3433 18.6688 18.2123C18.6861 17.7049 18.6486 17.1974 18.6861 16.69ZM7.89731 17.627C7.90264 17.6697 7.89835 17.713 7.88476 17.7538C7.87116 17.7946 7.84861 17.8319 7.81876 17.8629C7.7889 17.8938 7.7525 17.9177 7.71221 17.9328C7.67192 17.9478 7.62878 17.9537 7.58593 17.9499C7.54422 17.9542 7.50207 17.9493 7.46243 17.9357C7.4228 17.922 7.38662 17.8998 7.35642 17.8707C7.32623 17.8416 7.30275 17.8063 7.28761 17.7672C7.27247 17.7281 7.26605 17.6862 7.26878 17.6443C7.26878 17.48 7.26878 17.3128 7.26878 17.1484C7.26878 16.9841 7.26878 16.8341 7.26878 16.6756C7.26878 16.5922 7.30189 16.5123 7.36083 16.4534C7.41976 16.3944 7.4997 16.3613 7.58305 16.3613C7.6664 16.3613 7.74633 16.3944 7.80527 16.4534C7.8642 16.5123 7.89731 16.5922 7.89731 16.6756C7.90692 16.987 7.90692 17.3041 7.89731 17.627ZM9.1659 17.627C9.1713 17.67 9.16696 17.7136 9.15321 17.7546C9.13946 17.7956 9.11664 17.8331 9.08646 17.8641C9.05627 17.8951 9.01949 17.9189 8.97884 17.9338C8.93819 17.9486 8.89471 17.9542 8.85164 17.9499C8.80856 17.9542 8.76509 17.9486 8.72444 17.9338C8.68378 17.9189 8.647 17.8951 8.61682 17.8641C8.58663 17.8331 8.56381 17.7956 8.55006 17.7546C8.53631 17.7136 8.53197 17.67 8.53737 17.627C8.53737 17.307 8.53737 16.9841 8.53737 16.6612C8.53737 16.5778 8.57048 16.4979 8.62942 16.4389C8.68835 16.38 8.76829 16.3469 8.85164 16.3469C8.93498 16.3469 9.01492 16.38 9.07385 16.4389C9.13279 16.4979 9.1659 16.5778 9.1659 16.6612C9.1659 16.8255 9.1659 16.9898 9.1659 17.1571C9.1659 17.3243 9.17167 17.4684 9.17167 17.627H9.1659ZM10.4316 17.6068C10.4316 17.6902 10.3985 17.7701 10.3396 17.8291C10.2806 17.888 10.2007 17.9211 10.1173 17.9211C10.034 17.9211 9.95406 17.888 9.89512 17.8291C9.83619 17.7701 9.80308 17.6902 9.80308 17.6068C9.80308 17.2993 9.80308 16.9908 9.80308 16.6813C9.80024 16.6384 9.80642 16.5954 9.8212 16.555C9.83598 16.5146 9.85904 16.4778 9.8889 16.4468C9.91877 16.4159 9.95477 16.3915 9.99461 16.3753C10.0344 16.3591 10.0772 16.3514 10.1202 16.3527C10.1631 16.353 10.2055 16.362 10.2448 16.3792C10.2841 16.3964 10.3196 16.4214 10.3489 16.4526C10.3783 16.4839 10.401 16.5208 10.4158 16.5611C10.4305 16.6014 10.4368 16.6443 10.4345 16.6871V17.1398C10.4345 17.2926 10.4403 17.4511 10.4316 17.6068ZM14.2258 15.7155H13.8395C13.4964 15.7155 13.1533 15.7155 12.8102 15.7155C12.7572 15.7218 12.7034 15.7144 12.6541 15.694C12.6047 15.6735 12.5615 15.6407 12.5285 15.5988C12.4955 15.5568 12.4738 15.507 12.4656 15.4542C12.4574 15.4015 12.4629 15.3475 12.4815 15.2974C12.6401 14.6804 12.8073 14.0634 12.9717 13.4493C12.9849 13.3735 13.0252 13.3051 13.0852 13.2568C13.1451 13.2085 13.2206 13.1837 13.2975 13.187H14.2258V15.7155ZM17.3973 17.5405C17.3973 17.8288 17.2878 17.9297 17.0196 17.9297H15.2407C15.0014 17.9297 14.8688 17.8115 14.8688 17.5953V13.2706C14.8688 13.2446 14.8688 13.2216 14.8688 13.1697C15.2148 13.1697 15.5434 13.1524 15.8721 13.1697C15.9322 13.1817 15.989 13.2064 16.0387 13.2422C16.0885 13.2781 16.13 13.3241 16.1604 13.3772C16.567 14.3056 16.9562 15.2426 17.3454 16.1797C17.3754 16.2727 17.3881 16.3704 17.3829 16.468C17.4031 16.8399 17.4031 17.1917 17.4002 17.5405H17.3973Z" fill="white"/>
<path d="M17.9939 19.833H9.56352C9.08203 19.833 8.60055 19.833 8.12194 19.833C7.54474 19.8624 7.00193 20.1164 6.60943 20.5406C6.21694 20.9649 6.00587 21.5257 6.0213 22.1035C6.03673 22.6812 6.27744 23.23 6.69202 23.6327C7.10661 24.0354 7.6622 24.26 8.24015 24.2586C9.86913 24.2586 11.4981 24.2586 13.1415 24.2586C14.7849 24.2586 16.3995 24.2586 18.0285 24.2586C18.3192 24.2575 18.607 24.1991 18.8752 24.0868C19.1434 23.9744 19.3868 23.8104 19.5917 23.604C19.7965 23.3975 19.9586 23.1528 20.0688 22.8837C20.1791 22.6146 20.2352 22.3265 20.2341 22.0357C20.2329 21.7449 20.1745 21.4572 20.0622 21.189C19.9499 20.9208 19.7858 20.6773 19.5794 20.4725C19.373 20.2677 19.1283 20.1056 18.8592 19.9953C18.5901 19.8851 18.3019 19.829 18.0112 19.8301L17.9939 19.833ZM8.83985 23.0044C8.65192 23.0027 8.46872 22.9454 8.31333 22.8397C8.15795 22.734 8.03735 22.5846 7.96675 22.4105C7.89615 22.2363 7.87871 22.0451 7.91663 21.8611C7.95454 21.677 8.04612 21.5083 8.17981 21.3762C8.31349 21.2441 8.4833 21.1546 8.66781 21.1189C8.85232 21.0832 9.04327 21.103 9.21657 21.1757C9.38987 21.2484 9.53775 21.3708 9.64157 21.5274C9.74539 21.6841 9.8005 21.868 9.79994 22.0559C9.7954 22.3075 9.69225 22.5473 9.51269 22.7236C9.33313 22.9 9.09151 22.9987 8.83985 22.9987V23.0044ZM11.6855 23.0044C11.4976 23.0022 11.3146 22.9443 11.1595 22.8381C11.0045 22.7319 10.8843 22.5822 10.8142 22.4078C10.7442 22.2335 10.7273 22.0422 10.7658 21.8583C10.8043 21.6743 10.8963 21.5059 11.0304 21.3742C11.1645 21.2426 11.3346 21.1535 11.5192 21.1184C11.7038 21.0833 11.8947 21.1036 12.0678 21.1768C12.2409 21.25 12.3884 21.3729 12.4917 21.5298C12.5951 21.6868 12.6496 21.8708 12.6485 22.0588C12.6432 22.3104 12.5393 22.5499 12.3592 22.7257C12.1791 22.9015 11.9372 22.9995 11.6855 22.9987V23.0044ZM14.5427 23.0044C14.3558 23.0005 14.1742 22.9415 14.0206 22.835C13.867 22.7284 13.7482 22.579 13.6791 22.4053C13.6099 22.2317 13.5934 22.0415 13.6317 21.8585C13.6699 21.6755 13.7612 21.5078 13.8942 21.3764C14.0272 21.2451 14.1959 21.1557 14.3793 21.1197C14.5628 21.0836 14.7528 21.1023 14.9256 21.1736C15.0984 21.2448 15.2464 21.3654 15.3511 21.5203C15.4558 21.6752 15.5126 21.8574 15.5144 22.0444C15.514 22.171 15.4885 22.2964 15.4393 22.4131C15.3901 22.5299 15.3183 22.6357 15.2279 22.7245C15.1375 22.8133 15.0304 22.8832 14.9128 22.9303C14.7952 22.9773 14.6694 23.0006 14.5427 22.9987V23.0044ZM17.3971 23.0044C17.2091 23.0039 17.0256 22.9477 16.8696 22.8429C16.7135 22.7381 16.592 22.5895 16.5204 22.4158C16.4487 22.242 16.4301 22.051 16.4669 21.8667C16.5037 21.6824 16.5943 21.5131 16.7272 21.3802C16.8601 21.2474 17.0293 21.1568 17.2136 21.12C17.3979 21.0832 17.589 21.1018 17.7627 21.1734C17.9364 21.2451 18.0851 21.3666 18.1898 21.5226C18.2946 21.6786 18.3508 21.8622 18.3514 22.0501C18.3491 22.302 18.2476 22.5428 18.069 22.7204C17.8904 22.8979 17.6489 22.9979 17.3971 22.9987V23.0044Z" fill="white"/>
<path d="M24.7922 13.2938L23.4947 6.40021C23.4627 6.1911 23.3804 5.9929 23.2549 5.82265C23.1293 5.65239 22.9643 5.51519 22.774 5.42282C22.5101 5.28905 22.2121 5.23812 21.9188 5.2767C21.6255 5.31529 21.3508 5.4416 21.1306 5.63906C20.9122 5.82356 20.759 6.07342 20.6935 6.35172C20.6281 6.63001 20.654 6.92196 20.7673 7.18443C21.4708 9.13345 22.1762 11.0825 22.8835 13.0315L23.1286 13.7004C23.6648 13.3486 24.253 13.562 24.8123 13.487C24.8066 13.4207 24.8037 13.3573 24.7922 13.2938ZM22.1454 7.16425C22.0622 7.16433 21.9822 7.1323 21.922 7.07482C21.8619 7.01735 21.8262 6.93887 21.8225 6.85575C21.83 6.77723 21.8665 6.70432 21.9249 6.65126C21.9833 6.59821 22.0593 6.56881 22.1382 6.56881C22.2171 6.56881 22.2932 6.59821 22.3515 6.65126C22.4099 6.70432 22.4464 6.77723 22.4539 6.85575C22.4504 6.93644 22.4168 7.01287 22.3597 7.06998C22.3025 7.12709 22.2261 7.16072 22.1454 7.16425Z" fill="white"/>
<path d="M20.5634 8.54218L19.7417 9.06115L17.4179 10.5287C17.1636 10.6805 16.9623 10.907 16.8413 11.1774C16.827 11.2033 16.8072 11.2258 16.7833 11.2433C16.7594 11.2607 16.732 11.2727 16.7029 11.2783C15.4785 11.2783 14.2522 11.2783 13.024 11.2783C13.024 11.2783 13.024 11.2783 12.998 11.2639C13.2518 10.4739 13.5026 9.67526 14.1946 9.13611C14.4477 8.94637 14.725 8.79123 15.0191 8.67481C16.6164 8.00303 18.2339 7.34567 19.8398 6.68543L19.9436 6.64795C20.1569 7.28224 20.3559 7.90212 20.5634 8.54218Z" fill="white"/>
</g>
<defs>
<clipPath id="clip0_264_2935">
<rect width="19" height="19" fill="white" transform="translate(6 5.26416)"/>
</clipPath>
</defs>
</svg>
