<svg width="40" height="40" viewBox="0 0 40 40" fill="none" xmlns="http://www.w3.org/2000/svg">
<path d="M0 11.68C0 10.2575 0.605911 8.90231 1.66603 7.95379L9.1319 1.27379C10.0487 0.453514 11.2357 0 12.4659 0H35C37.7614 0 40 2.23858 40 5V29.04C40 30.3661 39.4732 31.6379 38.5355 32.5756L32.5756 38.5355C31.6379 39.4732 30.3661 40 29.04 40H5.00001C2.23858 40 0 37.7614 0 35V11.68Z" fill="url(#paint0_linear_10_18)"/>
<g clip-path="url(#clip0_10_18)">
<path d="M30.076 13.1C29.2536 12.9123 28.3947 13.0203 27.6381 13.4063C26.8814 13.7924 26.2713 14.434 25.9061 15.2275C25.6657 15.7315 25.539 16.2864 25.5357 16.8495C25.5357 17.0651 25.6412 17.2448 25.8399 17.255C25.9957 17.2632 26.1488 17.2101 26.2691 17.1062C26.3418 16.9956 26.3772 16.8629 26.3697 16.7289C26.4088 16.1404 26.6108 15.5765 26.9511 15.1061C27.2913 14.6356 27.7551 14.279 28.2858 14.0797C28.8165 13.8804 29.3912 13.8471 29.9397 13.9837C30.4882 14.1204 30.9869 14.4212 31.3748 14.8493C31.7626 15.2775 32.023 15.8146 32.1241 16.395C32.2252 16.9754 32.1626 17.574 31.944 18.1178C31.7255 18.6616 31.3603 19.1271 30.8931 19.4574C30.4259 19.7878 29.877 19.9687 29.3132 19.978C28.6101 20.0021 27.9354 20.2736 27.3981 20.7486C26.8608 21.2237 26.4924 21.8745 26.3525 22.5958C26.2961 22.8935 26.3133 23.2066 26.2618 23.5146C26.0631 24.726 25.4229 25.5678 24.2994 25.963C23.7911 26.1625 23.2376 26.1994 22.7092 26.0692C22.1808 25.939 21.7012 25.6474 21.3314 25.2316C20.4852 24.3487 20.2791 23.2708 20.6348 22.0902C20.821 21.5006 21.178 20.9861 21.6562 20.6183C22.1344 20.2504 22.7101 20.0473 23.3036 20.0371C24.0945 20.0178 24.8491 19.6858 25.4155 19.108C25.4605 19.0714 25.4978 19.0255 25.5251 18.9732C25.5524 18.9209 25.5692 18.8633 25.5745 18.8039C25.5797 18.7446 25.5733 18.6847 25.5555 18.6281C25.5378 18.5714 25.5092 18.5192 25.4714 18.4746C25.4336 18.4299 25.3875 18.3939 25.3359 18.3686C25.2843 18.3434 25.2283 18.3295 25.1713 18.3277C25.1144 18.326 25.0577 18.3365 25.0048 18.3586C24.9518 18.3807 24.9038 18.4139 24.8636 18.4561C24.8047 18.5075 24.7532 18.5665 24.6919 18.6178C24.3294 18.9566 23.8631 19.1486 23.3772 19.1594C22.3101 19.1363 21.3437 18.066 21.3437 16.9419C21.3505 16.258 21.1849 15.5843 20.8637 14.9886C20.5425 14.3928 20.0769 13.8962 19.5139 13.5486C18.9509 13.201 18.3104 13.0147 17.6567 13.0085C17.003 13.0022 16.3593 13.1763 15.7903 13.5132C15.2309 13.8222 14.76 14.2811 14.4256 14.8429C14.0912 15.4047 13.9053 16.0494 13.8869 16.711C13.8157 17.9942 13.0872 18.9284 11.9245 19.1363C11.6915 19.1773 11.4585 19.1773 11.223 19.2055C10.398 19.3184 9.63319 19.7181 9.05134 20.3404C8.46949 20.9626 8.10438 21.7714 8.01462 22.6369C7.86008 24.6156 8.92219 26.2967 10.6662 26.8305C10.8723 26.8946 11.0832 26.9408 11.2942 26.9999H12.1698C12.4151 26.9229 12.6874 26.8715 12.9376 26.7792C13.6451 26.5313 14.2644 26.0653 14.714 25.4423C15.1636 24.8193 15.4225 24.0686 15.4567 23.2888C15.5107 22.0055 16.2343 21.0662 17.3896 20.8917C17.7329 20.8596 18.078 20.929 18.3855 21.0919C18.7674 21.2588 19.0925 21.5423 19.3182 21.9053C19.544 22.2683 19.66 22.6941 19.6512 23.1271C19.6526 24.0526 19.9712 24.9469 20.5491 25.6476C21.127 26.3484 21.9259 26.809 22.8007 26.946C22.85 26.9608 22.8983 26.9788 22.9454 26.9999H23.8285C23.8751 26.9774 23.9235 26.9593 23.9732 26.946C24.8232 26.8074 25.601 26.3649 26.1743 25.694C26.7476 25.023 27.081 24.1649 27.1178 23.2657C27.1865 21.8567 28.0696 20.9225 29.4088 20.8455C30.3779 20.812 31.296 20.3834 31.9671 19.6511C32.6381 18.9188 33.0088 17.941 32.9999 16.9265C33.0078 16.0341 32.7213 15.1661 32.1886 14.469C31.656 13.7719 30.9098 13.2883 30.076 13.1ZM17.6692 19.9678C16.966 19.9912 16.2907 20.2617 15.7523 20.7356C15.2138 21.2096 14.8436 21.8594 14.7012 22.5804C14.635 22.9346 14.6399 23.3067 14.5786 23.6609C14.4716 24.2226 14.215 24.7411 13.8384 25.1567C13.4617 25.5722 12.9804 25.8679 12.4501 26.0094C11.9197 26.151 11.3619 26.1327 10.841 25.9567C10.3201 25.7807 9.85744 25.4542 9.50639 25.0148C9.15533 24.5754 8.93022 24.0411 8.85703 23.4735C8.78384 22.9059 8.86557 22.3283 9.09278 21.8073C9.31998 21.2862 9.6834 20.8431 10.1411 20.5289C10.5987 20.2148 11.132 20.0425 11.6793 20.0319C12.3842 20.0089 13.0609 19.7373 13.5997 19.2612C14.1385 18.785 14.5077 18.1323 14.6473 17.409C14.7135 17.0549 14.7061 16.6879 14.7675 16.3337C14.906 15.5921 15.3037 14.9312 15.8828 14.4798C16.462 14.0284 17.1811 13.819 17.8999 13.8924C18.6187 13.9658 19.2855 14.3168 19.7703 14.8768C20.2551 15.4369 20.5231 16.1658 20.522 16.9214C20.522 18.5947 19.3201 19.8805 17.6692 19.9678ZM19.2661 20.4426C19.9945 20.0779 20.5864 19.4703 20.9488 18.7154C21.1941 18.9925 21.4663 19.2851 21.7214 19.57C20.998 19.936 20.4101 20.5412 20.0486 21.2921C19.7886 21.0098 19.5285 20.7198 19.2661 20.4426Z" fill="white"/>
<path d="M23.3673 21.3409C23.0385 21.3439 22.7179 21.4489 22.4461 21.6425C22.1743 21.8361 21.9635 22.1097 21.8402 22.4287C21.717 22.7476 21.6869 23.0976 21.7537 23.4345C21.8205 23.7714 21.9813 24.0799 22.2157 24.3212C22.4501 24.5625 22.7475 24.7257 23.0705 24.7901C23.3935 24.8546 23.7275 24.8174 24.0303 24.6833C24.3331 24.5492 24.5912 24.3242 24.7718 24.0367C24.9524 23.7492 25.0475 23.4121 25.0451 23.0681C25.0435 22.8394 24.9988 22.6132 24.9136 22.4026C24.8284 22.192 24.7043 22.001 24.5485 21.8405C24.3926 21.6801 24.2081 21.5534 24.0054 21.4677C23.8027 21.3819 23.5859 21.3389 23.3673 21.3409ZM23.3845 23.9458C23.2759 23.9472 23.1681 23.9259 23.0674 23.8833C22.9667 23.8407 22.8751 23.7775 22.7979 23.6975C22.7208 23.6175 22.6596 23.5223 22.618 23.4173C22.5763 23.3123 22.5551 23.1997 22.5554 23.0861C22.5493 22.9684 22.5661 22.8506 22.605 22.7399C22.6438 22.6292 22.7038 22.528 22.7813 22.4424C22.8587 22.3568 22.9521 22.2887 23.0556 22.2421C23.1591 22.1955 23.2706 22.1714 23.3832 22.1714C23.4959 22.1714 23.6074 22.1955 23.7109 22.2421C23.8144 22.2887 23.9077 22.3568 23.9852 22.4424C24.0627 22.528 24.1227 22.6292 24.1615 22.7399C24.2004 22.8506 24.2172 22.9684 24.2111 23.0861C24.2114 23.1995 24.1902 23.3119 24.1488 23.4167C24.1073 23.5215 24.0463 23.6166 23.9694 23.6966C23.8925 23.7766 23.8012 23.8398 23.7008 23.8826C23.6004 23.9254 23.4929 23.9469 23.3845 23.9458Z" fill="white"/>
<path d="M29.3205 15.189C28.8862 15.186 28.4681 15.3609 28.1554 15.6762C27.8428 15.9915 27.6604 16.4222 27.6472 16.8764C27.6341 17.3305 27.7913 17.7721 28.0852 18.1066C28.379 18.4411 28.7863 18.6421 29.2199 18.6665C29.6542 18.6695 30.0723 18.4947 30.385 18.1794C30.6977 17.8641 30.88 17.4333 30.8932 16.9792C30.9063 16.525 30.7491 16.0835 30.4553 15.749C30.1614 15.4145 29.7541 15.2135 29.3205 15.189ZM29.2641 17.794C29.1006 17.7924 28.9411 17.7405 28.8057 17.6446C28.6702 17.5488 28.5648 17.4133 28.5026 17.255C28.4404 17.0968 28.4241 16.9229 28.4558 16.7551C28.4876 16.5873 28.5659 16.433 28.681 16.3115C28.7961 16.1899 28.9429 16.1067 29.1031 16.072C29.2632 16.0373 29.4295 16.0528 29.5813 16.1165C29.733 16.1802 29.8635 16.2894 29.9562 16.4302C30.049 16.5711 30.1001 16.7375 30.103 16.9085C30.1036 17.1422 30.0157 17.3667 29.8584 17.5327C29.7012 17.6986 29.4874 17.7926 29.2641 17.794Z" fill="white"/>
<path d="M17.6202 15.1893C17.3966 15.1803 17.1736 15.2186 16.9645 15.3019C16.7553 15.3853 16.5645 15.5119 16.4032 15.6742C16.242 15.8366 16.1137 16.0313 16.0261 16.2467C15.9385 16.4622 15.8933 16.6939 15.8933 16.928C15.8933 17.1622 15.9385 17.3939 16.0261 17.6093C16.1137 17.8248 16.242 18.0195 16.4032 18.1818C16.5645 18.3442 16.7553 18.4708 16.9645 18.5542C17.1736 18.6375 17.3966 18.6758 17.6202 18.6668C18.0595 18.6635 18.4799 18.4798 18.7909 18.1553C19.102 17.8308 19.2788 17.3915 19.2833 16.9319C19.2846 16.7029 19.2425 16.4759 19.1594 16.264C19.0763 16.0521 18.9539 15.8596 18.7993 15.6976C18.6446 15.5355 18.4608 15.4071 18.2584 15.3199C18.056 15.2326 17.8391 15.1882 17.6202 15.1893ZM17.6031 17.7865C17.3919 17.7724 17.194 17.6741 17.05 17.5118C16.9061 17.3496 16.8271 17.1358 16.8293 16.9144C16.8315 16.693 16.9147 16.481 17.0618 16.3219C17.209 16.1628 17.4088 16.0688 17.6202 16.0593C17.7324 16.0542 17.8444 16.0731 17.9493 16.1149C18.0543 16.1566 18.15 16.2202 18.2307 16.3019C18.3114 16.3836 18.3753 16.4816 18.4186 16.59C18.4619 16.6984 18.4836 16.8149 18.4824 16.9324C18.4813 17.0499 18.4572 17.1658 18.4118 17.2733C18.3664 17.3807 18.3005 17.4773 18.2182 17.5573C18.136 17.6372 18.039 17.6987 17.9332 17.7381C17.8274 17.7776 17.7151 17.794 17.6031 17.7865Z" fill="white"/>
<path d="M13.3963 23.0088C13.3816 24.0354 12.6751 24.8053 11.824 24.8284C11.725 24.8471 11.6229 24.8281 11.5361 24.7749C11.4493 24.7218 11.3835 24.6379 11.3506 24.5384C11.2525 24.2459 11.434 23.9969 11.7578 23.961C11.9151 23.9578 12.0683 23.908 12.1997 23.8173C12.331 23.7266 12.4351 23.5988 12.4998 23.4486C12.5644 23.2985 12.5871 23.1323 12.565 22.9693C12.543 22.8062 12.4772 22.6531 12.3753 22.5276C12.2734 22.4022 12.1395 22.3096 11.9893 22.2605C11.839 22.2115 11.6786 22.2081 11.5266 22.2507C11.3746 22.2933 11.2372 22.3802 11.1305 22.5012C11.0238 22.6222 10.9521 22.7724 10.9238 22.9344C10.9115 23.0037 10.9066 23.073 10.8968 23.1474C10.8777 23.2546 10.8204 23.3503 10.7366 23.4151C10.6528 23.48 10.5485 23.5091 10.445 23.4968C10.3414 23.4844 10.2461 23.4314 10.1784 23.3485C10.1107 23.2656 10.0755 23.1589 10.08 23.0499C10.0783 22.781 10.1396 22.5157 10.2584 22.2773C10.3773 22.0388 10.5502 21.8344 10.7619 21.682C11.008 21.482 11.3051 21.3626 11.6158 21.3389C11.9266 21.3151 12.2371 21.3881 12.5083 21.5485C12.7721 21.6806 12.9952 21.8875 13.1522 22.1456C13.3091 22.4038 13.3937 22.7029 13.3963 23.0088Z" fill="white"/>
</g>
<defs>
<linearGradient id="paint0_linear_10_18" x1="37.5" y1="-1.70991e-06" x2="3" y2="38" gradientUnits="userSpaceOnUse">
<stop stop-color="#D11216"/>
<stop offset="1" stop-color="#B02B2B"/>
</linearGradient>
<clipPath id="clip0_10_18">
<rect width="25" height="14" fill="white" transform="translate(8 13)"/>
</clipPath>
</defs>
</svg>
