<svg width="40" height="40" viewBox="0 0 40 40" fill="none" xmlns="http://www.w3.org/2000/svg">
<path d="M0 11.68C0 10.2575 0.605911 8.90231 1.66603 7.95379L9.1319 1.27379C10.0487 0.453514 11.2357 0 12.4659 0H35C37.7614 0 40 2.23858 40 5V29.04C40 30.3661 39.4732 31.6379 38.5355 32.5756L32.5756 38.5355C31.6379 39.4732 30.3661 40 29.04 40H5.00001C2.23858 40 0 37.7614 0 35V11.68Z" fill="url(#paint0_linear_10_16)"/>
<g clip-path="url(#clip0_10_16)">
<path d="M28.4435 17.0249C28.1348 17.0439 27.826 17.0249 27.4849 17.0249C27.4849 16.7239 27.4849 16.4383 27.4849 16.1527C27.4849 15.7518 27.3706 15.6366 26.9732 15.6366H25.4142C26.3284 12.4641 25.6189 9.81634 22.8198 8.01677C22.0136 7.4822 21.0949 7.14466 20.1367 7.03097C19.7602 6.98968 19.3805 6.98968 19.0041 7.03097C17.9496 7.16031 16.9458 7.56079 16.089 8.19398C13.4997 10.0348 12.8788 12.6155 13.7709 15.64C13.701 15.64 13.6191 15.6503 13.5372 15.6503C12.9658 15.6503 12.3944 15.6503 11.8315 15.6503C10.7433 15.6572 9.99958 16.3987 9.99958 17.4946C9.99958 21.8301 9.99958 26.1667 9.99958 30.5045C9.98948 30.6056 10.01 30.7074 10.0584 30.7964C10.1068 30.8855 10.1809 30.9577 10.2708 31.0034H28.9996V17.3071C28.9464 17.2085 28.8647 17.1287 28.7653 17.0782C28.666 17.0278 28.5537 17.0092 28.4435 17.0249ZM14.489 11.3768C15.243 9.39312 16.7218 8.2043 18.8011 7.8843C19.5958 7.76637 20.4065 7.82679 21.1753 8.06127C21.9442 8.29574 22.6523 8.69848 23.2491 9.24075C23.8458 9.78303 24.3166 10.4515 24.6278 11.1984C24.9389 11.9453 25.0828 12.7523 25.0491 13.5617C25.0091 14.7868 24.5519 15.9606 23.7545 16.8856C23.6724 16.9697 23.5611 17.0185 23.4441 17.0215C22.1545 17.0318 20.865 17.0215 19.5755 17.0215C18.286 17.0215 17.0271 17.0215 15.753 17.0215C15.6813 17.0273 15.6094 17.0146 15.544 16.9845C15.4786 16.9544 15.422 16.9079 15.3794 16.8495C14.0933 15.1961 13.7402 13.3535 14.489 11.3768ZM10.7757 17.1505C10.8277 16.9322 10.9514 16.7381 11.1267 16.5997C11.302 16.4613 11.5185 16.3868 11.7411 16.3884C12.5053 16.3746 13.2763 16.3884 14.0353 16.3884C14.0674 16.3893 14.099 16.3967 14.1283 16.4099C14.1575 16.4232 14.1839 16.4422 14.2059 16.4658C14.3236 16.6378 14.4259 16.8099 14.5573 17.0267H13.5611C13.4922 17.0223 13.4229 17.0257 13.3547 17.037C13.2662 17.0525 13.1865 17.1008 13.1314 17.1724C13.0762 17.244 13.0494 17.3337 13.0562 17.4241C13.0588 17.511 13.0928 17.5941 13.1519 17.6574C13.211 17.7208 13.291 17.7602 13.3769 17.7682C13.4621 17.7742 13.5476 17.7742 13.6328 17.7682H25.6137C25.9549 17.7682 26.1254 17.6409 26.1254 17.3948C26.1254 17.1488 25.9549 17.0215 25.6137 17.0215H24.6159C24.7472 16.8082 24.853 16.6292 24.9673 16.4572C24.9826 16.4364 25.002 16.4191 25.0243 16.4064C25.0467 16.3937 25.0714 16.3858 25.0969 16.3832C25.6359 16.3832 26.1749 16.3832 26.7276 16.3832V18.4168H11.8759C11.1032 18.4168 10.6068 17.8387 10.7757 17.1505ZM28.2303 30.2258H10.7552V18.9002C10.7655 18.9002 10.7842 18.8813 10.7927 18.8864C11.2209 19.1445 11.6917 19.1686 12.1778 19.1669C17.0675 19.1669 21.9572 19.1669 26.847 19.1669H27.0568C27.3484 19.1566 27.4798 19.0292 27.4849 18.7351C27.49 18.4409 27.4849 18.1157 27.4849 17.7923H28.2337V22.2654H27.954C26.3779 22.2654 24.8018 22.2654 23.2274 22.2654C22.9992 22.2642 22.7729 22.3085 22.5616 22.3955C22.3503 22.4826 22.1581 22.6108 21.9959 22.7728C21.6683 23.0999 21.483 23.5449 21.4808 24.0099C21.4785 24.4748 21.6595 24.9217 21.9838 25.2521C22.3082 25.5824 22.7494 25.7693 23.2104 25.7716C24.7865 25.7716 26.3625 25.7716 27.9369 25.7716H28.2303V30.2258ZM28.2303 24.9888C28.1796 24.999 28.1283 25.0059 28.0768 25.0095C26.4552 25.0095 24.8337 25.0095 23.2121 25.0095C23.0008 25.0139 22.7938 24.9493 22.6219 24.8252C22.4501 24.7012 22.3226 24.5244 22.2586 24.3213C22.1884 24.1256 22.1823 23.9123 22.2413 23.7129C22.3002 23.5134 22.4211 23.3383 22.5861 23.2133C22.7356 23.0919 22.917 23.0172 23.108 22.9983C24.8138 22.9811 26.5041 22.988 28.2252 22.988L28.2303 24.9888Z" fill="white"/>
<path d="M20.1371 7.03097H19.0045C19.3809 6.98968 19.7607 6.98968 20.1371 7.03097Z" fill="white"/>
</g>
<defs>
<linearGradient id="paint0_linear_10_16" x1="37.5" y1="-1.70991e-06" x2="3" y2="38" gradientUnits="userSpaceOnUse">
<stop stop-color="#D11216"/>
<stop offset="1" stop-color="#B02B2B"/>
</linearGradient>
<clipPath id="clip0_10_16">
<rect width="19" height="24" fill="white" transform="translate(10 7)"/>
</clipPath>
</defs>
</svg>
