<svg width="40" height="40" viewBox="0 0 40 40" fill="none" xmlns="http://www.w3.org/2000/svg">
<path d="M0.5 11.68C0.5 10.3997 1.04532 9.18008 1.99942 8.32641L9.4653 1.64641C10.2904 0.908163 11.3587 0.5 12.4659 0.5H35C37.4853 0.5 39.5 2.51472 39.5 5V29.04C39.5 30.2335 39.0259 31.3781 38.182 32.222L32.222 38.182C31.3781 39.0259 30.2335 39.5 29.04 39.5H5.00001C2.51472 39.5 0.5 37.4853 0.5 35V11.68Z" stroke="#A6A6A6"/>
<g filter="url(#filter0_d_209_258)">
<path d="M29.407 28.1273C28.7215 24.3125 28.036 20.4977 27.3505 16.6829C27.3031 16.3961 27.1966 16.1221 27.0379 15.8785C26.8791 15.6348 26.6716 15.4267 26.4283 15.2674C25.7828 14.8063 25.1465 14.3729 24.5056 13.9302L24.3073 13.7735C24.694 13.1402 24.9162 12.4204 24.9537 11.6794C24.9913 10.9384 24.8429 10.1998 24.5221 9.53074C24.2013 8.86172 23.7184 8.28352 23.1171 7.84877C22.5159 7.41401 21.8155 7.13651 21.0797 7.0415C21.0355 7.03163 20.9922 7.01774 20.9506 7H20.0699C19.7448 7.06151 19.4231 7.14 19.1062 7.23516C18.5146 7.4281 17.9701 7.7431 17.508 8.15978C17.0459 8.57645 16.6764 9.08551 16.4234 9.65402C16.1704 10.2225 16.0397 10.8378 16.0395 11.4601C16.0394 12.0823 16.1699 12.6976 16.4226 13.2663L16.4734 13.3769L16.2336 13.5291C15.5327 13.9348 14.8503 14.3452 14.1264 14.7464C13.8693 14.8879 13.6447 15.0816 13.4668 15.3151C13.2889 15.5485 13.1618 15.8165 13.0935 16.102C12.0945 19.8368 11.0955 23.5655 10.0964 27.2881C10.0097 27.5627 9.981 27.8523 10.0123 28.1386C10.0435 28.4248 10.134 28.7014 10.278 28.9508C10.422 29.2002 10.6163 29.4169 10.8486 29.5871C11.0809 29.7573 11.3461 29.8772 11.6273 29.9394C14.0434 30.5818 16.458 31.2274 18.871 31.876C19.1577 31.9794 19.4635 32.0189 19.767 31.9916C20.0706 31.9643 20.3645 31.871 20.6281 31.7181C20.8917 31.5652 21.1187 31.3564 21.2931 31.1065C21.4675 30.8566 21.5851 30.5715 21.6376 30.2714C22.6151 26.6072 23.5972 22.9446 24.584 19.2835C24.6783 18.9722 24.7058 18.6445 24.6644 18.3218C24.6231 17.9992 24.514 17.6889 24.3442 17.4115C23.4681 15.9129 22.6059 14.4005 21.7436 12.8928C21.6155 12.6247 21.4311 12.3875 21.203 12.1973C20.9748 12.007 20.7083 11.8682 20.4217 11.7903C20.135 11.7124 19.8349 11.6972 19.5418 11.7458C19.2488 11.7945 18.9696 11.9057 18.7235 12.072L17.188 12.9942C16.8546 12.2802 16.7642 11.4766 16.9307 10.7063C17.0973 9.93606 17.5116 9.24157 18.1102 8.7291C18.7655 8.15797 19.6023 7.83826 20.4715 7.82702C21.3406 7.81578 22.1854 8.11375 22.8552 8.66775C23.525 9.22174 23.9761 9.99571 24.1281 10.8515C24.28 11.7073 24.123 12.5893 23.6848 13.34L22.4998 12.5331H22.4629C22.4947 12.6026 22.5301 12.6703 22.569 12.736C23.3851 14.1562 24.1967 15.5855 25.022 17.0057C25.246 17.3694 25.3909 17.7762 25.4473 18.1997C25.5037 18.6231 25.4704 19.0537 25.3494 19.4633C24.3627 23.1382 23.3851 26.827 22.3984 30.4835C22.2923 30.8662 22.1125 31.235 21.9604 31.627L22.924 31.461C24.5333 31.1659 26.1517 30.8846 27.7425 30.5849C28.0155 30.5376 28.2762 30.4357 28.5089 30.2854C28.7417 30.135 28.9417 29.9393 29.0971 29.7099C29.2525 29.4805 29.36 29.2221 29.4133 28.9501C29.4665 28.6782 29.4644 28.3984 29.407 28.1273ZM16.3442 20.0812C16.6484 20.0836 16.9392 20.2062 17.1534 20.4221C17.3676 20.638 17.4878 20.9298 17.4878 21.2339C17.4878 21.5397 17.3663 21.8329 17.1501 22.049C16.934 22.2652 16.6408 22.3867 16.335 22.3867C16.0293 22.3867 15.7361 22.2652 15.5199 22.049C15.3037 21.8329 15.1823 21.5397 15.1823 21.2339C15.1829 21.082 15.2134 20.9316 15.2722 20.7914C15.3309 20.6512 15.4166 20.524 15.5245 20.4169C15.6324 20.3099 15.7604 20.2251 15.901 20.1675C16.0416 20.1099 16.1923 20.0806 16.3442 20.0812ZM17.9765 27.8276C17.826 27.827 17.677 27.7966 17.5382 27.7383C17.3994 27.68 17.2735 27.5949 17.1676 27.4878C17.0618 27.3806 16.9782 27.2537 16.9216 27.1142C16.8649 26.9747 16.8364 26.8254 16.8376 26.6748C16.8357 26.524 16.8642 26.3743 16.9214 26.2346C16.9785 26.095 17.0632 25.9683 17.1703 25.862C17.2774 25.7558 17.4048 25.6721 17.5449 25.6161C17.685 25.5601 17.8349 25.5328 17.9857 25.5359C18.1363 25.5359 18.2854 25.5657 18.4244 25.6234C18.5634 25.6812 18.6897 25.7658 18.796 25.8725C18.9022 25.9792 18.9863 26.1058 19.0435 26.245C19.1007 26.3843 19.1299 26.5335 19.1292 26.6841C19.1256 26.9878 19.0027 27.2779 18.7871 27.4919C18.5714 27.7058 18.2803 27.8264 17.9765 27.8276ZM19.973 21.6858C18.2885 23.3796 16.5978 25.0702 14.901 26.7578C14.8666 26.8036 14.8227 26.8412 14.7722 26.8681C14.7217 26.895 14.666 26.9106 14.6088 26.9137C14.5517 26.9167 14.4946 26.9073 14.4415 26.8859C14.3885 26.8646 14.3407 26.8319 14.3016 26.7901C14.1633 26.6149 14.1633 26.3659 14.38 26.1676L18.8249 21.7181C19.037 21.506 19.2491 21.2893 19.4658 21.0818C19.5209 21.0155 19.5986 20.9722 19.6839 20.9603C19.7692 20.9483 19.8558 20.9686 19.9269 21.0172C20.03 21.1171 20.1213 21.2285 20.199 21.3492C20.135 21.4686 20.0593 21.5814 19.973 21.6858ZM17.1604 12.9942C17.4238 13.5684 17.8302 14.0654 18.3408 14.4374L18.5022 14.2991C18.6903 14.1361 18.9171 14.024 19.1609 13.9735C19.4047 13.9231 19.6574 13.9359 19.8948 14.0109C20.1322 14.0858 20.3465 14.2203 20.5171 14.4016C20.6878 14.5829 20.8092 14.8048 20.8696 15.0463C20.9301 15.2878 20.9277 15.5408 20.8627 15.7811C20.7976 16.0214 20.672 16.2411 20.498 16.4191C20.3239 16.5971 20.1071 16.7275 19.8683 16.7979C19.6295 16.8683 19.3767 16.8764 19.1339 16.8213C18.8087 16.7516 18.518 16.5708 18.3118 16.3099C18.1056 16.049 17.9968 15.7244 18.0042 15.3919C18.0119 15.3216 17.999 15.2507 17.967 15.1876C17.9351 15.1246 17.8855 15.0722 17.8244 15.0368C17.244 14.6101 16.7848 14.0396 16.4918 13.3815L17.1604 12.9942Z" fill="url(#paint0_linear_209_258)"/>
<path d="M20.116 15.3916C20.106 15.5582 20.0337 15.7148 19.9135 15.8305C19.7932 15.9461 19.6339 16.0123 19.4671 16.0158C19.3003 16.0193 19.1383 15.9598 19.0133 15.8493C18.8883 15.7388 18.8096 15.5853 18.7926 15.4193C18.7896 15.3319 18.8039 15.2448 18.8348 15.1631C18.8657 15.0813 18.9125 15.0065 18.9726 14.943C19.0327 14.8795 19.1048 14.8286 19.1847 14.7932C19.2646 14.7578 19.3508 14.7387 19.4382 14.7369C19.6147 14.7344 19.7851 14.8019 19.912 14.9245C20.039 15.0472 20.1123 15.2151 20.116 15.3916Z" fill="url(#paint1_linear_209_258)"/>
<path d="M16.6993 21.2568C16.69 21.3505 16.6451 21.4371 16.574 21.4989C16.5028 21.5606 16.4107 21.5928 16.3166 21.5888C16.2225 21.5826 16.1346 21.5394 16.0723 21.4685C16.0101 21.3976 15.9785 21.3048 15.9846 21.2107C15.9907 21.1165 16.034 21.0286 16.1049 20.9664C16.1758 20.9041 16.2686 20.8726 16.3627 20.8787C16.4565 20.8869 16.5435 20.9306 16.6061 21.0009C16.6687 21.0712 16.702 21.1627 16.6993 21.2568Z" fill="url(#paint2_linear_209_258)"/>
<path d="M18.313 26.684C18.3144 26.731 18.306 26.7777 18.2882 26.8213C18.2705 26.8648 18.2438 26.9041 18.2099 26.9367C18.176 26.9692 18.1357 26.9944 18.0915 27.0104C18.0473 27.0265 18.0003 27.0331 17.9534 27.0298C17.8625 27.0286 17.7757 26.9916 17.7118 26.9269C17.648 26.8622 17.6122 26.7749 17.6122 26.684C17.611 26.6372 17.6191 26.5907 17.6362 26.5471C17.6532 26.5035 17.6788 26.4638 17.7115 26.4302C17.7442 26.3967 17.7832 26.3701 17.8263 26.3519C17.8695 26.3337 17.9158 26.3243 17.9626 26.3244C18.0098 26.323 18.0567 26.3315 18.1005 26.3492C18.1442 26.3669 18.1838 26.3935 18.2167 26.4273C18.2497 26.4611 18.2752 26.5014 18.2918 26.5456C18.3084 26.5897 18.3156 26.6369 18.313 26.684Z" fill="url(#paint3_linear_209_258)"/>
</g>
<defs>
<filter id="filter0_d_209_258" x="6" y="6" width="27.4517" height="33" filterUnits="userSpaceOnUse" color-interpolation-filters="sRGB">
<feFlood flood-opacity="0" result="BackgroundImageFix"/>
<feColorMatrix in="SourceAlpha" type="matrix" values="0 0 0 0 0 0 0 0 0 0 0 0 0 0 0 0 0 0 127 0" result="hardAlpha"/>
<feOffset dy="3"/>
<feGaussianBlur stdDeviation="2"/>
<feComposite in2="hardAlpha" operator="out"/>
<feColorMatrix type="matrix" values="0 0 0 0 0.829167 0 0 0 0 0.196927 0 0 0 0 0.210379 0 0 0 0.15 0"/>
<feBlend mode="normal" in2="BackgroundImageFix" result="effect1_dropShadow_209_258"/>
<feBlend mode="normal" in="SourceGraphic" in2="effect1_dropShadow_209_258" result="shape"/>
</filter>
<linearGradient id="paint0_linear_209_258" x1="19.7258" y1="7" x2="19.7258" y2="32" gradientUnits="userSpaceOnUse">
<stop stop-color="#B02B2B"/>
<stop offset="1" stop-color="#D11216"/>
</linearGradient>
<linearGradient id="paint1_linear_209_258" x1="19.4541" y1="14.7368" x2="19.4541" y2="16.0159" gradientUnits="userSpaceOnUse">
<stop stop-color="#B02B2B"/>
<stop offset="1" stop-color="#D11216"/>
</linearGradient>
<linearGradient id="paint2_linear_209_258" x1="16.3417" y1="20.8779" x2="16.3417" y2="21.5891" gradientUnits="userSpaceOnUse">
<stop stop-color="#B02B2B"/>
<stop offset="1" stop-color="#D11216"/>
</linearGradient>
<linearGradient id="paint3_linear_209_258" x1="17.9628" y1="26.3242" x2="17.9628" y2="27.0306" gradientUnits="userSpaceOnUse">
<stop stop-color="#B02B2B"/>
<stop offset="1" stop-color="#D11216"/>
</linearGradient>
</defs>
</svg>
