<svg xmlns="http://www.w3.org/2000/svg" width="86" height="86" viewBox="0 0 86 86" fill="none">
    <g filter="url(#filter0_d_153_68)">
        <path d="M23 33.68C23 32.2575 23.6059 30.9023 24.666 29.9538L32.1319 23.2738C33.0487 22.4535 34.2357 22 35.4659 22H58C60.7614 22 63 24.2386 63 27V51.04C63 52.3661 62.4732 53.6379 61.5355 54.5756L55.5756 60.5355C54.6379 61.4732 53.3661 62 52.04 62H28C25.2386 62 23 59.7614 23 57V33.68Z" fill="url(#paint0_linear_153_68)"/>
    </g>
    <g clip-path="url(#clip0_153_68)">
        <path d="M55.8859 51.3699C54.4031 50.5264 53.5657 49.1337 53.2505 46.9965C53.1568 46.2559 53.1107 45.5099 53.1124 44.7633C53.1124 44.5562 53.1124 44.3491 53.1124 44.145C53.0914 43.2955 53.1124 42.4551 53.1124 41.6717C53.1384 41.4781 53.0951 41.2815 52.9902 41.1168C52.8853 40.952 52.7255 40.8296 52.5391 40.7712C52.1729 40.6241 51.8067 40.471 51.4556 40.3029C51.2665 40.2189 51.0803 40.1318 50.8912 40.0508C50.7529 39.9862 50.6026 39.9515 50.45 39.9487C50.0238 39.9487 49.7566 40.2759 49.7536 40.8042V42.0199H48.0307V41.7197C48.0307 41.6477 48.0307 41.5726 48.0307 41.4976C48.0307 41.2665 48.0307 41.0323 48.0307 40.7982C48.0463 40.2802 48.0272 39.7618 47.9737 39.2464C47.9104 38.805 47.6937 38.4001 47.3617 38.1026C47.0296 37.8051 46.6033 37.634 46.1577 37.6195C45.7555 37.6015 45.3202 37.5925 44.786 37.5925H43.8855H43.4052C43.2868 37.6009 43.1686 37.574 43.0655 37.5152C42.9624 37.4564 42.879 37.3684 42.8259 37.2623C42.4867 36.662 42.1385 36.0616 41.7933 35.4613C41.4482 34.861 41.121 34.3297 40.8058 33.7444C40.703 33.5344 40.5397 33.3599 40.337 33.2434C40.1343 33.1268 39.9014 33.0734 39.6682 33.09C38.5966 33.09 37.522 33.09 36.4505 33.09H32.5844C31.819 33.09 31.4138 33.4923 31.4138 34.2517C31.4138 35.8906 31.4138 37.5284 31.4138 39.1653V41.6086L31.2006 41.5846C31.101 41.5731 31.0008 41.5671 30.9005 41.5666C30.6893 41.5402 30.4762 41.5982 30.3076 41.728C30.139 41.8579 30.0284 42.0491 30 42.26V44.193C30.2101 44.7934 30.3302 44.8594 30.9995 44.8624H33.6019V46.3632H32.8996C32.8035 46.3632 32.7035 46.3632 32.5994 46.3632C32.0067 46.388 31.4387 46.6072 30.9831 46.987C30.5274 47.3667 30.2093 47.8859 30.078 48.4643C30.054 48.5634 30.036 48.6654 30.015 48.7645L30 48.9086V49.2387C30.027 49.3378 30.048 49.4399 30.069 49.5389C30.1086 49.7592 30.172 49.9746 30.2581 50.1813C30.4585 50.6766 30.8059 51.0987 31.2535 51.3907C31.7011 51.6826 32.2274 51.8304 32.7615 51.8141C33.5749 51.8141 34.4544 51.8141 35.529 51.8141H55.7509C55.807 51.8194 55.8631 51.8031 55.9077 51.7686C55.9523 51.734 55.9821 51.6837 55.991 51.628C56.0074 51.5796 56.0058 51.5268 55.9865 51.4794C55.9672 51.432 55.9315 51.3931 55.8859 51.3699ZM48.0307 43.5057V42.5692H49.7236V46.9185L49.4865 46.8405C49.3424 46.7924 49.1863 46.7384 49.0573 46.6844C48.7592 46.5598 48.4495 46.4653 48.1328 46.4022C47.9539 46.3763 47.7732 46.3643 47.5925 46.3662C47.4454 46.3662 47.2923 46.3662 47.1512 46.3662C47.0102 46.3662 46.8511 46.3662 46.686 46.3662H46.5089V44.9254L46.647 44.8924H46.692L46.779 44.8744C47.6075 44.7843 48.0307 44.3221 48.0307 43.5057ZM31.0536 44.3611H30.5343V42.0709H40.4876C40.8418 42.0709 40.8448 41.8878 40.8448 41.8278C40.8448 41.6627 40.7278 41.5786 40.4906 41.5726H31.933V41.4075V41.3235C31.9303 41.2755 31.9303 41.2274 31.933 41.1794C31.933 38.8642 31.933 36.5509 31.933 34.2397C31.906 33.7834 32.1011 33.6003 32.5784 33.6003H35.8802H39.6532C39.7998 33.5916 39.9456 33.6266 40.0723 33.7009C40.1989 33.7752 40.3006 33.8854 40.3646 34.0175C40.7668 34.7259 41.175 35.4313 41.5652 36.1397C41.7573 36.4669 41.9464 36.797 42.1355 37.1272C42.1655 37.1782 42.1896 37.2293 42.2196 37.2923L42.2526 37.3613L42.3787 37.6225H35.1688V36.4909C35.1688 35.9266 35.1688 35.3623 35.1688 34.795C35.1735 34.7621 35.1711 34.7286 35.1618 34.6966C35.1526 34.6647 35.1366 34.6352 35.115 34.6099C35.0935 34.5846 35.0668 34.5642 35.0367 34.5501C35.0066 34.5359 34.9739 34.5283 34.9407 34.5278H34.9227C34.8888 34.5282 34.8553 34.5354 34.8242 34.549C34.7932 34.5626 34.7652 34.5823 34.7419 34.6069C34.7187 34.6316 34.7006 34.6607 34.6889 34.6925C34.6771 34.7243 34.6719 34.7581 34.6735 34.792C34.6735 34.837 34.6735 34.882 34.6735 34.93V37.6135C34.6735 38.0937 34.6975 38.1178 35.1838 38.1178H45.7405C45.901 38.1156 46.0615 38.1246 46.2207 38.1448C46.5775 38.1907 46.9059 38.3633 47.1461 38.6311C47.3863 38.8988 47.5223 39.2439 47.5294 39.6036C47.5294 40.8642 47.5294 42.1429 47.5294 43.3796V43.5987C47.5356 43.7008 47.52 43.8031 47.4837 43.8987C47.4474 43.9944 47.3912 44.0812 47.3189 44.1535C47.2465 44.2259 47.1597 44.282 47.064 44.3183C46.9684 44.3546 46.8661 44.3702 46.764 44.3641H46.0136L31.0536 44.3611ZM45.9746 44.8954V46.3302H34.1452L34.1302 46.1651V46.09C34.1274 46.0361 34.1274 45.982 34.1302 45.928V44.8954H45.9746ZM47.7756 51.3159H32.7615C32.5496 51.3159 32.3386 51.2876 32.1341 51.2318C31.6395 51.089 31.2093 50.7798 30.9162 50.3565C30.6231 49.9333 30.485 49.4218 30.5253 48.9086C30.5659 48.3757 30.7985 47.8756 31.18 47.5013C31.5615 47.127 32.0658 46.9039 32.5994 46.8735C32.7525 46.8735 32.9176 46.8735 33.1067 46.8735H33.638H34.1632H44.804H45.8215H46.8931C47.2533 46.8735 47.5715 46.8735 47.8656 46.8735C48.4351 46.9126 48.9676 47.1694 49.3528 47.5907C49.738 48.012 49.9461 48.5653 49.9342 49.136C49.9222 49.7067 49.691 50.2509 49.2885 50.6556C48.886 51.0604 48.3432 51.2947 47.7726 51.3099L47.7756 51.3159ZM49.5765 51.3159L49.7416 51.0427L49.7626 51.0067C49.7757 50.9762 49.7918 50.947 49.8107 50.9196C50.1571 50.5421 50.389 50.0738 50.4794 49.5695C50.5697 49.0651 50.5148 48.5454 50.3209 48.0711C50.2706 47.9172 50.2472 47.7557 50.2519 47.5939C50.2519 46.087 50.2519 44.5862 50.2519 43.0914V40.3299L50.504 40.441L51.0233 40.6721C51.4225 40.8462 51.7977 41.0143 52.1759 41.1644C52.3173 41.2012 52.4404 41.2882 52.5221 41.4092C52.6039 41.5302 52.6388 41.6769 52.6202 41.8217C52.5992 42.9894 52.5962 44.0219 52.6202 44.9764C52.6268 45.6568 52.6719 46.3363 52.7553 47.0115C52.8964 48.3268 53.4062 49.5754 54.226 50.6135C54.2951 50.7005 54.3671 50.7816 54.4422 50.8716L54.5622 51.0097L54.8174 51.3099L49.5765 51.3159Z" fill="white"/>
        <path d="M44.978 49.0645C44.9907 49.1179 44.9816 49.174 44.9529 49.2207C44.9242 49.2674 44.8782 49.3009 44.8249 49.3137C44.7511 49.3363 44.674 49.3465 44.5968 49.3437H35.9191C35.8411 49.3477 35.763 49.3385 35.688 49.3167C35.6595 49.3115 35.6324 49.3004 35.6085 49.2841C35.5845 49.2679 35.5642 49.2467 35.549 49.2221C35.5337 49.1975 35.5237 49.17 35.5198 49.1413C35.5158 49.1126 35.5179 49.0834 35.5259 49.0555C35.529 48.9998 35.5536 48.9474 35.5944 48.9094C35.6352 48.8713 35.6892 48.8506 35.745 48.8514C35.774 48.8484 35.8032 48.8484 35.8321 48.8514H44.6808C44.7098 48.8484 44.739 48.8484 44.7679 48.8514C44.8237 48.853 44.8767 48.876 44.9158 48.9157C44.955 48.9555 44.9773 49.0088 44.978 49.0645Z" fill="white"/>
        <path d="M32.9146 47.6237C32.5466 47.6261 32.1943 47.7726 31.9333 48.0319C31.6724 48.2913 31.5235 48.6426 31.5188 49.0105C31.5227 49.3792 31.6705 49.7319 31.9307 49.9932C32.1908 50.2545 32.5428 50.4038 32.9115 50.4092C33.2817 50.4092 33.6367 50.2622 33.8985 50.0004C34.1602 49.7387 34.3073 49.3837 34.3073 49.0135C34.3073 48.6433 34.1602 48.2883 33.8985 48.0265C33.6367 47.7648 33.2817 47.6177 32.9115 47.6177L32.9146 47.6237ZM32.9146 49.917C32.6757 49.917 32.4467 49.8221 32.2778 49.6532C32.1089 49.4844 32.0141 49.2553 32.0141 49.0165C32.0141 48.7777 32.1089 48.5486 32.2778 48.3798C32.4467 48.2109 32.6757 48.116 32.9146 48.116C33.1534 48.116 33.3824 48.2109 33.5513 48.3798C33.7202 48.5486 33.815 48.7777 33.815 49.0165C33.815 49.2553 33.7202 49.4844 33.5513 49.6532C33.3824 49.8221 33.1534 49.917 32.9146 49.917Z" fill="white"/>
        <path d="M47.5565 47.6237C47.2811 47.6238 47.0119 47.7055 46.783 47.8586C46.5541 48.0116 46.3757 48.2291 46.2703 48.4835C46.1649 48.7379 46.1373 49.0179 46.191 49.288C46.2447 49.5581 46.3773 49.8062 46.5719 50.001C46.7009 50.1307 46.8543 50.2336 47.0233 50.3037C47.1923 50.3737 47.3735 50.4096 47.5565 50.4092C47.9266 50.4092 48.2817 50.2621 48.5434 50.0004C48.8052 49.7386 48.9522 49.3836 48.9522 49.0134C48.9522 48.6433 48.8052 48.2882 48.5434 48.0265C48.2817 47.7647 47.9266 47.6177 47.5565 47.6177V47.6237ZM48.457 49.0194C48.457 49.2583 48.3621 49.4873 48.1932 49.6562C48.0243 49.825 47.7953 49.9199 47.5565 49.9199C47.3176 49.9199 47.0886 49.825 46.9197 49.6562C46.7509 49.4873 46.656 49.2583 46.656 49.0194C46.656 48.7832 46.7488 48.5564 46.9144 48.3879C47.08 48.2195 47.3053 48.1229 47.5415 48.1189C47.7803 48.1189 48.0093 48.2138 48.1782 48.3827C48.3471 48.5516 48.4419 48.7806 48.4419 49.0194H48.457Z" fill="white"/>
    </g>
    <defs>
        <filter id="filter0_d_153_68" x="0" y="0" width="86" height="86" filterUnits="userSpaceOnUse" color-interpolation-filters="sRGB">
            <feFlood flood-opacity="0" result="BackgroundImageFix"/>
            <feColorMatrix in="SourceAlpha" type="matrix" values="0 0 0 0 0 0 0 0 0 0 0 0 0 0 0 0 0 0 127 0" result="hardAlpha"/>
            <feOffset dy="1"/>
            <feGaussianBlur stdDeviation="11.5"/>
            <feComposite in2="hardAlpha" operator="out"/>
            <feColorMatrix type="matrix" values="0 0 0 0 0.819608 0 0 0 0 0.0705882 0 0 0 0 0.0862745 0 0 0 0.25 0"/>
            <feBlend mode="normal" in2="BackgroundImageFix" result="effect1_dropShadow_153_68"/>
            <feBlend mode="normal" in="SourceGraphic" in2="effect1_dropShadow_153_68" result="shape"/>
        </filter>
        <linearGradient id="paint0_linear_153_68" x1="60.5" y1="22" x2="26" y2="60" gradientUnits="userSpaceOnUse">
            <stop stop-color="#D11216"/>
            <stop offset="1" stop-color="#B02B2B"/>
        </linearGradient>
        <clipPath id="clip0_153_68">
            <rect width="26" height="18.8231" fill="white" transform="translate(30 33)"/>
        </clipPath>
    </defs>
</svg>
