<svg width="40" height="40" viewBox="0 0 40 40" fill="none" xmlns="http://www.w3.org/2000/svg">
<path d="M0.5 11.68C0.5 10.3997 1.04532 9.18008 1.99942 8.32641L9.4653 1.64641C10.2904 0.908163 11.3587 0.5 12.4659 0.5H35C37.4853 0.5 39.5 2.51472 39.5 5V29.04C39.5 30.2335 39.0259 31.3781 38.182 32.222L32.222 38.182C31.3781 39.0259 30.2335 39.5 29.04 39.5H5.00001C2.51472 39.5 0.5 37.4853 0.5 35V11.68Z" stroke="#A6A6A6"/>
<g filter="url(#filter0_d_209_193)">
<path d="M29.9261 17.2219C29.6926 17.4638 29.4507 17.6973 29.213 17.935C28.5508 18.6014 27.8844 19.2593 27.2265 19.93C27.1689 19.9941 27.0954 20.0419 27.0135 20.0688C26.9315 20.0956 26.844 20.1004 26.7596 20.0828C25.8105 19.8986 24.8283 19.9944 23.9327 20.3587C22.8948 20.715 21.982 21.3637 21.3042 22.2267C20.6265 23.0897 20.2126 24.1303 20.1125 25.223C20.0991 25.3953 20.038 25.5604 19.9361 25.6998C19.8341 25.8393 19.6953 25.9476 19.5352 26.0125C17.4893 27.0015 15.4604 28.016 13.4187 29.022C13.3423 29.0782 13.2578 29.1225 13.1682 29.1536C12.8287 29.2045 12.6122 28.9371 12.6801 28.5593C12.8301 27.7557 12.9829 26.9534 13.1385 26.1526C13.3975 24.7943 13.6649 23.4318 13.9153 22.065C13.918 22.0162 13.9108 21.9672 13.894 21.9213C13.8772 21.8753 13.8512 21.8332 13.8177 21.7976C12.2811 20.2526 10.7417 18.7118 9.1995 17.1752C9.13583 17.1115 9.06791 17.0648 9 16.9927V16.5682C9.055 16.49 9.12816 16.4264 9.21319 16.3828C9.29822 16.3392 9.39257 16.3169 9.48813 16.3178C9.66641 16.3178 9.84468 16.2753 10.023 16.2499C11.9543 15.9867 13.8856 15.715 15.8211 15.4561C15.8974 15.4534 15.9712 15.4282 16.0331 15.3836C16.0951 15.3391 16.1424 15.2771 16.1692 15.2057C17.1342 13.2673 18.0991 11.3402 19.0641 9.42446C19.1504 9.2755 19.2483 9.13357 19.3569 9H19.7814C19.8907 9.10722 19.9888 9.22526 20.0743 9.35231C21.0619 11.302 22.0396 13.2531 23.0073 15.2057C23.0351 15.277 23.0834 15.3385 23.1461 15.3823C23.2088 15.4261 23.2831 15.4503 23.3596 15.4519C24.8538 15.6514 26.3309 15.8763 27.8462 16.0758L29.629 16.3178C29.8285 16.3432 30.0195 16.3857 30.0534 16.5979C30.0868 16.7042 30.0926 16.8172 30.0703 16.9263C30.048 17.0355 29.9984 17.1372 29.9261 17.2219Z" fill="url(#paint0_linear_209_193)"/>
<path d="M30.9617 25.3589C30.8738 24.6893 30.6535 24.0439 30.3138 23.4602C29.9741 22.8765 29.5217 22.3661 28.9829 21.9589C28.4441 21.5517 27.8298 21.2556 27.1755 21.088C26.5213 20.9204 25.8402 20.8846 25.172 20.9827C24.0836 21.1669 23.0833 21.6964 22.319 22.4929C21.5546 23.2893 21.0667 24.3105 20.9274 25.4056C20.8175 26.5347 21.0878 27.6681 21.6952 28.6262C22.3027 29.5843 23.2126 30.3122 24.2806 30.6944C24.6754 30.8345 25.0956 30.8982 25.5031 31H26.403C26.8503 30.9174 27.2914 30.804 27.7231 30.6605C28.5914 30.3416 29.354 29.7878 29.9259 29.0608C30.4978 28.3338 30.8564 27.4621 30.9617 26.5432C30.9617 26.4965 30.9872 26.4498 30.9999 26.4031V25.499C30.9832 25.4535 30.9704 25.4066 30.9617 25.3589ZM28.9498 24.5312L25.4989 27.9736C25.4405 28.0362 25.3698 28.0861 25.2913 28.1203C25.2128 28.1544 25.1282 28.172 25.0426 28.172C24.957 28.172 24.8723 28.1544 24.7938 28.1203C24.7153 28.0861 24.6446 28.0362 24.5863 27.9736C24.0217 27.4048 23.4529 26.8403 22.8884 26.2758C22.8144 26.2182 22.7599 26.1392 22.7325 26.0496C22.7052 25.9599 22.7063 25.8639 22.7356 25.7749C22.7596 25.698 22.8038 25.629 22.8636 25.575C22.9234 25.521 22.9965 25.4841 23.0754 25.4681C23.1544 25.452 23.2362 25.4574 23.3123 25.4838C23.3884 25.5101 23.456 25.5564 23.5081 25.6178C23.9326 26.0423 24.3571 26.4668 24.7815 26.8912C24.8338 26.9521 24.8807 27.0174 24.9216 27.0865L26.802 25.2019L28.2154 23.7926C28.2629 23.7353 28.3231 23.6898 28.3914 23.66C28.4596 23.6302 28.5338 23.6168 28.6082 23.6209C28.6825 23.6251 28.7548 23.6466 28.8193 23.6838C28.8838 23.721 28.9387 23.7728 28.9795 23.8351C29.0286 23.8798 29.0673 23.9348 29.0928 23.9962C29.1183 24.0575 29.1301 24.1237 29.1272 24.1901C29.1244 24.2565 29.1071 24.3214 29.0764 24.3804C29.0457 24.4393 29.0025 24.4908 28.9498 24.5312Z" fill="url(#paint1_linear_209_193)"/>
</g>
<defs>
<filter id="filter0_d_209_193" x="5" y="8" width="29.9999" height="30" filterUnits="userSpaceOnUse" color-interpolation-filters="sRGB">
<feFlood flood-opacity="0" result="BackgroundImageFix"/>
<feColorMatrix in="SourceAlpha" type="matrix" values="0 0 0 0 0 0 0 0 0 0 0 0 0 0 0 0 0 0 127 0" result="hardAlpha"/>
<feOffset dy="3"/>
<feGaussianBlur stdDeviation="2"/>
<feComposite in2="hardAlpha" operator="out"/>
<feColorMatrix type="matrix" values="0 0 0 0 0.829167 0 0 0 0 0.196927 0 0 0 0 0.210379 0 0 0 0.15 0"/>
<feBlend mode="normal" in2="BackgroundImageFix" result="effect1_dropShadow_209_193"/>
<feBlend mode="normal" in="SourceGraphic" in2="effect1_dropShadow_209_193" result="shape"/>
</filter>
<linearGradient id="paint0_linear_209_193" x1="19.5418" y1="9" x2="19.5418" y2="29.1598" gradientUnits="userSpaceOnUse">
<stop stop-color="#D11216"/>
<stop offset="1" stop-color="#B02B2B"/>
</linearGradient>
<linearGradient id="paint1_linear_209_193" x1="25.9517" y1="20.9287" x2="25.9517" y2="31" gradientUnits="userSpaceOnUse">
<stop stop-color="#D11216"/>
<stop offset="1" stop-color="#B02B2B"/>
</linearGradient>
</defs>
</svg>
