<svg width="40" height="40" viewBox="0 0 40 40" fill="none" xmlns="http://www.w3.org/2000/svg">
<path d="M0 11.68C0 10.2575 0.605911 8.90231 1.66603 7.95379L9.1319 1.27379C10.0487 0.453514 11.2357 0 12.4659 0H35C37.7614 0 40 2.23858 40 5V29.04C40 30.3661 39.4732 31.6379 38.5355 32.5756L32.5756 38.5355C31.6379 39.4732 30.3661 40 29.04 40H5.00001C2.23858 40 0 37.7614 0 35V11.68Z" fill="url(#paint0_linear_153_68)"/>
<g clip-path="url(#clip0_153_68)">
<path d="M32.8859 29.3699C31.4031 28.5264 30.5657 27.1337 30.2505 24.9965C30.1568 24.2559 30.1107 23.5099 30.1124 22.7633C30.1124 22.5562 30.1124 22.3491 30.1124 22.145C30.0914 21.2955 30.1124 20.4551 30.1124 19.6717C30.1384 19.4781 30.0951 19.2815 29.9902 19.1168C29.8853 18.952 29.7255 18.8296 29.5391 18.7712C29.1729 18.6241 28.8067 18.471 28.4556 18.3029C28.2665 18.2189 28.0803 18.1318 27.8912 18.0508C27.7529 17.9862 27.6026 17.9515 27.45 17.9487C27.0238 17.9487 26.7566 18.2759 26.7536 18.8042V20.0199H25.0307V19.7197C25.0307 19.6477 25.0307 19.5726 25.0307 19.4976C25.0307 19.2665 25.0307 19.0323 25.0307 18.7982C25.0463 18.2802 25.0272 17.7618 24.9737 17.2464C24.9104 16.805 24.6937 16.4001 24.3617 16.1026C24.0296 15.8051 23.6033 15.634 23.1577 15.6195C22.7555 15.6015 22.3202 15.5925 21.786 15.5925H20.8855H20.4052C20.2868 15.6009 20.1686 15.574 20.0655 15.5152C19.9624 15.4564 19.879 15.3684 19.8259 15.2623C19.4867 14.662 19.1385 14.0616 18.7933 13.4613C18.4482 12.861 18.121 12.3297 17.8058 11.7444C17.703 11.5344 17.5397 11.3599 17.337 11.2434C17.1343 11.1268 16.9014 11.0734 16.6682 11.09C15.5966 11.09 14.522 11.09 13.4505 11.09H9.58439C8.81898 11.09 8.41376 11.4923 8.41376 12.2517C8.41376 13.8906 8.41376 15.5284 8.41376 17.1653V19.6086L8.20065 19.5846C8.101 19.5731 8.00079 19.5671 7.90048 19.5666C7.6893 19.5402 7.47623 19.5982 7.30759 19.728C7.13896 19.8579 7.02842 20.0491 7 20.26V22.193C7.21011 22.7934 7.33018 22.8594 7.99954 22.8624H10.6019V24.3632H9.89956C9.80351 24.3632 9.70346 24.3632 9.5994 24.3632C9.00675 24.388 8.43875 24.6072 7.98306 24.987C7.52737 25.3667 7.20934 25.8859 7.07804 26.4643C7.05403 26.5634 7.03602 26.6654 7.01501 26.7645L7 26.9086V27.2387C7.02701 27.3378 7.04803 27.4399 7.06904 27.5389C7.10863 27.7592 7.17204 27.9746 7.25814 28.1813C7.45851 28.6766 7.80589 29.0987 8.25347 29.3907C8.70105 29.6826 9.22735 29.8304 9.76149 29.8141C10.5749 29.8141 11.4544 29.8141 12.529 29.8141H32.7509C32.807 29.8194 32.8631 29.8031 32.9077 29.7686C32.9523 29.734 32.9821 29.6837 32.991 29.628C33.0074 29.5796 33.0058 29.5268 32.9865 29.4794C32.9672 29.432 32.9315 29.3931 32.8859 29.3699ZM25.0307 21.5057V20.5692H26.7236V24.9185L26.4865 24.8405C26.3424 24.7924 26.1863 24.7384 26.0573 24.6844C25.7592 24.5598 25.4495 24.4653 25.1328 24.4022C24.9539 24.3763 24.7732 24.3643 24.5925 24.3662C24.4454 24.3662 24.2923 24.3662 24.1512 24.3662C24.0102 24.3662 23.8511 24.3662 23.686 24.3662H23.5089V22.9254L23.647 22.8924H23.692L23.779 22.8744C24.6075 22.7843 25.0307 22.3221 25.0307 21.5057ZM8.05357 22.3611H7.53429V20.0709H17.4876C17.8418 20.0709 17.8448 19.8878 17.8448 19.8278C17.8448 19.6627 17.7278 19.5786 17.4906 19.5726H8.93304V19.4075V19.3235C8.93033 19.2755 8.93033 19.2274 8.93304 19.1794C8.93304 16.8642 8.93304 14.5509 8.93304 12.2397C8.90603 11.7834 9.10113 11.6003 9.57839 11.6003H12.8802H16.6532C16.7998 11.5916 16.9456 11.6266 17.0723 11.7009C17.1989 11.7752 17.3006 11.8854 17.3646 12.0175C17.7668 12.7259 18.175 13.4313 18.5652 14.1397C18.7573 14.4669 18.9464 14.797 19.1355 15.1272C19.1655 15.1782 19.1896 15.2293 19.2196 15.2923L19.2526 15.3613L19.3787 15.6225H12.1688V14.4909C12.1688 13.9266 12.1688 13.3623 12.1688 12.795C12.1735 12.7621 12.1711 12.7286 12.1618 12.6966C12.1526 12.6647 12.1366 12.6352 12.115 12.6099C12.0935 12.5846 12.0668 12.5642 12.0367 12.5501C12.0066 12.5359 11.9739 12.5283 11.9407 12.5278H11.9227C11.8888 12.5282 11.8553 12.5354 11.8242 12.549C11.7932 12.5626 11.7652 12.5823 11.7419 12.6069C11.7187 12.6316 11.7006 12.6607 11.6889 12.6925C11.6771 12.7243 11.6719 12.7581 11.6735 12.792C11.6735 12.837 11.6735 12.882 11.6735 12.93V15.6135C11.6735 16.0937 11.6975 16.1178 12.1838 16.1178H22.7405C22.901 16.1156 23.0615 16.1246 23.2207 16.1448C23.5775 16.1907 23.9059 16.3633 24.1461 16.6311C24.3863 16.8988 24.5223 17.2439 24.5294 17.6036C24.5294 18.8642 24.5294 20.1429 24.5294 21.3796V21.5987C24.5356 21.7008 24.52 21.8031 24.4837 21.8987C24.4474 21.9944 24.3912 22.0812 24.3189 22.1535C24.2465 22.2259 24.1597 22.282 24.064 22.3183C23.9684 22.3546 23.8661 22.3702 23.764 22.3641H23.0136L8.05357 22.3611ZM22.9746 22.8954V24.3302H11.1452L11.1302 24.1651V24.09C11.1274 24.0361 11.1274 23.982 11.1302 23.928V22.8954H22.9746ZM24.7756 29.3159H9.76149C9.54957 29.3159 9.33859 29.2876 9.13415 29.2318C8.63952 29.089 8.20933 28.7798 7.91622 28.3565C7.62311 27.9333 7.48503 27.4218 7.52528 26.9086C7.56586 26.3757 7.7985 25.8756 8.17998 25.5013C8.56145 25.127 9.06583 24.9039 9.5994 24.8735C9.75248 24.8735 9.91757 24.8735 10.1067 24.8735H10.638H11.1632H21.804H22.8215H23.8931C24.2533 24.8735 24.5715 24.8735 24.8656 24.8735C25.4351 24.9126 25.9676 25.1694 26.3528 25.5907C26.738 26.012 26.9461 26.5653 26.9342 27.136C26.9222 27.7067 26.691 28.2509 26.2885 28.6556C25.886 29.0604 25.3432 29.2947 24.7726 29.3099L24.7756 29.3159ZM26.5765 29.3159L26.7416 29.0427L26.7626 29.0067C26.7757 28.9762 26.7918 28.947 26.8107 28.9196C27.1571 28.5421 27.389 28.0738 27.4794 27.5695C27.5697 27.0651 27.5148 26.5454 27.3209 26.0711C27.2706 25.9172 27.2472 25.7557 27.2519 25.5939C27.2519 24.087 27.2519 22.5862 27.2519 21.0914V18.3299L27.504 18.441L28.0233 18.6721C28.4225 18.8462 28.7977 19.0143 29.1759 19.1644C29.3173 19.2012 29.4404 19.2882 29.5221 19.4092C29.6039 19.5302 29.6388 19.6769 29.6202 19.8217C29.5992 20.9894 29.5962 22.0219 29.6202 22.9764C29.6268 23.6568 29.6719 24.3363 29.7553 25.0115C29.8964 26.3268 30.4062 27.5754 31.226 28.6135C31.2951 28.7005 31.3671 28.7816 31.4422 28.8716L31.5622 29.0097L31.8174 29.3099L26.5765 29.3159Z" fill="white"/>
<path d="M21.978 27.0645C21.9907 27.1179 21.9816 27.174 21.9529 27.2207C21.9242 27.2674 21.8782 27.3009 21.8249 27.3137C21.7511 27.3363 21.674 27.3465 21.5968 27.3437H12.9191C12.8411 27.3477 12.763 27.3385 12.688 27.3167C12.6595 27.3115 12.6324 27.3004 12.6085 27.2841C12.5845 27.2679 12.5642 27.2467 12.549 27.2221C12.5337 27.1975 12.5237 27.17 12.5198 27.1413C12.5158 27.1126 12.5179 27.0834 12.5259 27.0555C12.529 26.9998 12.5536 26.9474 12.5944 26.9094C12.6352 26.8713 12.6892 26.8506 12.745 26.8514C12.774 26.8484 12.8032 26.8484 12.8321 26.8514H21.6808C21.7098 26.8484 21.739 26.8484 21.7679 26.8514C21.8237 26.853 21.8767 26.876 21.9158 26.9157C21.955 26.9555 21.9773 27.0088 21.978 27.0645Z" fill="white"/>
<path d="M9.91455 25.6237C9.54665 25.6261 9.19434 25.7726 8.93335 26.0319C8.67235 26.2913 8.52351 26.6426 8.5188 27.0105C8.52267 27.3792 8.67047 27.7319 8.93065 27.9932C9.19084 28.2545 9.54283 28.4038 9.91155 28.4092C10.2817 28.4092 10.6367 28.2622 10.8985 28.0004C11.1602 27.7387 11.3073 27.3837 11.3073 27.0135C11.3073 26.6433 11.1602 26.2883 10.8985 26.0265C10.6367 25.7648 10.2817 25.6177 9.91155 25.6177L9.91455 25.6237ZM9.91455 27.917C9.67573 27.917 9.44669 27.8221 9.27781 27.6532C9.10894 27.4844 9.01407 27.2553 9.01407 27.0165C9.01407 26.7777 9.10894 26.5486 9.27781 26.3798C9.44669 26.2109 9.67573 26.116 9.91455 26.116C10.1534 26.116 10.3824 26.2109 10.5513 26.3798C10.7202 26.5486 10.815 26.7777 10.815 27.0165C10.815 27.2553 10.7202 27.4844 10.5513 27.6532C10.3824 27.8221 10.1534 27.917 9.91455 27.917Z" fill="white"/>
<path d="M24.5565 25.6237C24.2811 25.6238 24.0119 25.7055 23.783 25.8586C23.5541 26.0116 23.3757 26.2291 23.2703 26.4835C23.1649 26.7379 23.1373 27.0179 23.191 27.288C23.2447 27.5581 23.3773 27.8062 23.5719 28.001C23.7009 28.1307 23.8543 28.2336 24.0233 28.3037C24.1923 28.3737 24.3735 28.4096 24.5565 28.4092C24.9266 28.4092 25.2817 28.2621 25.5434 28.0004C25.8052 27.7386 25.9522 27.3836 25.9522 27.0134C25.9522 26.6433 25.8052 26.2882 25.5434 26.0265C25.2817 25.7647 24.9266 25.6177 24.5565 25.6177V25.6237ZM25.457 27.0194C25.457 27.2583 25.3621 27.4873 25.1932 27.6562C25.0243 27.825 24.7953 27.9199 24.5565 27.9199C24.3176 27.9199 24.0886 27.825 23.9197 27.6562C23.7509 27.4873 23.656 27.2583 23.656 27.0194C23.656 26.7832 23.7488 26.5564 23.9144 26.3879C24.08 26.2195 24.3053 26.1229 24.5415 26.1189C24.7803 26.1189 25.0093 26.2138 25.1782 26.3827C25.3471 26.5516 25.4419 26.7806 25.4419 27.0194H25.457Z" fill="white"/>
</g>
<defs>
<linearGradient id="paint0_linear_153_68" x1="37.5" y1="-1.70991e-06" x2="3" y2="38" gradientUnits="userSpaceOnUse">
<stop stop-color="#D11216"/>
<stop offset="1" stop-color="#B02B2B"/>
</linearGradient>
<clipPath id="clip0_153_68">
<rect width="26" height="18.8231" fill="white" transform="translate(7 11)"/>
</clipPath>
</defs>
</svg>
