<svg width="40" height="40" viewBox="0 0 40 40" fill="none" xmlns="http://www.w3.org/2000/svg">
<path d="M0 11.68C0 10.2575 0.605911 8.90231 1.66603 7.95379L9.1319 1.27379C10.0487 0.453514 11.2357 0 12.4659 0H35C37.7614 0 40 2.23858 40 5V29.04C40 30.3661 39.4732 31.6379 38.5355 32.5756L32.5756 38.5355C31.6379 39.4732 30.3661 40 29.04 40H5.00001C2.23858 40 0 37.7614 0 35V11.68Z" fill="url(#paint0_linear_10_17)"/>
<g clip-path="url(#clip0_10_17)">
<path d="M24.7157 27.3064C24.7039 26.5367 24.4984 25.7817 24.1174 25.1073C23.7363 24.433 23.1912 23.8601 22.5299 23.4387C22.1673 23.1899 21.7638 23.0283 21.3731 22.8268C21.8923 22.4458 22.2754 21.9154 22.4682 21.3107C22.6611 20.706 22.6538 20.0576 22.4476 19.4571C22.2414 18.8566 21.8465 18.3345 21.319 17.9645C20.7914 17.5946 20.1578 17.3955 19.5077 17.3955C18.8576 17.3955 18.224 17.5946 17.6965 17.9645C17.1689 18.3345 16.7741 18.8566 16.5678 19.4571C16.3616 20.0576 16.3544 20.706 16.5472 21.3107C16.74 21.9154 17.1231 22.4458 17.6423 22.8268C17.6347 22.8411 17.6243 22.8538 17.6117 22.8641C17.5504 22.889 17.484 22.9163 17.4176 22.9387C15.5995 23.6849 14.5244 25.0255 14.315 26.9432C14.2478 27.8662 14.2367 28.7923 14.2818 29.7166C14.2864 29.8902 14.3264 30.0613 14.3995 30.2198C14.4726 30.3782 14.5772 30.521 14.7074 30.6397C14.8376 30.7584 14.9908 30.8508 15.158 30.9113C15.3251 30.9719 15.503 30.9995 15.6812 30.9925C18.2194 30.9925 20.7577 30.9925 23.2959 30.9925C23.4831 30.999 23.6697 30.9682 23.8442 30.902C24.0187 30.8358 24.1776 30.7356 24.311 30.6075C24.4443 30.4795 24.5495 30.3262 24.62 30.1572C24.6905 29.9882 24.7248 29.8069 24.7208 29.6245C24.7336 28.8609 24.7489 28.0799 24.7157 27.3064ZM17.2389 20.342C17.256 19.9092 17.4039 19.4909 17.6639 19.1395C17.924 18.7881 18.2847 18.5193 18.7009 18.3667C19.1171 18.2141 19.5703 18.1845 20.0037 18.2816C20.4371 18.3787 20.8314 18.5982 21.1374 18.9126C21.4433 19.227 21.6472 19.6223 21.7235 20.049C21.7998 20.4758 21.7452 20.915 21.5664 21.3116C21.3877 21.7082 21.0927 22.0447 20.7186 22.2788C20.3444 22.5129 19.9077 22.6343 19.463 22.6278C19.1608 22.6238 18.8625 22.5607 18.5858 22.4422C18.3091 22.3238 18.0597 22.1524 17.8523 21.9383C17.6448 21.7242 17.4836 21.4717 17.3783 21.1958C17.2729 20.9199 17.2255 20.6261 17.2389 20.332V20.342ZM23.8986 29.5773C23.9093 29.6631 23.8996 29.7501 23.8702 29.8317C23.8408 29.9133 23.7924 29.9871 23.729 30.0475C23.6655 30.1079 23.5885 30.1532 23.5041 30.1799C23.4197 30.2067 23.3301 30.2141 23.2423 30.2016H15.8063C15.2956 30.2016 15.0888 30.0026 15.0939 29.5076C15.0939 28.6744 15.0556 27.8362 15.1322 27.0203C15.2313 26.0279 15.7067 25.1072 16.4655 24.438C17.2244 23.7688 18.2121 23.3991 19.2358 23.4014C20.1525 23.4014 21.0462 23.4834 21.8506 23.9585C22.4668 24.3003 22.9799 24.7939 23.3384 25.3898C23.697 25.9857 23.8884 26.663 23.8935 27.3536C23.9267 28.0924 23.9062 28.8336 23.8986 29.5773Z" fill="white"/>
<path d="M27.7059 16.1014C27.7059 16.6212 27.7059 17.1336 27.7059 17.651C27.7095 17.7057 27.7013 17.7606 27.6821 17.8121C27.6628 17.8636 27.6328 17.9107 27.594 17.9504C27.5551 17.9901 27.5083 18.0216 27.4563 18.0428C27.4044 18.064 27.3486 18.0746 27.2923 18.0738C27.2372 18.0729 27.183 18.0611 27.1328 18.0391C27.0827 18.017 27.0377 17.9853 27.0006 17.9456C26.9635 17.906 26.9352 17.8595 26.9173 17.8088C26.8994 17.7581 26.8923 17.7044 26.8965 17.651C26.8965 17.1759 26.8965 16.7058 26.8965 16.1884C26.5722 16.1884 26.2862 16.1884 25.9951 16.1884C25.5022 16.1884 25.2954 16.0069 25.1345 15.5617C24.9606 15.0771 24.7576 14.6029 24.5267 14.1414C24.3174 13.7211 24.3301 13.4574 24.6749 13.1266C24.8842 12.9251 25.1013 12.7262 25.349 12.5023C25.1243 12.2884 24.9277 12.1068 24.7361 11.9203C24.5446 11.7337 24.3429 11.5347 24.1233 11.3059C23.8935 11.5546 23.6866 11.7611 23.4721 11.9675C23.1325 12.2983 22.8644 12.3108 22.4354 12.1068C21.951 11.8828 21.4549 11.6835 20.9492 11.5099C20.7705 11.4718 20.611 11.3742 20.4983 11.2339C20.3855 11.0936 20.3264 10.9194 20.3312 10.7413C20.3312 10.4428 20.3312 10.1444 20.3312 9.82847H18.6638V10.6269C18.6638 11.1716 18.4978 11.3482 17.9666 11.5298C17.486 11.6962 17.0154 11.8889 16.5571 12.1068C16.1306 12.3108 15.8625 12.2983 15.5203 11.9675C15.3084 11.7611 15.1041 11.5472 14.9177 11.3532C14.5065 11.7536 14.1184 12.1292 13.7022 12.5396C13.8937 12.7212 14.1184 12.9202 14.3329 13.1316C14.6725 13.4649 14.6827 13.7211 14.4733 14.1414C14.247 14.6132 14.0467 15.0964 13.8733 15.589C13.8322 15.7652 13.7289 15.9217 13.5814 16.0312C13.4339 16.1408 13.2516 16.1964 13.0663 16.1884H12.1956C12.1687 16.1935 12.1428 16.2027 12.119 16.2158C12.119 16.6585 12.1343 17.1162 12.119 17.5714C12.1165 17.7164 12.0592 17.8554 11.9581 17.9619C11.9007 18.0007 11.8346 18.0256 11.7654 18.0347C11.6961 18.0438 11.6256 18.0367 11.5597 18.0141C11.4965 17.9777 11.4421 17.9283 11.4002 17.8695C11.3584 17.8107 11.33 17.7438 11.3171 17.6734C11.289 17.1237 11.2967 16.5715 11.3171 16.0218C11.3243 15.8528 11.3976 15.6929 11.5221 15.575C11.6465 15.457 11.8126 15.3899 11.9862 15.3875C12.2926 15.3701 12.599 15.3875 12.908 15.3701C12.9522 15.3631 12.994 15.3459 13.03 15.3199C13.066 15.294 13.0951 15.26 13.1148 15.2209C13.3242 14.7632 13.526 14.2931 13.7175 13.823C13.7287 13.7849 13.731 13.7448 13.7244 13.7057C13.7178 13.6666 13.7023 13.6293 13.6792 13.5967C13.4877 13.3903 13.2808 13.2037 13.0893 13.0047C13.0137 12.943 12.9522 12.8665 12.9087 12.7802C12.8653 12.6939 12.8408 12.5997 12.837 12.5036C12.8331 12.4076 12.85 12.3118 12.8864 12.2225C12.9228 12.1332 12.978 12.0523 13.0485 11.9849C13.4698 11.5646 13.8988 11.1418 14.338 10.7413C14.4046 10.6698 14.4857 10.6126 14.5763 10.5735C14.6669 10.5344 14.7649 10.5142 14.864 10.5142C14.9631 10.5142 15.0611 10.5344 15.1517 10.5735C15.2423 10.6126 15.3235 10.6698 15.3901 10.7413C15.5918 10.9328 15.7961 11.1243 15.9876 11.3233C16.0033 11.3447 16.0232 11.3628 16.0462 11.3765C16.0692 11.3903 16.0948 11.3994 16.1214 11.4033C16.1481 11.4073 16.1753 11.4059 16.2014 11.3995C16.2276 11.393 16.2521 11.3815 16.2736 11.3656C16.7333 11.1691 17.1929 10.9751 17.6653 10.806C17.8032 10.7513 17.8517 10.694 17.8466 10.5572C17.8466 10.2936 17.8466 10.0275 17.8466 9.76131C17.8363 9.6627 17.8478 9.56307 17.8805 9.46919C17.9131 9.37531 17.9661 9.28936 18.0359 9.21718C18.1056 9.145 18.1905 9.08826 18.2847 9.05083C18.379 9.01339 18.4804 8.99613 18.582 9.0002C19.1881 9.0002 19.7967 9.0002 20.4078 9.0002C20.5066 8.99589 20.6052 9.01178 20.6972 9.04685C20.7893 9.08192 20.8728 9.1354 20.9423 9.20383C21.0118 9.27226 21.0659 9.35413 21.1009 9.44415C21.136 9.53418 21.1513 9.63036 21.1458 9.72649C21.1586 9.99263 21.1586 10.2588 21.1458 10.5224C21.1458 10.6766 21.2071 10.7289 21.3501 10.7836C21.8098 10.9527 22.2668 11.1418 22.7163 11.3382C22.8363 11.393 22.9078 11.4029 22.9997 11.3009C23.1912 11.097 23.3955 10.9055 23.5972 10.7189C23.6638 10.647 23.7451 10.5895 23.836 10.5501C23.9268 10.5107 24.0251 10.4904 24.1246 10.4904C24.224 10.4904 24.3223 10.5107 24.4131 10.5501C24.504 10.5895 24.5853 10.647 24.6519 10.7189C25.0834 11.1293 25.5175 11.5522 25.9287 11.9626C26.0007 12.0242 26.0589 12.0997 26.0997 12.1842C26.1404 12.2688 26.1628 12.3607 26.1654 12.454C26.1681 12.5474 26.1509 12.6403 26.115 12.727C26.0791 12.8136 26.0252 12.8921 25.9567 12.9575C25.7705 13.1739 25.5728 13.3806 25.3643 13.5768C25.2545 13.6713 25.2622 13.7459 25.3209 13.8753C25.5252 14.313 25.7218 14.7558 25.8904 15.2035C25.8956 15.2336 25.9069 15.2624 25.9236 15.2882C25.9404 15.314 25.9622 15.3364 25.9878 15.354C26.0135 15.3715 26.0424 15.384 26.073 15.3906C26.1036 15.3972 26.1353 15.3979 26.1661 15.3925C26.4215 15.3925 26.7075 15.3925 26.9833 15.3925C27.0791 15.3908 27.1743 15.408 27.2631 15.4431C27.3519 15.4782 27.4325 15.5304 27.5 15.5967C27.5675 15.6629 27.6206 15.7418 27.656 15.8285C27.6914 15.9152 27.7084 16.0081 27.7059 16.1014Z" fill="white"/>
<path d="M14.343 23.6106C14.2664 23.5633 14.1847 23.526 14.1004 23.4837C14.3962 23.2668 14.6426 22.9926 14.8242 22.6784C15.0058 22.3641 15.1187 22.0167 15.1556 21.6579C15.1925 21.2991 15.1528 20.9367 15.0389 20.5936C14.9249 20.2505 14.7393 19.9341 14.4936 19.6643C14.248 19.3945 13.9476 19.1772 13.6115 19.0261C13.2753 18.875 12.9107 18.7933 12.5406 18.7862C12.1704 18.779 11.8028 18.8467 11.4608 18.9848C11.1188 19.1229 10.8099 19.3285 10.5535 19.5886C10.2923 19.8556 10.0916 20.1731 9.96438 20.5204C9.83721 20.8678 9.78642 21.2374 9.81531 21.6051C9.8442 21.9728 9.95213 22.3306 10.1321 22.655C10.3121 22.9795 10.56 23.2636 10.8599 23.4887C10.7884 23.521 10.7246 23.5583 10.6582 23.5832C9.16183 24.2846 8.25531 25.4163 8.05358 27.0231C7.99728 27.6948 7.97938 28.3691 7.99995 29.0428C7.98339 29.2245 8.00808 29.4076 8.07228 29.579C8.13647 29.7504 8.2386 29.9059 8.37141 30.0346C8.50422 30.1632 8.66447 30.2618 8.84078 30.3234C9.0171 30.385 9.20517 30.408 9.39165 30.3909H12.9283C12.9955 30.3959 13.0629 30.3959 13.1301 30.3909C13.2261 30.376 13.3134 30.3282 13.3765 30.2562C13.4396 30.1842 13.4742 30.0926 13.4742 29.9979C13.4742 29.9032 13.4396 29.8117 13.3765 29.7396C13.3134 29.6676 13.2261 29.6198 13.1301 29.6049C13.0536 29.5999 12.9768 29.5999 12.9003 29.6049C11.7154 29.6049 10.5382 29.6049 9.35845 29.6049C9.28601 29.6165 9.21177 29.6112 9.14188 29.5893C9.07199 29.5674 9.00846 29.5296 8.95654 29.479C8.90463 29.4285 8.86583 29.3666 8.84336 29.2985C8.82088 29.2304 8.81538 29.1581 8.82731 29.0876C8.82731 28.5528 8.81454 28.018 8.82731 27.4857C8.8372 26.9869 8.95517 26.4958 9.1735 26.0445C9.39182 25.5931 9.70557 25.1918 10.0942 24.8668C10.4828 24.5418 10.9376 24.3005 11.4286 24.1586C11.9197 24.0167 12.4359 23.9774 12.9437 24.0434C13.2904 24.113 13.6317 24.2061 13.9651 24.3219C14.0632 24.3665 14.1751 24.3731 14.278 24.3403C14.3809 24.3075 14.4671 24.2378 14.5192 24.1453C14.5446 24.0991 14.5602 24.0484 14.5651 23.9962C14.57 23.9441 14.564 23.8914 14.5476 23.8415C14.5311 23.7916 14.5046 23.7455 14.4694 23.7058C14.4343 23.6661 14.3913 23.6337 14.343 23.6106ZM12.4559 23.2051C12.0904 23.2037 11.7336 23.0968 11.4303 22.8981C11.127 22.6994 10.8909 22.4177 10.7517 22.0885C10.6126 21.7593 10.5765 21.3973 10.6482 21.0482C10.7199 20.6991 10.8961 20.3785 11.1545 20.1268C11.413 19.875 11.7421 19.7034 12.1005 19.6336C12.459 19.5638 12.8306 19.5989 13.1685 19.7344C13.5065 19.87 13.7957 20.1 13.9997 20.3954C14.2037 20.6908 14.3134 21.0384 14.3149 21.3944C14.3149 21.8746 14.1191 22.3352 13.7704 22.6748C13.4218 23.0144 12.949 23.2051 12.4559 23.2051Z" fill="white"/>
<path d="M30.982 27.4461C30.8799 25.6652 29.9963 24.3694 28.3416 23.5834C28.2803 23.5585 28.2139 23.5212 28.1424 23.4889C29.5699 22.3074 29.4192 20.5713 28.4514 19.6012C28.1951 19.3446 27.8873 19.1421 27.5471 19.0063C27.207 18.8706 26.8418 18.8045 26.4743 18.8121C26.1067 18.8198 25.7448 18.901 25.4109 19.0508C25.077 19.2006 24.7783 19.4157 24.5335 19.6828C24.2886 19.9498 24.1029 20.2631 23.9877 20.6032C23.8725 20.9432 23.8304 21.3027 23.864 21.6592C23.8976 22.0158 24.0062 22.3618 24.183 22.6757C24.3598 22.9896 24.6011 23.2647 24.8918 23.4839C24.7996 23.527 24.7101 23.5751 24.6236 23.6281C24.5782 23.6518 24.5381 23.6841 24.5056 23.7231C24.4732 23.7621 24.4491 23.8071 24.4349 23.8553C24.4206 23.9035 24.4164 23.9541 24.4225 24.0039C24.4286 24.0538 24.4449 24.1019 24.4704 24.1455C24.5181 24.2351 24.5987 24.3041 24.6961 24.3386C24.7935 24.3732 24.9007 24.3708 24.9965 24.332L25.1599 24.2624C25.6731 24.0614 26.2267 23.9772 26.7784 24.0163C27.3301 24.0553 27.8654 24.2165 28.3435 24.4876C28.8215 24.7586 29.2297 25.1325 29.537 25.5805C29.8442 26.0286 30.0424 26.5391 30.1164 27.073C30.1705 27.7191 30.1875 28.3677 30.1674 29.0156C30.1674 29.4534 30.0117 29.5976 29.5699 29.5976C28.3799 29.5976 27.19 29.5976 25.9949 29.5976C25.6987 29.5976 25.5072 29.7593 25.5123 29.9981C25.5174 30.2368 25.7089 30.3911 26.0051 30.3911C27.2385 30.3911 28.4668 30.3911 29.7001 30.3911C30.0388 30.3911 30.3635 30.26 30.6029 30.0268C30.8424 29.7936 30.9769 29.4773 30.9769 29.1474C30.9948 28.5828 31.0152 28.0107 30.982 27.4461ZM26.5005 23.2177C26.0217 23.1978 25.5695 22.9977 25.239 22.6596C24.9085 22.3215 24.7255 21.8717 24.7285 21.4049C24.7314 20.9381 24.9202 20.4906 25.2549 20.1565C25.5897 19.8225 26.0444 19.6279 26.5235 19.6137C26.7722 19.6063 27.0199 19.6478 27.2517 19.7358C27.4836 19.8238 27.6949 19.9564 27.8729 20.1257C28.051 20.295 28.1922 20.4975 28.2881 20.7211C28.384 20.9448 28.4326 21.185 28.4311 21.4273C28.4295 21.6697 28.3778 21.9093 28.2791 22.1317C28.1804 22.3542 28.0366 22.555 27.8564 22.7221C27.6762 22.8892 27.4632 23.0193 27.2303 23.1044C26.9973 23.1896 26.7491 23.2281 26.5005 23.2177Z" fill="white"/>
<path d="M23.5052 18.0566C23.4158 18.3675 23.2498 18.5043 22.9945 18.4471C22.9352 18.4338 22.8796 18.4079 22.8317 18.3713C22.7839 18.3347 22.7449 18.2883 22.7176 18.2353C22.6903 18.1823 22.6753 18.1241 22.6737 18.0649C22.6722 18.0056 22.684 17.9467 22.7085 17.8925C22.9026 17.22 22.8722 16.5049 22.6217 15.8504C22.3912 15.2273 21.9642 14.6913 21.4019 14.3191C20.8395 13.9469 20.1706 13.7577 19.491 13.7785C17.6269 13.8009 16.1356 15.0818 16.1714 17.2084C16.2008 17.4481 16.246 17.6857 16.3067 17.9198C16.345 18.1387 16.3067 18.3426 16.0718 18.4372C16.0161 18.4622 15.9553 18.4742 15.894 18.4722C15.8328 18.4703 15.7729 18.4544 15.7191 18.4259C15.6652 18.3974 15.619 18.357 15.584 18.308C15.5491 18.259 15.5263 18.2027 15.5176 18.1437C15.4051 17.6541 15.357 17.1527 15.3746 16.6513C15.4566 15.6891 15.8922 14.788 16.6015 14.1136C17.3108 13.4391 18.2461 13.0367 19.2356 12.9801C20.2693 12.9213 21.2885 13.2386 22.0954 13.8706C22.9023 14.5026 23.4393 15.4041 23.6022 16.4001C23.6825 16.9531 23.6495 17.5161 23.5052 18.0566Z" fill="white"/>
</g>
<defs>
<linearGradient id="paint0_linear_10_17" x1="37.5" y1="-1.70991e-06" x2="3" y2="38" gradientUnits="userSpaceOnUse">
<stop stop-color="#D11216"/>
<stop offset="1" stop-color="#B02B2B"/>
</linearGradient>
<clipPath id="clip0_10_17">
<rect width="23" height="22" fill="white" transform="translate(8 9)"/>
</clipPath>
</defs>
</svg>
