<svg width="40" height="40" viewBox="0 0 40 40" fill="none" xmlns="http://www.w3.org/2000/svg">
<path d="M0 11.68C0 10.2575 0.605911 8.90231 1.66603 7.95379L9.1319 1.27379C10.0487 0.453514 11.2357 0 12.4659 0H35C37.7614 0 40 2.23858 40 5V29.04C40 30.3661 39.4732 31.6379 38.5355 32.5756L32.5756 38.5355C31.6379 39.4732 30.3661 40 29.04 40H5.00001C2.23858 40 0 37.7614 0 35V11.68Z" fill="url(#paint0_linear_10_15)"/>
<g clip-path="url(#clip0_10_15)">
<path d="M31.6967 17.3109C31.6737 17.2187 31.6565 17.1251 31.6453 17.0307C31.6232 16.7438 31.4459 16.6411 31.1873 16.6065C30.1885 16.4723 29.1903 16.3356 28.1936 16.187C28.0844 16.1633 27.9885 16.0982 27.9258 16.0053C27.7227 15.6787 27.4179 15.3484 27.3881 14.9996C27.3598 14.6631 27.621 14.3009 27.7613 13.9525C28.0183 13.309 28.2779 12.6624 28.5483 12.0261C28.6578 11.7681 28.6269 11.5772 28.4018 11.395C27.9294 11.0126 27.4673 10.6174 27.0093 10.2174C26.8109 10.0446 26.6309 10.0347 26.4094 10.1777C25.5618 10.7257 24.7059 11.2588 23.8557 11.8037C23.7277 11.8863 23.6162 11.9157 23.4799 11.8445C23.4254 11.82 23.3696 11.7983 23.3129 11.7795C23.0096 11.6639 22.6328 11.618 22.4313 11.4059C22.2298 11.1938 22.2016 10.8104 22.1018 10.5012C21.8762 9.79995 21.6536 9.09813 21.4285 8.39683C21.321 8.06141 21.2403 8 20.8959 8H19.1266C18.7776 8 18.7103 8.0516 18.5987 8.39787C18.2939 9.34325 17.987 10.2881 17.691 11.2361C17.6746 11.3055 17.6397 11.3692 17.5901 11.4203C17.5405 11.4713 17.478 11.5079 17.4093 11.5261C17.1173 11.6205 16.8289 11.7289 16.5447 11.8455C16.4033 11.9033 16.2964 11.8858 16.1684 11.8032C15.3341 11.2676 14.4952 10.7391 13.6543 10.2092C13.3361 10.0079 13.2683 10.0131 12.9768 10.2577C12.5313 10.632 12.0858 11.0071 11.6403 11.3832C11.3592 11.62 11.3396 11.6964 11.4861 12.0494C11.8572 12.9612 12.2273 13.8741 12.6041 14.7844C12.6648 14.9309 12.6704 15.0491 12.58 15.1905C12.4047 15.4645 12.2592 15.7581 12.0855 16.0322C12.0304 16.1117 11.9471 16.1671 11.8526 16.187C10.8729 16.3315 9.89194 16.4691 8.90981 16.5998C8.49498 16.6566 8.42816 16.7164 8.35671 17.1339C8.2611 17.6918 8.16189 18.2486 8.06269 18.8054C7.99998 19.1465 8.04418 19.2425 8.35003 19.4045C9.22388 19.8689 10.0977 20.3334 10.9788 20.7932C11.1222 20.8675 11.1998 20.9567 11.2224 21.1183C11.2666 21.432 11.3406 21.7422 11.3735 22.0569C11.3823 22.1777 11.3456 22.2974 11.2707 22.3924C10.6133 23.137 9.94352 23.8719 9.27734 24.6113C9.02803 24.8874 9.02032 24.9612 9.20691 25.2899C9.46393 25.7353 9.71683 26.1796 9.98156 26.6409C9.6315 26.9464 9.29224 27.2447 8.95041 27.5404C8.15418 28.2288 7.82418 29.087 8.09096 30.117C8.35774 31.147 9.05785 31.7611 10.1075 31.9618C10.14 31.9714 10.1715 31.9842 10.2016 32H10.767C11.6557 31.8638 12.2577 31.3121 12.8015 30.6407C13.3772 29.9286 13.9915 29.2474 14.5898 28.5539C14.6438 28.4909 14.7034 28.4331 14.744 28.3877C14.744 28.894 14.7471 29.4023 14.744 29.91C14.744 30.1417 14.7245 30.3745 14.7173 30.6041C14.7102 30.6863 14.7313 30.7684 14.7771 30.8368C14.823 30.9052 14.8907 30.9559 14.9692 30.9803C15.6014 31.2136 16.2332 31.4489 16.868 31.677C17.089 31.7564 17.2371 31.6388 17.3681 31.4674C17.9721 30.6789 18.5833 29.8971 19.1832 29.106C19.2937 28.9605 19.4073 28.8996 19.5888 28.91C19.8359 28.9314 20.0844 28.9314 20.3315 28.91C20.605 28.88 20.7633 28.9935 20.9211 29.2051C21.4896 29.9668 22.0828 30.7099 22.656 31.4685C22.821 31.6868 22.9973 31.7456 23.2527 31.6475C23.8185 31.4308 24.3877 31.223 24.9604 31.0242C25.2174 30.9349 25.3202 30.779 25.3078 30.504C25.26 29.5101 25.2297 28.5152 25.1845 27.5213C25.1768 27.3531 25.2117 27.2328 25.3526 27.1265C25.5867 26.9533 25.8099 26.7656 26.0208 26.5645C26.1627 26.4273 26.3009 26.4097 26.4834 26.4495C27.4411 26.6641 28.4007 26.8706 29.3594 27.0796C29.6853 27.1508 29.7763 27.1126 29.9449 26.8215C30.2393 26.3096 30.5331 25.797 30.8264 25.2837C31.0012 24.9777 30.9935 24.8797 30.7617 24.6227C30.0934 23.878 29.4154 23.138 28.7523 22.3872C28.6799 22.2917 28.646 22.1723 28.6572 22.0528C28.6922 21.7385 28.7703 21.4289 28.8115 21.1146C28.831 20.9598 28.8983 20.8773 29.0335 20.805C29.905 20.3519 30.773 19.8925 31.6376 19.4267C31.7743 19.3529 31.8833 19.227 32.0051 19.1253V18.8673C31.8999 18.3482 31.7971 17.8294 31.6967 17.3109ZM11.9369 30.5303C11.3437 31.2187 10.6004 31.4406 9.85613 31.1542C8.60396 30.6717 8.32793 29.0596 9.35187 28.1441C10.1306 27.4485 10.9269 26.772 11.7164 26.0872L16.3324 22.0807C16.5858 21.8603 16.6028 21.7793 16.465 21.4547C15.4534 19.0737 16.7899 16.46 19.3086 15.9114C19.6381 15.8397 19.9825 15.835 20.3197 15.7989L20.349 15.8748C20.2858 15.9413 20.2246 16.0095 20.1598 16.074C19.36 16.8759 18.5674 17.6804 17.7634 18.4756C17.5753 18.6614 17.5239 18.842 17.6092 19.0949C17.8529 19.8256 18.0811 20.562 18.3068 21.2989C18.3731 21.5146 18.4908 21.6436 18.7134 21.7117C19.4477 21.9353 20.179 22.1699 20.9072 22.4156C21.1704 22.5049 21.3544 22.4465 21.5457 22.2499C22.3167 21.4594 23.1016 20.6812 23.8814 19.8983C23.94 19.84 24.0022 19.7853 24.0896 19.7038C24.1333 20.1899 24.0521 20.6223 23.9179 21.0455C23.7495 21.5784 23.4719 22.07 23.1028 22.4887C22.7337 22.9073 22.2813 23.2437 21.7748 23.4762C21.2684 23.7086 20.719 23.832 20.1622 23.8384C19.6053 23.8448 19.0533 23.734 18.5417 23.5132C18.1608 23.3496 18.1119 23.3584 17.84 23.6758C15.872 25.9608 13.9043 28.2456 11.9369 30.5303ZM24.7573 19.0133C24.7244 18.8281 24.6997 18.6294 24.4772 18.5628C24.2546 18.4963 24.1261 18.6325 23.9899 18.7692C23.0723 19.693 22.1502 20.612 21.2372 21.5409C21.1103 21.6704 21.0044 21.6926 20.8373 21.6358C20.2801 21.4454 19.7152 21.2777 19.159 21.0847C19.1078 21.0637 19.0613 21.0326 19.0221 20.9934C18.9829 20.9541 18.9519 20.9075 18.9308 20.8561C18.7375 20.2885 18.571 19.7131 18.3787 19.1449C18.3273 18.9901 18.3566 18.8967 18.4682 18.7837C19.4094 17.8471 20.3439 16.9038 21.282 15.9646C21.4182 15.8278 21.5565 15.6957 21.4876 15.4764C21.4187 15.2571 21.2306 15.2313 21.0414 15.1921C18.06 14.563 15.2077 17.0353 15.4225 20.0826C15.4549 20.5387 15.5865 20.9892 15.6919 21.4377C15.7227 21.5677 15.7397 21.6513 15.621 21.7473C15.3686 21.9491 15.1296 22.1674 14.8653 22.396C13.6738 20.0418 14.266 16.9487 16.5719 15.2173C17.6786 14.389 19.0449 13.9873 20.4218 14.0857C21.7988 14.184 23.0947 14.7758 24.0734 15.7531C25.0521 16.7304 25.6484 18.0283 25.7536 19.4101C25.8589 20.7919 25.4661 22.1656 24.6468 23.281C22.8796 25.6749 19.8 26.1605 17.5871 25.0711C17.8123 24.809 18.0251 24.5453 18.26 24.3022C18.3062 24.2542 18.444 24.2589 18.5242 24.2862C19.9265 24.7625 21.2707 24.6356 22.5434 23.8791C24.2114 22.8878 25.0955 20.9278 24.7573 19.0133ZM31.0439 18.9194C30.2016 19.3728 29.3558 19.8201 28.5066 20.2611C28.2902 20.3731 28.1689 20.5155 28.1355 20.7674C28.0769 21.2086 27.9931 21.6477 27.9021 22.0838C27.8466 22.3521 27.9093 22.5534 28.099 22.7572C28.7868 23.4972 29.4576 24.2537 30.1454 25.0144C29.9074 25.4272 29.6796 25.84 29.4339 26.2384C29.4026 26.29 29.2746 26.3168 29.2026 26.3014C28.25 26.1025 27.2988 25.8971 26.3493 25.6852C26.1313 25.6336 25.9555 25.6646 25.7838 25.8178C25.4194 26.1424 25.0447 26.4551 24.6674 26.7643C24.5961 26.8181 24.5398 26.8895 24.5038 26.9714C24.4678 27.0533 24.4533 27.1432 24.4617 27.2323C24.5029 28.2097 24.5311 29.1876 24.5764 30.165C24.5851 30.3456 24.5275 30.4183 24.3615 30.4746C23.9575 30.6077 23.5612 30.7641 23.1469 30.9163C22.5814 30.1856 21.998 29.4781 21.4716 28.7304C21.1838 28.3217 20.8687 28.1245 20.3654 28.1854C20.0195 28.2267 19.6648 28.203 19.3148 28.1896C19.2131 28.1816 19.1111 28.2008 19.0193 28.2453C18.9274 28.2898 18.849 28.358 18.792 28.4429C18.2266 29.1865 17.6524 29.9229 17.0808 30.6619C17.0186 30.7424 16.9533 30.8214 16.8788 30.9148C16.4357 30.7522 15.9947 30.5953 15.5598 30.4235C15.5084 30.4023 15.4503 30.2981 15.4524 30.2341C15.4791 29.3419 15.5151 28.4502 15.5552 27.5584C15.5562 27.4907 15.5781 27.4249 15.6179 27.3701C16.1052 26.7968 16.5976 26.2276 17.0459 25.7074C17.6935 25.8958 18.2872 26.1202 18.9015 26.2389C22.2884 26.8974 25.7011 24.5737 26.3636 21.1817C27.0833 17.4874 24.7553 14.0805 21.0584 13.4236C17.73 12.8327 14.3729 15.1394 13.6934 18.4808C13.3935 19.9529 13.5671 21.3634 14.2141 22.7123C14.2655 22.8155 14.3107 22.8929 14.1894 22.9972C12.99 24.0292 11.7928 25.066 10.5979 26.1073C10.5756 26.1193 10.552 26.1285 10.5275 26.1347C10.3177 25.7693 10.106 25.4014 9.88543 25.0185C10.4786 24.3611 11.0703 23.7077 11.6588 23.0519C12.2988 22.3377 12.1944 22.591 12.0562 21.722C12.0048 21.4005 11.9436 21.0806 11.8927 20.7586C11.8811 20.6528 11.8421 20.5518 11.7796 20.4658C11.7171 20.3798 11.6333 20.3117 11.5365 20.2683C10.6842 19.8328 9.84482 19.373 8.99359 18.9359C8.8291 18.8518 8.79826 18.7569 8.83219 18.5928C8.90929 18.2588 8.96916 17.921 9.01158 17.5808C9.03471 17.346 9.14369 17.2939 9.35136 17.2671C10.2997 17.1458 11.2476 17.0157 12.1924 16.8676C12.346 16.8373 12.4823 16.7495 12.5738 16.622C12.862 16.1762 13.1274 15.716 13.369 15.2431C13.4343 15.1146 13.4204 14.9036 13.3644 14.7612C13.0133 13.8596 12.6447 12.9653 12.2716 12.0721C12.2099 11.924 12.2171 11.8337 12.3517 11.7279C12.6936 11.4575 13.02 11.1685 13.3664 10.8774C14.2033 11.4059 15.0473 11.926 15.8734 12.4725C16.1535 12.6573 16.3966 12.6949 16.704 12.5577C17.0718 12.3973 17.4483 12.2579 17.8318 12.1402C18.095 12.0571 18.2358 11.9075 18.317 11.6386C18.589 10.7453 18.8907 9.86239 19.1626 8.96912C19.2248 8.76271 19.3168 8.70543 19.5183 8.71678C19.8428 8.73458 20.168 8.73458 20.4924 8.71678C20.7042 8.70543 20.8034 8.76838 20.8687 8.98306C21.1416 9.88458 21.4444 10.7768 21.7204 11.6773C21.7469 11.7849 21.8015 11.8834 21.8786 11.9627C21.9557 12.0419 22.0524 12.0991 22.1589 12.1283C22.604 12.2769 23.0435 12.4441 23.4805 12.6155C23.5661 12.6531 23.66 12.6676 23.7529 12.6576C23.8459 12.6477 23.9346 12.6136 24.0104 12.5587C24.8236 12.037 25.642 11.5235 26.4587 11.0075C26.523 10.9672 26.5883 10.928 26.6644 10.88C27.0118 11.1731 27.3326 11.4539 27.6677 11.7222C27.7932 11.8254 27.8219 11.9064 27.7546 12.0664C27.384 12.9504 27.035 13.8436 26.6644 14.7286C26.5693 14.9557 26.5754 15.1446 26.7065 15.3562C26.9589 15.7638 27.1753 16.1942 27.4364 16.5947C27.5288 16.7311 27.6691 16.8274 27.8291 16.8645C28.7739 17.0147 29.7228 17.1375 30.6702 17.2696C30.7622 17.283 30.8542 17.3006 30.9616 17.3181C31.0459 17.7857 31.1374 18.247 31.2043 18.7114C31.2156 18.7734 31.1169 18.8797 31.0439 18.9194Z" fill="white"/>
<path d="M10.6215 28.2964C10.4822 28.2963 10.3442 28.3239 10.2156 28.3777C10.087 28.4314 9.97021 28.5102 9.87205 28.6094C9.7739 28.7087 9.69629 28.8265 9.64371 28.956C9.59113 29.0855 9.56462 29.2242 9.56571 29.3641C9.56471 29.5037 9.59163 29.6421 9.64487 29.7711C9.6981 29.9001 9.77658 30.0171 9.87565 30.1151C9.97472 30.2131 10.0924 30.2902 10.2216 30.3417C10.3509 30.3933 10.4891 30.4183 10.6282 30.4152C10.7672 30.4142 10.9046 30.3856 11.0326 30.3311C11.1606 30.2766 11.2766 30.1973 11.374 30.0978C11.4714 29.9982 11.5483 29.8803 11.6003 29.7509C11.6522 29.6214 11.6782 29.483 11.6768 29.3434C11.6697 29.0659 11.5558 28.8018 11.3591 28.6067C11.1624 28.4115 10.8981 28.3003 10.6215 28.2964ZM10.6128 29.6897C10.5683 29.69 10.5242 29.6811 10.4833 29.6635C10.4424 29.6458 10.4056 29.6199 10.3752 29.5872C10.3449 29.5546 10.3215 29.516 10.3068 29.4739C10.292 29.4317 10.2861 29.3869 10.2895 29.3424C10.3003 29.1386 10.4226 29.0328 10.6143 29.0199C10.7917 29.0065 10.9582 29.1788 10.9582 29.3574C10.9577 29.4023 10.9483 29.4466 10.9305 29.4878C10.9127 29.529 10.887 29.5663 10.8547 29.5974C10.8225 29.6285 10.7844 29.6529 10.7427 29.6691C10.701 29.6853 10.6565 29.693 10.6118 29.6918L10.6128 29.6897Z" fill="white"/>
</g>
<defs>
<linearGradient id="paint0_linear_10_15" x1="37.5" y1="-1.70991e-06" x2="3" y2="38" gradientUnits="userSpaceOnUse">
<stop stop-color="#D11216"/>
<stop offset="1" stop-color="#B02B2B"/>
</linearGradient>
<clipPath id="clip0_10_15">
<rect width="24" height="24" fill="white" transform="translate(8 8)"/>
</clipPath>
</defs>
</svg>
