<svg width="40" height="40" viewBox="0 0 40 40" fill="none" xmlns="http://www.w3.org/2000/svg">
<path d="M0.5 11.68C0.5 10.3997 1.04532 9.18008 1.99942 8.32641L9.4653 1.64641C10.2904 0.908163 11.3587 0.5 12.4659 0.5H35C37.4853 0.5 39.5 2.51472 39.5 5V29.04C39.5 30.2335 39.0259 31.3781 38.182 32.222L32.222 38.182C31.3781 39.0259 30.2335 39.5 29.04 39.5H5.00001C2.51472 39.5 0.5 37.4853 0.5 35V11.68Z" stroke="#A6A6A6"/>
<g filter="url(#filter0_d_209_266)">
<path d="M31 18.6146V21.3679L29.1033 21.6738C28.3997 21.7787 28.4827 21.7481 28.2904 22.4037C28.1506 22.8713 27.9627 23.3214 27.7791 23.8196L27.565 23.6142C27.093 23.1422 26.6253 22.6659 26.149 22.2026C26.0849 22.1522 26.0385 22.0826 26.0165 22.0041C25.9945 21.9255 25.998 21.842 26.0266 21.7656C26.3161 20.7489 26.3196 19.672 26.0366 18.6535C25.7536 17.6349 25.1952 16.7141 24.4227 15.9925C22.7183 14.323 20.6599 13.886 18.3699 14.5721C17.9678 14.6901 17.9066 14.9785 18.1994 15.2801L18.3393 15.4156L21.2106 18.2912C21.2548 18.3251 21.2871 18.3721 21.3028 18.4255C21.3186 18.479 21.3169 18.536 21.298 18.5884C21.1101 19.2439 20.9396 19.8995 20.7692 20.555C20.7627 20.6074 20.7397 20.6564 20.7036 20.6949C20.6674 20.7334 20.62 20.7594 20.5681 20.7692C19.917 20.9352 19.2571 21.1057 18.619 21.2892C18.5574 21.3129 18.4899 21.3164 18.4263 21.2991C18.3626 21.2818 18.3061 21.2447 18.265 21.1931C17.2744 20.1937 16.2765 19.1944 15.2714 18.1951C14.9829 17.911 14.6988 17.9766 14.5721 18.3568C14.2317 19.3403 14.1667 20.3982 14.3842 21.416C14.543 22.2203 14.8659 22.9832 15.3328 23.6572C15.7996 24.3311 16.4003 24.9016 17.0975 25.333C17.7947 25.7644 18.5732 26.0475 19.3847 26.1646C20.1961 26.2817 21.023 26.2302 21.8137 26.0135C21.8652 25.9937 21.9216 25.9906 21.975 26.0047C22.0284 26.0188 22.0759 26.0495 22.1108 26.0922C22.6134 26.6035 23.1248 27.1061 23.6273 27.613C23.6697 27.657 23.7091 27.7037 23.7453 27.7529C23.6748 27.7936 23.6018 27.8301 23.5268 27.8621C23.0286 28.0369 22.5304 28.2161 22.0278 28.3778C21.9412 28.3985 21.863 28.4452 21.8036 28.5116C21.7442 28.578 21.7066 28.6609 21.6957 28.7493C21.6857 28.8345 21.6711 28.9191 21.652 29.0028L21.3373 30.9956H18.6365C18.5185 30.2571 18.3917 29.5403 18.2912 28.8105C18.2846 28.6946 18.237 28.5848 18.157 28.5008C18.0769 28.4167 17.9696 28.3639 17.8542 28.3516C17.0517 28.1607 16.2846 27.8436 15.5816 27.412C15.4872 27.3409 15.3708 27.305 15.2527 27.3106C15.1346 27.3162 15.0222 27.3629 14.9348 27.4426C14.3536 27.8796 13.7549 28.3166 13.1867 28.7056L11.2813 26.7958C11.7183 26.2102 12.1553 25.6027 12.5924 25.004C12.6564 24.9315 12.6945 24.8398 12.7008 24.7434C12.7072 24.6469 12.6813 24.551 12.6273 24.4708C12.1719 23.7301 11.8329 22.9239 11.6222 22.0803C11.6061 21.9848 11.5587 21.8973 11.4875 21.8317C11.4163 21.766 11.3253 21.7259 11.2288 21.7175C10.8749 21.6694 10.5209 21.6083 10.1712 21.5514L9 21.3592V18.654C9.74295 18.5316 10.4684 18.4092 11.1851 18.3043C11.2977 18.2945 11.4033 18.2453 11.4832 18.1654C11.5631 18.0854 11.6123 17.9799 11.6222 17.8673C11.814 17.0582 12.1342 16.2851 12.5705 15.5773C12.6373 15.4841 12.6703 15.3709 12.664 15.2565C12.6576 15.142 12.6123 15.0331 12.5356 14.948C12.0985 14.3667 11.6615 13.768 11.2594 13.1998L13.1867 11.2769L14.9917 12.588C15.0566 12.6457 15.1383 12.6811 15.2248 12.689C15.3113 12.6968 15.3981 12.6768 15.4724 12.6317C16.2505 12.169 17.0951 11.8286 17.9766 11.6222C18.0582 11.6035 18.1317 11.559 18.1861 11.4952C18.2404 11.4314 18.2727 11.3518 18.2781 11.2682C18.3087 11.0497 18.348 10.8311 18.383 10.6126C18.4617 10.0751 18.5403 9.53754 18.6146 9H21.3679C21.3635 9.05673 21.3635 9.11371 21.3679 9.17044C21.4772 9.84346 21.5952 10.5121 21.6869 11.1851C21.6931 11.3025 21.7402 11.414 21.82 11.5002C21.8999 11.5864 22.0074 11.642 22.124 11.6571C22.8967 11.8356 23.6349 12.1398 24.3091 12.5574C24.4209 12.645 24.5604 12.6896 24.7023 12.6832C24.8442 12.6768 24.9792 12.6197 25.0826 12.5224C25.642 12.0854 26.2233 11.6877 26.7827 11.2813L28.7012 13.2042L28.592 13.3615C28.1855 13.9166 27.7835 14.476 27.377 15.0266C27.3194 15.0917 27.2844 15.1738 27.2773 15.2604C27.2702 15.3471 27.2914 15.4337 27.3377 15.5073C27.8063 16.2783 28.1528 17.1171 28.3647 17.994C28.3813 18.072 28.4226 18.1426 28.4824 18.1953C28.5422 18.2481 28.6174 18.2802 28.6969 18.2868L29.3961 18.4005L31 18.6146Z" fill="url(#paint0_linear_209_266)"/>
<path d="M30.0647 27.1585C28.5235 25.6085 26.9764 24.0716 25.4235 22.5479C25.3174 22.46 25.2427 22.3401 25.2104 22.2062C25.1781 22.0723 25.19 21.9315 25.2443 21.8049C25.5107 20.9911 25.5589 20.1216 25.3842 19.2833C25.1668 18.1597 24.5878 17.1381 23.7356 16.3743C22.8834 15.6105 21.8048 15.1464 20.6643 15.0528C20.1375 14.9976 19.605 15.0511 19.0997 15.2102C19.1434 15.2801 19.2264 15.3063 19.2833 15.3631C20.1573 16.2372 21.0314 17.1112 21.9054 17.9853C21.9873 18.054 22.0462 18.146 22.0744 18.2491C22.1025 18.3522 22.0984 18.4614 22.0628 18.5622C21.8355 19.3838 21.6257 20.2054 21.4072 21.0314C21.3894 21.1409 21.3376 21.242 21.2592 21.3204C21.1808 21.3988 21.0797 21.4506 20.9702 21.4684C20.1427 21.6811 19.3197 21.9011 18.501 22.1283C18.4036 22.163 18.2981 22.1673 18.1982 22.1408C18.0984 22.1143 18.0089 22.0581 17.9416 21.9797C17.3166 21.3417 16.6786 20.7123 16.0449 20.0787L15.1315 19.139C15.1009 19.2265 15.0878 19.257 15.079 19.292C14.9295 20.0538 14.9534 20.8395 15.149 21.5908C15.3267 22.28 15.643 22.9258 16.0784 23.4889C16.5137 24.052 17.0592 24.5205 17.6815 24.866C18.3038 25.2115 18.9899 25.4267 19.6981 25.4985C20.4062 25.5703 21.1216 25.4972 21.8005 25.2837C21.9157 25.2376 22.0425 25.2293 22.1626 25.2599C22.2828 25.2906 22.3901 25.3586 22.4692 25.4541C23.4044 26.4025 24.3484 27.3421 25.2924 28.286C25.9523 28.9416 26.6035 29.5971 27.2765 30.2527C27.6196 30.5636 28.059 30.7471 28.5213 30.7726C28.9836 30.798 29.4405 30.6638 29.8156 30.3925C30.076 30.2195 30.2936 29.9894 30.4518 29.7198C30.61 29.4501 30.7047 29.148 30.7287 28.8363C30.7527 28.5245 30.7054 28.2115 30.5903 27.9208C30.4753 27.6301 30.2956 27.3694 30.0647 27.1585ZM28.4696 29.6452C28.2391 29.6461 28.0136 29.5784 27.8217 29.4508C27.6297 29.3232 27.4801 29.1414 27.3917 28.9286C27.3033 28.7157 27.2801 28.4814 27.3252 28.2554C27.3703 28.0293 27.4815 27.8218 27.6448 27.6592C27.8081 27.4965 28.016 27.386 28.2422 27.3418C28.4684 27.2976 28.7027 27.3216 28.9152 27.4108C29.1277 27.5 29.3089 27.6504 29.4358 27.8428C29.5626 28.0352 29.6295 28.261 29.6277 28.4914C29.6283 28.6435 29.5987 28.7941 29.5407 28.9347C29.4826 29.0752 29.3973 29.2028 29.2895 29.3101C29.1818 29.4174 29.0539 29.5023 28.9131 29.5598C28.7724 29.6173 28.6216 29.6464 28.4696 29.6452Z" fill="url(#paint1_linear_209_266)"/>
<path d="M28.898 28.5047C28.8902 28.6153 28.8408 28.7187 28.7596 28.7942C28.6785 28.8696 28.5718 28.9114 28.461 28.9112C28.345 28.9112 28.2339 28.8651 28.1519 28.7832C28.07 28.7012 28.0239 28.59 28.0239 28.4741C28.0239 28.3582 28.07 28.2471 28.1519 28.1651C28.2339 28.0832 28.345 28.0371 28.461 28.0371C28.521 28.037 28.5805 28.0492 28.6356 28.073C28.6907 28.0969 28.7403 28.1319 28.7813 28.1757C28.8223 28.2196 28.8539 28.2715 28.8739 28.3281C28.894 28.3847 28.9022 28.4448 28.898 28.5047Z" fill="url(#paint2_linear_209_266)"/>
</g>
<defs>
<filter id="filter0_d_209_266" x="5" y="8" width="30" height="29.9956" filterUnits="userSpaceOnUse" color-interpolation-filters="sRGB">
<feFlood flood-opacity="0" result="BackgroundImageFix"/>
<feColorMatrix in="SourceAlpha" type="matrix" values="0 0 0 0 0 0 0 0 0 0 0 0 0 0 0 0 0 0 127 0" result="hardAlpha"/>
<feOffset dy="3"/>
<feGaussianBlur stdDeviation="2"/>
<feComposite in2="hardAlpha" operator="out"/>
<feColorMatrix type="matrix" values="0 0 0 0 0.819608 0 0 0 0 0.0705882 0 0 0 0 0.0862745 0 0 0 0.15 0"/>
<feBlend mode="normal" in2="BackgroundImageFix" result="effect1_dropShadow_209_266"/>
<feBlend mode="normal" in="SourceGraphic" in2="effect1_dropShadow_209_266" result="shape"/>
</filter>
<linearGradient id="paint0_linear_209_266" x1="8.5" y1="27" x2="33.5" y2="17.5" gradientUnits="userSpaceOnUse">
<stop stop-color="#B02B2B"/>
<stop offset="1" stop-color="#D11216"/>
</linearGradient>
<linearGradient id="paint1_linear_209_266" x1="14.6242" y1="27.9157" x2="32.5232" y2="21.1116" gradientUnits="userSpaceOnUse">
<stop stop-color="#B02B2B"/>
<stop offset="1" stop-color="#D11216"/>
</linearGradient>
<linearGradient id="paint2_linear_209_266" x1="28.004" y1="28.7524" x2="28.9982" y2="28.3742" gradientUnits="userSpaceOnUse">
<stop stop-color="#B02B2B"/>
<stop offset="1" stop-color="#D11216"/>
</linearGradient>
</defs>
</svg>
