<svg width="40" height="40" viewBox="0 0 40 40" fill="none" xmlns="http://www.w3.org/2000/svg">
<path d="M0.5 11.68C0.5 10.3997 1.04532 9.18008 1.99942 8.32641L9.4653 1.64641C10.2904 0.908163 11.3587 0.5 12.4659 0.5H35C37.4853 0.5 39.5 2.51472 39.5 5V29.04C39.5 30.2335 39.0259 31.3781 38.182 32.222L32.222 38.182C31.3781 39.0259 30.2335 39.5 29.04 39.5H5.00001C2.51472 39.5 0.5 37.4853 0.5 35V11.68Z" stroke="#A6A6A6"/>
<g filter="url(#filter0_d_22_987)">
<path d="M30.9977 26.333C31.0071 26.4118 30.988 26.4913 30.944 26.5573C30.9001 26.6233 30.834 26.6714 30.7577 26.693L20.5579 31.0618C20.5062 31.0858 20.4557 31.1125 20.4068 31.1418H20.3623C20.3623 31.053 20.3623 30.9685 20.3623 30.8796C20.3623 26.8678 20.3623 22.8546 20.3623 18.8398C20.3502 18.7707 20.3632 18.6995 20.3991 18.6391C20.435 18.5788 20.4913 18.5333 20.5579 18.511C23.9623 17.0532 27.3696 15.591 30.7799 14.1244L30.9888 14.0488V14.3333C30.9918 18.3243 30.9947 22.3242 30.9977 26.333Z" fill="url(#paint0_linear_22_987)"/>
<path d="M19.4823 18.5244L15.8557 16.9644L15.6335 16.8844C15.6335 17.5911 15.6335 18.2622 15.6335 18.9288C15.6335 19.1244 15.6068 19.2933 15.4068 19.3733C15.2069 19.4533 15.0646 19.3511 14.9357 19.2088C14.8076 19.055 14.6482 18.9303 14.4681 18.8429C14.288 18.7556 14.0914 18.7076 13.8913 18.7022C13.6757 18.711 13.4609 18.6708 13.263 18.5846C13.0652 18.4984 12.8895 18.3684 12.7491 18.2044C12.7238 18.1802 12.6938 18.1614 12.6609 18.1492C12.628 18.1369 12.593 18.1315 12.558 18.1333C12.2069 18.1777 12.0514 18.0577 12.0514 17.6889C12.0514 16.9644 12.0514 16.2356 12.0514 15.5067C12.0588 15.4483 12.0449 15.3891 12.0123 15.3401C11.9796 15.2912 11.9304 15.2556 11.8736 15.24C11.1269 14.9289 10.3892 14.6089 9.6514 14.2934L9.00252 14.04C9.00252 14.1334 9.00252 14.2 9.00252 14.2623C9.00252 18.2977 9.00252 22.3332 9.00252 26.3687C8.99379 26.4307 9.00791 26.4937 9.04226 26.5461C9.07661 26.5984 9.12884 26.6365 9.18918 26.6531L17.6779 30.2886L19.6112 31.1419H19.669C19.669 27.0324 19.669 22.9243 19.669 18.8177C19.669 18.6755 19.6379 18.5866 19.4823 18.5244ZM9.97139 23.3243C10.0558 23.1288 10.2603 23.0665 10.5047 23.1688L13.1269 24.2798C13.1684 24.2925 13.2071 24.3133 13.2405 24.341C13.274 24.3687 13.3017 24.4027 13.3219 24.4411C13.3422 24.4796 13.3546 24.5216 13.3585 24.5649C13.3624 24.6081 13.3577 24.6517 13.3447 24.6932C13.3002 24.8843 13.1669 24.9643 12.9313 24.9598C12.8559 24.9425 12.7817 24.9202 12.7091 24.8932L10.2336 23.8354C9.98028 23.7243 9.89139 23.5288 9.97139 23.3243ZM13.8913 27.1909C13.398 26.9865 12.9136 26.7731 12.4247 26.5643L10.2203 25.6265C10.1632 25.6107 10.1107 25.5813 10.0675 25.5407C10.0244 25.5002 9.99173 25.4497 9.97247 25.3936C9.95321 25.3376 9.9479 25.2777 9.957 25.2191C9.96611 25.1606 9.98935 25.1052 10.0247 25.0576C10.0867 24.9864 10.1731 24.941 10.2668 24.9303C10.3606 24.9196 10.455 24.9444 10.5314 24.9998L13.4469 26.2309C13.6913 26.3331 13.9402 26.4265 14.1713 26.5509C14.2665 26.6157 14.3492 26.697 14.4158 26.7909C14.4238 26.8571 14.4145 26.9243 14.3886 26.9857C14.3627 27.0471 14.3212 27.1008 14.2682 27.1412C14.2151 27.1816 14.1525 27.2075 14.0864 27.2162C14.0202 27.2249 13.953 27.2162 13.8913 27.1909Z" fill="url(#paint1_linear_22_987)"/>
<path d="M22.8245 10.2133C22.7267 10.2622 22.6645 10.2978 22.5978 10.3244L12.6291 14.6132C12.5596 14.6458 12.4837 14.6626 12.4069 14.6626C12.3301 14.6626 12.2543 14.6458 12.1847 14.6132C11.398 14.2621 10.6025 13.9288 9.8114 13.5866L9.59363 13.4844L12.6558 12.1511L19.789 9.08889C19.8471 9.06276 19.9035 9.03308 19.9579 9H20.0423L22.2156 9.94665L22.8245 10.2133Z" fill="url(#paint2_linear_22_987)"/>
<path d="M30.4332 13.489L28.7666 14.2045L20.2023 17.8889C20.1397 17.9209 20.0704 17.9376 20.0001 17.9376C19.9298 17.9376 19.8605 17.9209 19.7979 17.8889C18.6779 17.4 17.5535 16.92 16.4291 16.4356L16.2024 16.3334L17.5357 15.7601C20.4986 14.483 23.4719 13.206 26.4555 11.929C26.5158 11.8999 26.5819 11.8848 26.6489 11.8848C26.7158 11.8848 26.7819 11.8999 26.8422 11.929C27.9533 12.4179 29.0644 12.8934 30.1888 13.3734L30.4332 13.489Z" fill="url(#paint3_linear_22_987)"/>
<path d="M25.7133 11.458L24.1978 12.1113L15.4735 15.8623C15.4132 15.8914 15.3471 15.9066 15.2802 15.9066C15.2132 15.9066 15.1471 15.8914 15.0868 15.8623C14.5135 15.609 13.9402 15.3645 13.3091 15.1023L13.5224 15.0001C16.8794 13.5631 20.2304 12.1276 23.5756 10.6935C23.6914 10.649 23.8197 10.649 23.9356 10.6935C24.5133 10.9335 25.0866 11.1868 25.7133 11.458Z" fill="url(#paint4_linear_22_987)"/>
<path d="M14.9091 18.2667C14.531 18.0577 14.1057 17.949 13.6736 17.9511C13.5758 17.9511 13.4736 17.8578 13.3803 17.7956C13.2025 17.6741 13.0292 17.5496 12.8603 17.4222C12.8119 17.3887 12.7784 17.3377 12.767 17.28C12.767 16.7467 12.767 16.2178 12.767 15.6489L12.9803 15.7378C13.5625 15.9867 14.1403 16.2445 14.7225 16.4845C14.7837 16.5002 14.8369 16.5379 14.8721 16.5903C14.9074 16.6428 14.9221 16.7063 14.9136 16.7689C14.9003 17.2533 14.9091 17.7422 14.9091 18.2667Z" fill="url(#paint5_linear_22_987)"/>
</g>
<defs>
<filter id="filter0_d_22_987" x="5" y="8" width="30" height="30.1421" filterUnits="userSpaceOnUse" color-interpolation-filters="sRGB">
<feFlood flood-opacity="0" result="BackgroundImageFix"/>
<feColorMatrix in="SourceAlpha" type="matrix" values="0 0 0 0 0 0 0 0 0 0 0 0 0 0 0 0 0 0 127 0" result="hardAlpha"/>
<feOffset dy="3"/>
<feGaussianBlur stdDeviation="2"/>
<feComposite in2="hardAlpha" operator="out"/>
<feColorMatrix type="matrix" values="0 0 0 0 0.819608 0 0 0 0 0.0705882 0 0 0 0 0.0862745 0 0 0 0.15 0"/>
<feBlend mode="normal" in2="BackgroundImageFix" result="effect1_dropShadow_22_987"/>
<feBlend mode="normal" in="SourceGraphic" in2="effect1_dropShadow_22_987" result="shape"/>
</filter>
<linearGradient id="paint0_linear_22_987" x1="18.9576" y1="28.3507" x2="32.482" y2="25.3375" gradientUnits="userSpaceOnUse">
<stop stop-color="#B02B2B"/>
<stop offset="1" stop-color="#D11216"/>
</linearGradient>
<linearGradient id="paint1_linear_22_987" x1="7.59619" y1="28.3493" x2="21.1521" y2="25.323" gradientUnits="userSpaceOnUse">
<stop stop-color="#B02B2B"/>
<stop offset="1" stop-color="#D11216"/>
</linearGradient>
<linearGradient id="paint2_linear_22_987" x1="7.85272" y1="13.738" x2="18.2399" y2="5.053" gradientUnits="userSpaceOnUse">
<stop stop-color="#B02B2B"/>
<stop offset="1" stop-color="#D11216"/>
</linearGradient>
<linearGradient id="paint3_linear_22_987" x1="14.3299" y1="16.9492" x2="25.4449" y2="7.59769" gradientUnits="userSpaceOnUse">
<stop stop-color="#B02B2B"/>
<stop offset="1" stop-color="#D11216"/>
</linearGradient>
<linearGradient id="paint4_linear_22_987" x1="11.6769" y1="15.0499" x2="21.3202" y2="6.891" gradientUnits="userSpaceOnUse">
<stop stop-color="#B02B2B"/>
<stop offset="1" stop-color="#D11216"/>
</linearGradient>
<linearGradient id="paint5_linear_22_987" x1="12.4842" y1="17.8392" x2="15.123" y2="17.064" gradientUnits="userSpaceOnUse">
<stop stop-color="#B02B2B"/>
<stop offset="1" stop-color="#D11216"/>
</linearGradient>
</defs>
</svg>
