<svg width="13" height="9" viewBox="0 0 13 9" fill="none" xmlns="http://www.w3.org/2000/svg">
<g clip-path="url(#clip0_1108_244)">
<path d="M0.260933 1.23491C2.88698 1.23491 5.51392 1.23491 8.14175 1.23491C8.20763 1.23738 8.27324 1.22543 8.33386 1.19991C8.39448 1.17439 8.4486 1.13595 8.4923 1.08734C8.81877 0.755328 9.15327 0.428582 9.48644 0.104472C9.52791 0.0649459 9.57742 0.0320078 9.62024 -0.00488281H11.1469C11.1827 0.0233177 11.2108 0.0599255 11.2286 0.101588C11.2464 0.143251 11.2532 0.188636 11.2486 0.233589C11.2419 0.497093 11.2486 0.767186 11.2486 1.03333C11.2486 1.21778 11.2071 1.25862 11.0158 1.25862C10.8244 1.25862 10.6425 1.25862 10.4565 1.25862C10.4212 1.25581 10.3857 1.26226 10.3538 1.2773C10.3218 1.29234 10.2945 1.31544 10.2745 1.34426C10.0417 1.63543 9.8022 1.92134 9.56939 2.21251C9.54856 2.24318 9.51957 2.26763 9.4856 2.28319C9.45163 2.29876 9.41396 2.30484 9.37672 2.30078C9.25898 2.30078 9.13989 2.30078 9.02215 2.30078C8.96053 2.29442 8.89824 2.30165 8.83981 2.32194C8.78138 2.34224 8.72827 2.37508 8.68433 2.41809C8.64039 2.46111 8.60672 2.51322 8.58577 2.57063C8.56483 2.62805 8.55712 2.68934 8.56322 2.75006C8.56322 3.52081 8.56322 4.29156 8.56322 5.06231V5.22173H0.642262C0.442901 5.22173 0.405437 5.19011 0.385367 4.99775C0.264947 3.86205 0.143635 2.72327 0.021431 1.58142C0.0165291 1.5531 0.00891399 1.52531 -0.00131416 1.49841V1.32582C0.0318918 1.2912 0.0730124 1.26489 0.118626 1.24908C0.16424 1.23327 0.213028 1.22841 0.260933 1.23491ZM6.26721 2.44835C6.63917 3.08603 7.01025 3.72371 7.38043 4.36139C7.42324 4.43517 7.48078 4.49314 7.57042 4.46416C7.62394 4.44308 7.66141 4.38379 7.70422 4.34163C7.67479 4.27839 7.65873 4.24018 7.63866 4.20987C7.26803 3.57615 6.89473 2.94373 6.52544 2.30869C6.47059 2.21646 6.40369 2.16903 6.29798 2.2191C6.19228 2.26916 6.20432 2.34163 6.26721 2.44835ZM4.66161 2.44835C5.04027 3.09261 5.41491 3.7382 5.79891 4.37983C5.82186 4.40597 5.85019 4.42701 5.88202 4.44155C5.91386 4.45608 5.94847 4.46379 5.98355 4.46416C6.02503 4.46416 6.06785 4.39037 6.10933 4.34953C6.08257 4.29156 6.06919 4.25203 6.04912 4.21778C5.67537 3.5801 5.30162 2.94286 4.92787 2.30605C4.86632 2.20065 4.78337 2.1743 4.70041 2.22305C4.61746 2.2718 4.61077 2.35348 4.66295 2.44308L4.66161 2.44835ZM3.06805 2.45757L4.19064 4.36402C4.23345 4.43912 4.29232 4.49578 4.38331 4.46284C4.43281 4.44308 4.46894 4.38642 4.51711 4.34558C4.49035 4.28761 4.47831 4.24808 4.4569 4.21383C4.08493 3.57615 3.71163 2.9389 3.33699 2.3021C3.27411 2.19538 3.19115 2.17035 3.10953 2.21646C3.02792 2.26257 3.01587 2.36139 3.06939 2.4523L3.06805 2.45757ZM1.47048 2.45757C1.84512 3.09525 2.21575 3.73293 2.59574 4.36798C2.61684 4.39577 2.64378 4.41875 2.67472 4.43535C2.70566 4.45194 2.73988 4.46177 2.77503 4.46416C2.82053 4.46416 2.86736 4.39037 2.90883 4.34953C2.88074 4.28629 2.86602 4.24808 2.84595 4.21778C2.47933 3.57922 2.1096 2.94286 1.73675 2.30869C1.66985 2.19406 1.58689 2.16244 1.5026 2.21778C1.4183 2.27311 1.4183 2.37193 1.47182 2.45493L1.47048 2.45757Z" fill="#D11216"/>
<path d="M8.81474 6.30715C9.5212 5.40201 10.4043 5.08317 11.46 5.61018C12.2427 6.00544 12.5478 6.70241 12.4862 7.57593C12.6601 7.55221 12.8542 7.65498 13 7.4758V4.79991C12.9545 4.79991 12.9077 4.81045 12.8662 4.81045H10.0832C9.74331 4.81045 9.62557 4.6945 9.62557 4.35985C9.62557 4.10557 9.62557 3.85129 9.62557 3.59701C9.62557 3.34272 9.75937 3.20175 10.027 3.20175H11.6968C11.5081 2.98568 11.3409 2.78937 11.1616 2.60096C11.1235 2.5716 11.0761 2.55664 11.0278 2.5588C10.3543 2.5588 9.68176 2.5588 9.01009 2.5588C8.87629 2.5588 8.81608 2.6115 8.81608 2.73666C8.8134 3.91848 8.81474 5.10557 8.81474 6.30715Z" fill="#D11216"/>
<path d="M8.81297 7.19897C8.83196 6.8889 8.93736 6.58997 9.11759 6.33501C9.29782 6.08005 9.54591 5.87893 9.83462 5.75373C10.1233 5.62853 10.4415 5.58409 10.7542 5.62528C11.0669 5.66648 11.362 5.79173 11.6071 5.98727C11.8522 6.18281 12.0379 6.44108 12.1437 6.73373C12.2495 7.02637 12.2714 7.34207 12.2069 7.64616C12.1425 7.95025 11.9942 8.23096 11.7783 8.45748C11.5624 8.684 11.2873 8.84756 10.9832 8.9302C10.8788 8.95918 10.7705 8.97763 10.6634 9.00003H10.3838C10.3565 8.99117 10.3288 8.9837 10.3008 8.97763C9.87048 8.92114 9.47782 8.7063 9.20179 8.37633C8.92577 8.04635 8.78685 7.62571 8.81297 7.19897Z" fill="#D11216"/>
<path d="M1.93448 7.09371C1.97319 6.78923 2.09533 6.50086 2.28783 6.25953C2.48032 6.01821 2.73589 5.83303 3.02713 5.72387C3.31838 5.6147 3.63431 5.58566 3.94104 5.63986C4.24777 5.69406 4.53374 5.82945 4.76826 6.03152C5.00279 6.23359 5.17703 6.49472 5.2723 6.78689C5.36757 7.07906 5.38028 7.39125 5.30906 7.68999C5.23784 7.98873 5.08537 8.26275 4.86802 8.48265C4.65067 8.70256 4.37662 8.86005 4.07528 8.93824C3.9776 8.96328 3.87859 8.9804 3.78092 9.00148H3.49994C3.46783 9.00148 3.43571 8.98304 3.40226 8.97909C2.95541 8.91713 2.55115 8.68479 2.2766 8.33213C2.00205 7.97947 1.87919 7.53472 1.93448 7.09371Z" fill="#D11216"/>
<path d="M4.51172 4.34845C4.48496 4.29048 4.47292 4.25096 4.45151 4.2167C4.07954 3.57902 3.70624 2.94178 3.3316 2.30497C3.26872 2.19825 3.18576 2.17322 3.10414 2.21934C3.02253 2.26545 3.01584 2.36558 3.06936 2.45649L4.1906 4.36426C4.23342 4.43936 4.29229 4.49602 4.38327 4.46308C4.43679 4.44331 4.4689 4.38666 4.51172 4.34845Z" fill="#D11216"/>
<path d="M2.91406 4.34838C2.88596 4.28514 2.87125 4.24693 2.85118 4.21663C2.481 3.57895 2.10948 2.94302 1.73662 2.30885C1.66972 2.19423 1.58677 2.16261 1.50247 2.21795C1.41818 2.27328 1.41818 2.36551 1.4717 2.4551C1.84634 3.09278 2.21696 3.73046 2.59696 4.36419C2.61779 4.39235 2.64464 4.41568 2.67562 4.43252C2.7066 4.44937 2.74094 4.45932 2.77625 4.46169C2.82174 4.463 2.86857 4.38791 2.91406 4.34838Z" fill="#D11216"/>
<path d="M7.71191 4.34811C7.68248 4.28487 7.66642 4.24666 7.64635 4.21636C7.27573 3.58263 6.90242 2.95022 6.53314 2.31517C6.47828 2.22163 6.41138 2.17552 6.30568 2.22558C6.19998 2.27565 6.20399 2.35733 6.26688 2.4601C6.63884 3.08988 7.00991 3.72361 7.38009 4.36129C7.42291 4.43507 7.48044 4.49304 7.57009 4.46405C7.6303 4.44297 7.66776 4.38369 7.71191 4.34811Z" fill="#D11216"/>
<path d="M6.11035 4.34832C6.08359 4.29035 6.07021 4.25083 6.05014 4.21657C5.67639 3.57889 5.30265 2.94165 4.9289 2.30485C4.86735 2.19944 4.78439 2.17309 4.70144 2.22184C4.61848 2.27059 4.61045 2.35359 4.66264 2.44846C5.04129 3.09272 5.41593 3.73831 5.80127 4.37994C5.82385 4.40618 5.85192 4.4273 5.88356 4.44186C5.9152 4.45641 5.94966 4.46406 5.98458 4.46427C6.02606 4.459 6.06887 4.38521 6.11035 4.34832Z" fill="#D11216"/>
<path d="M5.59981 7.56806H8.56348V5.48242H4.34075C5.23989 5.90403 5.66136 6.58782 5.59981 7.56806Z" fill="#D11216"/>
<path d="M9.92264 4.40577C9.92264 4.47824 9.94405 4.51118 10.023 4.51118H12.7498C12.7687 4.50743 12.7871 4.50168 12.8047 4.49405C12.5237 4.16862 12.2534 3.85373 11.9805 3.5428C11.95 3.51679 11.9111 3.50231 11.8708 3.50195C11.258 3.50195 10.6438 3.50195 10.031 3.50195C9.94672 3.50195 9.9213 3.53094 9.92264 3.61131C9.92977 3.87393 9.92977 4.13876 9.92264 4.40577Z" fill="#D11216"/>
<path d="M1.04799 5.48438V7.33945C1.04799 7.53576 1.08947 7.5766 1.28348 7.5766H1.67819C1.61397 6.59636 2.02874 5.9073 2.93457 5.48438H1.04799Z" fill="#D11216"/>
</g>
<defs>
<clipPath id="clip0_1108_244">
<rect width="13" height="9" fill="white" transform="matrix(-1 0 0 1 13 0)"/>
</clipPath>
</defs>
</svg>
