<svg width="17" height="13" viewBox="0 0 17 13" fill="none" xmlns="http://www.w3.org/2000/svg">
<g clip-path="url(#clip0_278_57)">
<path d="M16.5868 10.3455C16.4488 10.3543 16.3104 10.3543 16.1724 10.3455C16.0908 10.3455 16.0713 10.3679 16.0771 10.4472C16.0894 10.6051 16.0872 10.7636 16.0916 10.9222C16.2619 10.9257 16.4337 10.9222 16.6027 10.9355C16.6818 10.9449 16.7619 10.9309 16.8328 10.8953C16.9036 10.8598 16.9617 10.8044 16.9997 10.7363V10.5433C16.9602 10.473 16.8994 10.4163 16.8255 10.3809C16.7516 10.3455 16.6682 10.3331 16.5868 10.3455Z" fill="#D5D5D5"/>
<path d="M17 0.225904C17 0 17 0 16.7675 0H10.9245C10.9245 0.00841878 10.9245 0.0175391 10.9245 0.0259579C10.7722 0.0333337 10.6238 0.0759509 10.4919 0.150265C10.3599 0.224578 10.2481 0.32844 10.1658 0.453211C9.94199 0.766109 9.70449 1.07059 9.48359 1.38489C9.14068 1.87598 8.67001 2.09628 8.06361 2.09557C5.51892 2.08996 2.97422 2.09557 0.42953 2.09557C0.093125 2.09557 0.0036095 2.18046 0.0036095 2.50108C0.00120316 3.26251 0 4.02464 0 4.78748C0 5.03934 0.0721899 5.12142 0.316914 5.18527C1.58312 5.50167 2.85006 5.81668 4.1141 6.13659C4.24838 6.17097 4.30901 6.1408 4.3812 6.03767C4.64686 5.65532 4.92119 5.27858 5.19767 4.90183C5.31245 4.74468 5.48643 4.7089 5.63081 4.80221C5.77519 4.89552 5.80407 5.07372 5.69217 5.24139C5.66546 5.28208 5.63659 5.32137 5.60843 5.36066L4.90891 6.33303C5.09733 6.38003 5.26986 6.41371 5.43446 6.46703C5.53985 6.5007 5.59111 6.46703 5.65103 6.38635C5.99176 5.89315 6.34621 5.40907 6.69922 4.92218C6.82628 4.74609 7.00242 4.70049 7.15185 4.80642C7.30129 4.91236 7.32006 5.08705 7.19445 5.26104C6.93962 5.61743 6.6819 5.97312 6.4249 6.32882C6.35271 6.43265 6.28052 6.53929 6.19245 6.65575C6.37148 6.69995 6.53391 6.7259 6.68767 6.78133C6.81039 6.82342 6.87176 6.79255 6.94322 6.69223C7.36337 6.0952 7.79651 5.50378 8.2246 4.91095C8.34515 4.74398 8.49892 4.70049 8.64979 4.78257C8.82377 4.87798 8.85265 5.06319 8.71621 5.25472C8.33119 5.79212 7.9445 6.32812 7.55612 6.86271C7.49115 6.95111 7.47887 6.98268 7.61098 7.01214C7.95533 7.08721 8.29534 7.18052 8.6368 7.26681C8.94072 7.34468 8.99775 7.32364 9.17245 7.06967C10.3183 5.40088 11.4635 3.73162 12.608 2.0619C13.0007 1.48732 13.5464 1.20318 14.2525 1.20599C15.0321 1.20599 15.8118 1.20599 16.5921 1.20599C16.7748 1.20599 16.9141 1.15899 17 0.995521V0.223799V0.225904Z" fill="#D5D5D5"/>
<path d="M13.4306 8.29173C12.9387 8.21877 12.4356 8.29406 11.9891 8.50747C11.5426 8.72088 11.1741 9.06216 10.9332 9.48533C10.6924 9.9085 10.5908 10.3932 10.6421 10.8742C10.6934 11.3553 10.8951 11.8094 11.2202 12.1756C11.2859 12.2458 11.3537 12.3215 11.4331 12.4078H4.98081C4.98081 12.391 4.98081 12.384 4.98081 12.3819C5.01835 12.3426 5.053 12.304 5.09487 12.2647C5.32214 12.0399 5.49915 11.7718 5.6148 11.4774C5.73045 11.1829 5.78226 10.8684 5.76696 10.5536C5.75382 10.2023 5.66002 9.85822 5.49245 9.54666C5.32487 9.23509 5.08775 8.96387 4.79842 8.75284C4.5091 8.54181 4.17489 8.3963 3.82024 8.32696C3.4656 8.25761 3.09949 8.26619 2.7487 8.35207C1.56334 8.62919 0.789466 9.74047 0.938177 10.9584C1.07028 12.0718 2.10477 12.9929 3.27135 12.9929C6.55166 13.0013 9.83173 13.0013 13.1116 12.9929C14.6456 12.9866 15.7588 11.6052 15.4462 10.1439C15.3443 9.67239 15.0967 9.24238 14.7365 8.91139C14.3763 8.5804 13.9207 8.3642 13.4306 8.29173ZM3.33921 11.8185C3.0991 11.8184 2.86444 11.749 2.66495 11.6191C2.46546 11.4892 2.31014 11.3047 2.21865 11.089C2.12716 10.8732 2.10363 10.6359 2.15103 10.4072C2.19844 10.1784 2.31465 9.96848 2.48494 9.80397C2.65523 9.63946 2.87194 9.52778 3.1076 9.48307C3.34327 9.43837 3.58729 9.46265 3.80874 9.55285C4.03019 9.64305 4.2191 9.7951 4.35155 9.98974C4.484 10.1844 4.55401 10.4128 4.55273 10.6462C4.55006 10.9575 4.42113 11.2553 4.19392 11.4748C3.96671 11.6942 3.65958 11.8178 3.33921 11.8185ZM13.0545 11.8185C12.8146 11.8179 12.5803 11.7483 12.3812 11.6183C12.182 11.4883 12.027 11.3038 11.9358 11.0882C11.8445 10.8725 11.8211 10.6355 11.8686 10.4069C11.916 10.1784 12.0321 9.96864 12.2022 9.80423C12.3722 9.63982 12.5887 9.52812 12.8241 9.48326C13.0595 9.43841 13.3033 9.46242 13.5247 9.55224C13.7461 9.64207 13.9351 9.79369 14.0678 9.98791C14.2005 10.1821 14.2709 10.4102 14.2702 10.6434C14.2702 10.7982 14.2387 10.9516 14.1775 11.0945C14.1164 11.2375 14.0267 11.3674 13.9138 11.4766C13.8008 11.5858 13.6667 11.6722 13.5193 11.7309C13.3718 11.7896 13.2139 11.8193 13.0545 11.8185Z" fill="#D5D5D5"/>
<path d="M16.3992 9.6112C16.3898 9.2513 16.3992 8.89069 16.3992 8.53079C16.3992 8.18702 16.3992 7.84326 16.3992 7.49949C16.3992 7.03833 16.1612 6.80775 15.6853 6.80775H10.8023C10.5648 6.80775 10.2869 6.73759 10.1006 6.83441C9.9144 6.93122 9.822 7.19291 9.68772 7.38233L9.63214 7.46231C9.36648 7.84185 9.01347 7.97445 8.55506 7.86009C7.55692 7.60893 6.55805 7.35707 5.55846 7.10451L0.928923 5.94272C0.850957 5.92307 0.790318 5.91115 0.741951 6.00796C0.531878 6.4289 0.308811 6.84984 0.0958511 7.27078C-0.000836451 7.45235 -0.0272741 7.66161 0.0213443 7.86052C0.0699626 8.05943 0.190409 8.23478 0.360788 8.3547C0.51744 8.47326 0.687086 8.57639 0.839407 8.69987C0.943361 8.78265 0.996781 8.77002 1.08702 8.67321C2.59868 7.02383 5.39676 7.54018 6.18074 9.6112C6.22116 9.71644 6.26664 9.75853 6.39009 9.75783C7.59325 9.75315 8.79907 9.75315 10.0075 9.75783C10.052 9.7651 10.0977 9.75536 10.135 9.73065C10.1722 9.70593 10.1982 9.66815 10.2075 9.62523C10.417 9.06736 10.795 8.58402 11.2921 8.23858C11.7892 7.89315 12.382 7.70174 12.993 7.68945C13.6039 7.67717 14.2044 7.84457 14.7158 8.16973C15.2271 8.49488 15.6255 8.9626 15.8585 9.51158C15.9668 9.75783 15.9668 9.75151 16.2404 9.75853C16.3602 9.76134 16.4028 9.73468 16.3992 9.6112Z" fill="#D5D5D5"/>
<path d="M13.7 6.1038C13.6783 6.13607 13.6278 6.16273 13.6617 6.21745C14.1194 6.21745 14.5785 6.21324 15.0377 6.21745C15.1589 6.21745 15.182 6.18097 15.182 6.07293C15.1777 5.35312 15.182 4.63262 15.182 3.91281C15.182 3.33613 14.803 2.96991 14.206 2.9664C13.7585 2.9664 13.3102 2.96991 12.8619 2.9664C12.8157 2.96202 12.7692 2.97117 12.7284 2.99268C12.6876 3.01418 12.6544 3.04706 12.633 3.08707C12.1746 3.76338 11.7104 4.43618 11.2477 5.11038L10.4868 6.21886C10.7561 6.21886 10.9921 6.21254 11.2304 6.21886C11.2758 6.22413 11.3218 6.21597 11.3623 6.19544C11.4029 6.17491 11.4362 6.14298 11.4578 6.1038C11.7956 5.60078 12.1392 5.10126 12.4843 4.60245C12.5969 4.44039 12.7651 4.4004 12.9131 4.4902C13.0611 4.58 13.0986 4.75469 12.9853 4.92657C12.9182 5.03181 12.8453 5.13283 12.7752 5.23596C12.5587 5.55518 12.337 5.87509 12.1024 6.21815C12.3616 6.21815 12.5912 6.21815 12.8243 6.21815C12.9037 6.21815 12.9261 6.16764 12.9593 6.11994L13.4105 5.46397L14.0046 4.59754C14.0339 4.5484 14.0772 4.50855 14.1292 4.4828C14.1813 4.45705 14.2399 4.44651 14.298 4.45244C14.3561 4.45838 14.4112 4.48054 14.4567 4.51625C14.5021 4.55196 14.5359 4.59969 14.554 4.65366C14.5966 4.76942 14.554 4.86413 14.4876 4.95393C14.2248 5.33792 13.9623 5.72121 13.7 6.1038Z" fill="#D5D5D5"/>
<path d="M6.39469 10.9037C6.46688 11.0012 6.69428 10.9234 6.85238 10.9325C6.90219 10.9325 6.952 10.9325 7.00181 10.9325C7.9641 10.9325 8.92567 10.9325 9.88941 10.9325C10.0042 10.9325 10.0461 10.9114 10.0302 10.7922C10.0165 10.6855 10.0165 10.5775 10.0302 10.4709C10.0439 10.3579 9.99841 10.3404 9.89518 10.3411C9.33715 10.346 8.7784 10.3411 8.22038 10.3411H8.10415C7.56778 10.3411 7.03141 10.3411 6.49504 10.3411C6.44667 10.3411 6.36582 10.3011 6.37015 10.4112C6.37737 10.5852 6.31456 10.7915 6.39469 10.9037Z" fill="#D5D5D5"/>
<path d="M13.0612 10.0542C12.9417 10.0531 12.8245 10.0866 12.7246 10.1503C12.6247 10.2141 12.5465 10.3052 12.5001 10.4123C12.4536 10.5193 12.4409 10.6373 12.4636 10.7514C12.4863 10.8654 12.5434 10.9703 12.6277 11.0527C12.7119 11.1352 12.8194 11.1914 12.9366 11.2143C13.0537 11.2372 13.1753 11.2257 13.2857 11.1814C13.3962 11.137 13.4906 11.0617 13.5569 10.965C13.6232 10.8684 13.6585 10.7548 13.6582 10.6386C13.6587 10.5621 13.6436 10.4863 13.6138 10.4154C13.584 10.3446 13.5401 10.2802 13.4847 10.2259C13.4292 10.1715 13.3632 10.1284 13.2906 10.099C13.2179 10.0695 13.1399 10.0543 13.0612 10.0542Z" fill="#D5D5D5"/>
<path d="M3.34087 10.0542C3.22225 10.0555 3.10664 10.0907 3.00853 10.1555C2.91042 10.2203 2.83417 10.3118 2.78934 10.4186C2.7445 10.5253 2.73307 10.6426 2.75648 10.7556C2.77989 10.8686 2.83709 10.9724 2.92093 11.054C3.00476 11.1355 3.1115 11.1913 3.22778 11.2141C3.34405 11.237 3.46468 11.2261 3.57457 11.1826C3.68446 11.1392 3.77871 11.0652 3.84552 10.9699C3.91233 10.8746 3.94873 10.7623 3.95016 10.647C3.95083 10.5691 3.93553 10.4917 3.90516 10.4196C3.87479 10.3474 3.82995 10.2818 3.77325 10.2266C3.71654 10.1715 3.64911 10.1278 3.57489 10.0982C3.50066 10.0686 3.42111 10.0537 3.34087 10.0542Z" fill="#D5D5D5"/>
</g>
<defs>
<clipPath id="clip0_278_57">
<rect width="17" height="13" fill="white"/>
</clipPath>
</defs>
</svg>
