<svg width="23" height="23" viewBox="0 0 23 23" fill="none" xmlns="http://www.w3.org/2000/svg">
<path d="M0 6.32478C0 5.75577 0.242364 5.2137 0.66641 4.83429L5.49998 0.509517C5.8667 0.181405 6.3415 0 6.83357 0H21C22.1046 0 23 0.89543 23 2V17.0605C23 17.5909 22.7893 18.0996 22.4142 18.4747L18.4747 22.4142C18.0996 22.7893 17.5909 23 17.0605 23H2C0.895428 23 0 22.1046 0 21V6.32478Z" fill="url(#paint0_linear_223_107)"/>
<g clip-path="url(#clip0_223_107)">
<path d="M16.3746 10.6158C16.1361 10.5607 15.9018 10.5017 15.6634 10.4487C15.6379 10.4446 15.6144 10.4329 15.5958 10.415C15.5772 10.3972 15.5645 10.3741 15.5595 10.3488C15.4576 10.0819 15.3557 9.81695 15.2416 9.55408C15.2272 9.53044 15.2195 9.5033 15.2195 9.47562C15.2195 9.44795 15.2272 9.4208 15.2416 9.39717C15.4861 9.00795 15.7286 8.61466 15.9629 8.23766L14.8401 7.10669C14.4815 7.32881 14.1004 7.56112 13.7254 7.80158C13.6967 7.82059 13.6631 7.83073 13.6286 7.83073C13.5942 7.83073 13.5605 7.82059 13.5318 7.80158C13.2792 7.68339 13.0204 7.5815 12.7677 7.46738C12.7276 7.45215 12.6949 7.42229 12.676 7.38383C12.568 6.93552 12.4722 6.4872 12.3601 6.03889C12.3581 6.0247 12.3581 6.01029 12.3601 5.99609H10.7482C10.7054 6.19987 10.6626 6.40365 10.6178 6.60743C10.5628 6.84789 10.5017 7.08835 10.4487 7.32881C10.4444 7.3544 10.4327 7.37815 10.4149 7.39702C10.3971 7.4159 10.3741 7.42904 10.3488 7.43477C10.0859 7.53259 9.82307 7.63855 9.56427 7.74656C9.538 7.76301 9.50764 7.77174 9.47664 7.77174C9.44565 7.77174 9.41528 7.76301 9.38902 7.74656C9.00184 7.49998 8.61262 7.26156 8.24174 7.01907L7.10465 8.16023C7.32677 8.51684 7.55704 8.89383 7.79546 9.26064C7.81511 9.29099 7.82557 9.32637 7.82557 9.36253C7.82557 9.39868 7.81511 9.43407 7.79546 9.46442C7.67931 9.71303 7.57946 9.96775 7.46942 10.2204C7.46178 10.2403 7.45029 10.2584 7.4356 10.2738C7.42091 10.2892 7.40331 10.3016 7.38383 10.3101C6.93552 10.4201 6.4872 10.5139 6.03889 10.628C6.02464 10.629 6.01034 10.629 5.99609 10.628V12.2399C6.19987 12.2847 6.41384 12.3255 6.62373 12.3723C6.83363 12.4192 7.09446 12.4865 7.33289 12.5394C7.35821 12.5438 7.38165 12.5556 7.40018 12.5734C7.41871 12.5912 7.43147 12.6142 7.43681 12.6393C7.5387 12.9062 7.64059 13.1712 7.75471 13.434C7.76911 13.4577 7.77672 13.4848 7.77672 13.5125C7.77672 13.5402 7.76911 13.5673 7.75471 13.5909C7.50406 13.9924 7.2636 14.3857 7.02925 14.7627L8.16023 15.8957C8.4985 15.6919 8.85919 15.4678 9.21173 15.2375C9.25573 15.2022 9.3097 15.1817 9.36601 15.1787C9.42232 15.1758 9.47813 15.1907 9.52555 15.2212C9.75174 15.3373 9.9922 15.425 10.2245 15.5228C10.2675 15.5386 10.303 15.5699 10.3244 15.6104C10.4344 16.0587 10.5281 16.507 10.6423 16.9553C10.6433 16.9696 10.6433 16.9839 10.6423 16.9981H12.2542C12.2888 16.8351 12.3214 16.67 12.3581 16.507C12.4213 16.2258 12.4905 15.9446 12.5619 15.6613C12.5662 15.636 12.578 15.6126 12.5958 15.594C12.6136 15.5755 12.6366 15.5628 12.6617 15.5574C12.9287 15.4555 13.1936 15.3536 13.4564 15.2416C13.4798 15.2265 13.5071 15.2184 13.5349 15.2184C13.5627 15.2184 13.59 15.2265 13.6134 15.2416C14.0046 15.4881 14.3959 15.7286 14.7729 15.9629L15.9059 14.832C15.6858 14.4774 15.4535 14.0984 15.2171 13.7254C15.1969 13.6953 15.1862 13.6598 15.1862 13.6235C15.1862 13.5873 15.1969 13.5518 15.2171 13.5217C15.3333 13.273 15.4331 13.0183 15.5452 12.7677C15.5525 12.7479 15.5636 12.7299 15.578 12.7145C15.5923 12.6991 15.6096 12.6867 15.6287 12.678C16.073 12.568 16.5192 12.4742 16.9635 12.3601C16.9811 12.3581 16.9989 12.3581 17.0165 12.3601V10.7482C16.8005 10.7034 16.5824 10.6626 16.3746 10.6158ZM11.5022 13.7438C11.0589 13.7438 10.6255 13.6123 10.2569 13.366C9.88823 13.1197 9.60092 12.7696 9.43127 12.36C9.26161 11.9504 9.21722 11.4997 9.30371 11.0649C9.3902 10.6301 9.60369 10.2307 9.91718 9.91718C10.2307 9.60369 10.6301 9.3902 11.0649 9.30371C11.4997 9.21722 11.9504 9.26161 12.36 9.43127C12.7696 9.60092 13.1197 9.88823 13.366 10.2569C13.6123 10.6255 13.7438 11.0589 13.7438 11.5022C13.7438 12.0967 13.5076 12.6669 13.0872 13.0872C12.6669 13.5076 12.0967 13.7438 11.5022 13.7438Z" fill="white"/>
</g>
<defs>
<linearGradient id="paint0_linear_223_107" x1="21.5625" y1="-9.83197e-07" x2="1.725" y2="21.85" gradientUnits="userSpaceOnUse">
<stop stop-color="#D11216"/>
<stop offset="1" stop-color="#B02B2B"/>
</linearGradient>
<clipPath id="clip0_223_107">
<rect width="11" height="11" fill="white" transform="translate(6 6)"/>
</clipPath>
</defs>
</svg>
