<svg width="15" height="15" viewBox="0 0 15 15" fill="none" xmlns="http://www.w3.org/2000/svg">
<path d="M0 4.37502C0 3.80601 0.242364 3.26394 0.66641 2.88453L3.32084 0.509518C3.68755 0.181406 4.16236 0 4.65443 0H12.7422C13.8468 0 14.7422 0.895431 14.7422 2V10.6377C14.7422 11.1682 14.5315 11.6769 14.1564 12.0519L12.0519 14.1564C11.6769 14.5315 11.1682 14.7422 10.6377 14.7422H2C0.895429 14.7422 0 13.8468 0 12.7422V4.37502Z" fill="#D11216"/>
<g clip-path="url(#clip0_280_1151)">
<path d="M12 4.35857V4.52997C11.9381 4.64288 11.8707 4.75206 11.798 4.85702C10.2459 6.84032 8.69191 8.82297 7.13616 10.805C7.06231 10.8968 6.96691 10.965 6.86023 11.002H6.75023C6.62976 10.9652 6.52188 10.8905 6.44004 10.7872C5.70304 9.97683 4.96363 9.16775 4.22182 8.35998C4.12546 8.26986 4.04953 8.15657 4 8.02899V7.85759C4.01082 7.82606 4.02164 7.79454 4.03427 7.76302C4.05993 7.69737 4.10004 7.63967 4.15102 7.59504C4.20201 7.5504 4.2623 7.52021 4.32654 7.50715C4.39077 7.49409 4.45697 7.49856 4.51924 7.52017C4.58151 7.54178 4.63794 7.57986 4.6835 7.63102C4.8963 7.85365 5.10189 8.08415 5.30929 8.31072L6.70514 9.84351C6.72526 9.87009 6.74336 9.89842 6.75924 9.92823L6.85482 9.80805C8.31199 7.95872 9.76495 6.10742 11.2137 4.25415C11.2953 4.13055 11.413 4.04092 11.5473 4H11.6573C11.7396 4.01842 11.8154 4.06185 11.876 4.1253C11.9366 4.18874 11.9796 4.2696 12 4.35857Z" fill="white"/>
</g>
<defs>
<clipPath id="clip0_280_1151">
<rect width="8" height="7" fill="white" transform="translate(4 4)"/>
</clipPath>
</defs>
</svg>
