<svg width="33" height="33" viewBox="0 0 33 33" fill="none" xmlns="http://www.w3.org/2000/svg">
<path d="M0.25 8.68589C0.25 8.18801 0.462069 7.7137 0.833109 7.38172L8.30557 0.695828C8.62645 0.40873 9.0419 0.25 9.47246 0.25H31C31.9665 0.25 32.75 1.0335 32.75 2V24.8382C32.75 25.3024 32.5656 25.7475 32.2374 26.0757L26.0757 32.2374C25.7475 32.5656 25.3024 32.75 24.8382 32.75H2C1.0335 32.75 0.25 31.9665 0.25 31V8.68589Z" stroke="#727272" stroke-width="0.5"/>
<g clip-path="url(#clip0_25_990)">
<path d="M24 19.939V24.1888C23.9599 24.3856 23.8641 24.5667 23.724 24.7105C23.5839 24.8543 23.4054 24.9548 23.2097 25H22.7504C22.6997 25 22.649 24.9791 22.5983 24.9732C21.4136 24.8971 20.2422 24.6798 19.109 24.326C15.9949 23.3793 13.2566 21.4786 11.2805 18.8923C9.50844 16.6332 8.40316 13.9237 8.08947 11.0697C8.05666 10.7894 8.02982 10.524 8 10.2496V9.78136C8.04387 9.57293 8.15748 9.38568 8.32209 9.25051C8.47947 9.15641 8.64285 9.07273 8.81118 9H13.0699C13.2111 9.05937 13.3476 9.12915 13.4785 9.20876C13.602 9.31292 13.7017 9.4425 13.7707 9.58866C13.8396 9.73482 13.8763 9.89413 13.8781 10.0557C14.0302 11.1443 14.1763 12.2298 14.3433 13.3154C14.3796 13.4998 14.368 13.6904 14.3095 13.869C14.251 14.0476 14.1477 14.2081 14.0093 14.3353C13.5322 14.7946 13.0699 15.2688 12.6047 15.737C12.5644 15.7644 12.5306 15.8002 12.5054 15.8418C12.4802 15.8835 12.4642 15.93 12.4585 15.9784C12.4529 16.0267 12.4577 16.0757 12.4726 16.1221C12.4875 16.1684 12.5122 16.211 12.545 16.247C13.6049 17.9566 15.0449 19.3986 16.753 20.4609C16.7895 20.4934 16.8323 20.5177 16.8788 20.5324C16.9254 20.547 16.9744 20.5517 17.0229 20.5461C17.0713 20.5404 17.118 20.5246 17.1599 20.4997C17.2018 20.4747 17.238 20.4412 17.266 20.4013C17.7342 19.9361 18.2084 19.4738 18.6677 18.9966C18.7944 18.8586 18.9545 18.7553 19.1325 18.6968C19.3106 18.6383 19.5007 18.6266 19.6846 18.6626C20.8328 18.8326 21.981 18.9937 23.1292 19.1577C23.3225 19.1763 23.5057 19.2529 23.6547 19.3774C23.8037 19.5019 23.9116 19.6686 23.9642 19.8555C23.9743 19.8841 23.9863 19.912 24 19.939Z" fill="#D11216"/>
</g>
<defs>
<clipPath id="clip0_25_990">
<rect width="16" height="16" fill="white" transform="translate(8 9)"/>
</clipPath>
</defs>
</svg>
