<svg width="33" height="33" viewBox="0 0 33 33" fill="none" xmlns="http://www.w3.org/2000/svg">
<path d="M0.25 8.68589C0.25 8.18801 0.462069 7.7137 0.833109 7.38172L8.30557 0.695828C8.62645 0.40873 9.0419 0.25 9.47246 0.25H31C31.9665 0.25 32.75 1.0335 32.75 2V24.8382C32.75 25.3024 32.5656 25.7475 32.2374 26.0757L26.0757 32.2374C25.7475 32.5656 25.3024 32.75 24.8382 32.75H2C1.0335 32.75 0.25 31.9665 0.25 31V8.68589Z" stroke="#727272" stroke-width="0.5"/>
<g clip-path="url(#clip0_25_991)">
<path d="M24 14.375V21.7201C24 21.7543 23.9782 21.7886 23.9689 21.8228C23.9161 22.0784 23.7959 22.3151 23.6207 22.5084C23.4455 22.7016 23.2217 22.8445 22.9726 22.922C22.8698 22.9562 22.764 22.9749 22.6612 22.9998H9.31387C9.28596 22.9872 9.25672 22.9778 9.2267 22.9718C8.93361 22.9206 8.66254 22.7829 8.44834 22.5763C8.21648 22.3423 8.06028 22.044 8 21.7201V14.375C8.02416 14.3822 8.0472 14.3927 8.0685 14.4061L14.5382 18.7279C14.9558 19.0429 15.4645 19.2132 15.9875 19.2132C16.5105 19.2132 17.0193 19.0429 17.4369 18.7279L23.2559 14.867C23.4956 14.6988 23.7478 14.54 24 14.375Z" fill="#D11216"/>
<path d="M24 12.2828V12.6876C23.9175 13.0944 23.6782 13.4524 23.3337 13.684C21.1771 15.1162 19.0206 16.5527 16.864 17.9933C16.613 18.1803 16.3083 18.2813 15.9953 18.2813C15.6823 18.2813 15.3777 18.1803 15.1267 17.9933L8.66939 13.6809C8.50363 13.5777 8.36088 13.4415 8.25 13.2808C8.13913 13.1201 8.06251 12.9383 8.02491 12.7468C8.0202 12.7257 8.01177 12.7057 8 12.6876V12.2828C8 12.2517 8.02179 12.2237 8.02802 12.1956C8.0779 11.9385 8.19618 11.6995 8.37042 11.5039C8.54465 11.3083 8.7684 11.1632 9.0181 11.0841C9.11461 11.0498 9.21424 11.028 9.31387 11H22.7017C22.7297 11 22.7577 11.0249 22.7858 11.0311C23.0492 11.0736 23.2958 11.1879 23.4985 11.3615C23.7012 11.5351 23.8521 11.7612 23.9346 12.015C23.9533 12.1022 23.9751 12.1925 24 12.2828Z" fill="#D11216"/>
</g>
<defs>
<clipPath id="clip0_25_991">
<rect width="16" height="12" fill="white" transform="translate(8 11)"/>
</clipPath>
</defs>
</svg>
