<svg width="33" height="33" viewBox="0 0 33 33" fill="none" xmlns="http://www.w3.org/2000/svg">
<path d="M0.25 8.68589C0.25 8.18801 0.462069 7.7137 0.833109 7.38172L8.30557 0.695828C8.62645 0.40873 9.0419 0.25 9.47246 0.25H31C31.9665 0.25 32.75 1.0335 32.75 2V24.8382C32.75 25.3024 32.5656 25.7475 32.2374 26.0757L26.0757 32.2374C25.7475 32.5656 25.3024 32.75 24.8382 32.75H2C1.0335 32.75 0.25 31.9665 0.25 31V8.68589Z" stroke="#727272" stroke-width="0.5"/>
<g clip-path="url(#clip0_25_992)">
<path d="M23.9613 13.6117C23.7767 12.0838 23.1255 10.6495 22.0961 9.50259C21.0666 8.35573 19.7084 7.55178 18.2054 7.19954C17.8204 7.11128 17.4123 7.06523 17.0157 7H15.9955C15.776 7.0307 15.5565 7.04988 15.3409 7.08826C14.3309 7.23907 13.3637 7.59901 12.5017 8.14491C11.6396 8.69082 10.9019 9.41058 10.3358 10.2579C8.99982 12.2302 8.61481 14.3676 9.44258 16.6585C9.94736 17.9601 10.5928 19.203 11.3676 20.3653C12.7883 22.5794 14.4477 24.6132 15.9878 26.7352C16.0431 26.8191 16.1186 26.888 16.2073 26.9357C16.296 26.9834 16.3952 27.0083 16.496 27.0083C16.5967 27.0083 16.6959 26.9834 16.7847 26.9357C16.8734 26.888 16.9488 26.8191 17.0042 26.7352C18.2401 25.1005 19.4374 23.5004 20.6194 21.8503C21.6294 20.492 22.5012 19.0369 23.2221 17.5065C23.8264 16.3018 24.0824 14.9532 23.9613 13.6117ZM16.4921 17.9325C15.8068 17.9325 15.1368 17.7299 14.567 17.3504C13.9972 16.9709 13.5531 16.4316 13.2908 15.8005C13.0285 15.1695 12.9599 14.4751 13.0936 13.8051C13.2273 13.1352 13.5573 12.5198 14.0419 12.0369C14.5265 11.5539 15.144 11.2249 15.8161 11.0917C16.4883 10.9584 17.185 11.0268 17.8182 11.2882C18.4513 11.5496 18.9925 11.9923 19.3732 12.5602C19.754 13.1281 19.9572 13.7958 19.9572 14.4789C19.9572 15.3948 19.5921 16.2733 18.9423 16.9209C18.2925 17.5686 17.4111 17.9325 16.4921 17.9325Z" fill="#D11216"/>
</g>
<defs>
<clipPath id="clip0_25_992">
<rect width="15" height="20" fill="white" transform="translate(9 7)"/>
</clipPath>
</defs>
</svg>
