<svg width="30" height="27" viewBox="0 0 30 27" fill="none" xmlns="http://www.w3.org/2000/svg">
<path d="M25.8961 12.9945C25.9357 16.4286 24.6095 19.7377 22.2092 22.1939C19.809 24.6501 16.5313 26.0522 13.0972 26.0918C9.6632 26.1313 6.35409 24.8051 3.89788 22.4048C1.44167 20.0046 0.0395627 16.7269 0 13.2929C0 13.1934 0 13.0973 0 12.9945C0.000315855 10.1752 0.920828 7.43301 2.6217 5.18453C4.32257 2.93605 6.71085 1.30417 9.42373 0.536777C12.1366 -0.230616 15.0258 -0.0915785 17.6525 0.932768C20.2791 1.95712 22.4997 3.81079 23.9768 6.2122C25.2401 8.24819 25.9052 10.5985 25.8961 12.9945Z" fill="#D11317"/>
<path d="M30 4.19673C28.4066 5.44314 26.705 6.70723 24.895 7.98899C22.6243 9.59341 20.1878 11.2078 17.5691 12.8023C16.5017 13.4652 15.4077 14.1017 14.284 14.7415C10.5613 16.8763 6.96133 18.6829 3.57017 20.221H3.53702C3.17238 20.3702 2.8442 20.5194 2.54254 20.6553C3.59822 19.4151 4.58533 18.1181 5.49945 16.7702C8.62283 15.5914 11.6784 14.2402 14.6519 12.7227C15.4144 12.3349 16.1569 11.9404 16.8796 11.5459C19.3425 10.2 21.6099 8.81441 23.6818 7.44203C21.2426 8.51124 18.7459 9.44417 16.2033 10.2365C15.1978 10.5481 14.1624 10.8453 13.0972 11.1282C11.4398 11.5691 9.80884 11.9304 8.24088 12.2255C5.51711 12.7418 2.76544 13.0982 9.09141e-08 13.2929C9.09141e-08 13.1934 9.09141e-08 13.0973 9.09141e-08 12.9945C-0.000119528 11.981 0.117802 10.9708 0.351381 9.98457C3.46465 9.90223 6.57157 9.65881 9.65967 9.25529L10.7702 9.10612C12.3326 8.88513 13.8486 8.62877 15.3182 8.33706C18.4177 7.73374 21.3083 7.01109 23.9768 6.2122C26.1348 5.5691 28.1436 4.88623 30 4.19673Z" fill="#FFCE05"/>
<path d="M12.6168 4.15031C13.1176 5.71437 13.6996 7.25126 14.3605 8.75473C14.6157 9.34147 14.8942 9.93484 15.1859 10.5282L15.2157 10.5879C15.2323 10.6277 15.2522 10.6674 15.2721 10.7072C15.4975 11.1614 15.7295 11.6089 15.9616 12.0332C16.1936 12.4575 16.4323 12.8984 16.6776 13.3194C17.6759 15.0508 18.7831 16.7171 19.9925 18.3083C17.6948 17.6478 15.3158 17.3131 12.9251 17.3138H12.5969C10.2511 17.3444 7.92074 17.6991 5.67207 18.368C5.90743 18.0365 6.13947 17.705 6.36489 17.3735C7.38509 15.8737 8.31812 14.3164 9.15936 12.7094C9.49086 12.0928 9.79914 11.4498 10.1041 10.8C10.2732 10.4354 10.4356 10.0542 10.6113 9.67296C11.388 7.87502 12.0522 6.03058 12.6002 4.15031M12.5671 3.05176e-05C11.9284 3.17933 10.9539 6.28181 9.65992 9.25528C9.5008 9.61992 9.32842 9.98788 9.16268 10.3591C8.86434 11.0022 8.55273 11.6254 8.24113 12.2254C7.41925 13.7962 6.50723 15.318 5.50964 16.7835C4.59552 18.1314 3.60841 19.4283 2.55273 20.6685C2.84445 20.5326 3.17262 20.3835 3.54721 20.2343H3.58036C6.45022 19.0442 9.52024 18.4109 12.6268 18.368H12.9583C16.5482 18.3722 20.0935 19.1643 23.3439 20.6884C21.1435 18.273 19.2076 15.6293 17.5693 12.8022C17.3339 12.3945 17.1019 11.9735 16.8699 11.5459C16.6378 11.1183 16.4157 10.684 16.2069 10.2365C16.177 10.1801 16.1505 10.1205 16.1207 10.0641C15.8356 9.48069 15.5693 8.905 15.3218 8.33705C14.1381 5.6529 13.2156 2.86101 12.5671 3.05176e-05Z" fill="#FFCE05"/>
</svg>
