<svg width="446" height="344" viewBox="0 0 446 344" fill="none" xmlns="http://www.w3.org/2000/svg">
<g clip-path="url(#clip0_544_72)">
<path opacity="0.26" d="M317.259 54.5201L320.203 46.7803C320.203 46.7803 321.554 42.9721 322.403 42.9721C323.252 42.9721 324.121 43.3399 324.858 43.5866C325.596 43.8333 326.698 44.6879 327.926 44.6879C329.153 44.6879 329.767 45.3024 330.258 44.5646C330.749 43.8267 333.816 40.8797 335.411 40.2652C337.006 39.6507 338.725 38.4216 339.215 37.686C339.706 36.9503 340.076 35.3513 337.99 35.4834C335.904 35.6156 339.829 29.8316 339.829 29.8316C339.829 29.8316 341.548 25.5323 341.794 24.1799C342.041 22.8275 343.513 21.3562 343.994 20.495C344.476 19.6338 346.817 17.1779 346.817 16.5634C346.817 15.9489 345.834 15.3366 345.717 14.5988C345.601 13.8609 345.838 13.2464 345.471 12.5107C345.103 11.7751 344.857 11.1584 342.894 11.7729C340.932 12.3874 340.439 12.1407 340.694 10.6716C340.949 9.20249 345.603 4.89868 345.603 4.89868C345.603 4.89868 346.952 4.77534 347.689 4.28417C348.426 3.793 348.67 2.9318 350.265 2.9318C351.86 2.9318 352.598 2.56397 353.949 2.19615C355.299 1.82832 357.016 2.31729 357.874 1.70498C358.732 1.09266 362.171 -0.999767 365.115 0.603696C368.059 2.20716 368.552 2.56838 371.005 2.56838C373.459 2.56838 374.565 1.70938 376.286 3.18289C378.007 4.6564 378.125 5.14757 379.476 6.49995C380.827 7.85232 382.053 9.20249 382.544 10.1848C383.034 11.1672 384.744 11.905 384.744 13.2552C384.744 14.6054 385.972 16.9423 385.972 16.9423C386.664 17.9909 387.162 19.1555 387.444 20.3805C387.813 22.224 388.058 22.3474 389.285 23.6975C390.513 25.0477 391.486 27.6291 391.486 27.6291C391.486 27.6291 392.099 29.1026 392.713 29.7171C393.327 30.3316 392.958 30.9461 393.571 32.7897C394.185 34.6332 394.432 35.8601 396.652 35.8601C398.872 35.8601 399.596 35.2455 400.577 35.1244C401.559 35.0033 402.777 35.7367 403.277 35.7367C403.776 35.7367 405.242 36.7213 406.714 35.8601C408.186 34.9989 408.914 37.5802 410.641 38.1948C412.369 38.8093 412.842 40.0383 414.446 39.6683C416.05 39.2982 415.918 40.4061 415.918 41.144C415.918 41.8818 417.018 42.7408 417.513 43.232C418.008 43.7232 417.636 45.9346 417.636 47.2847C417.636 48.6349 420.582 48.5137 420.582 50.1106C420.582 51.7075 421.317 49.7428 424.14 49.4961C426.963 49.2494 426.963 49.0049 428.321 48.7604C429.678 48.516 430.651 48.1459 430.774 47.6592C430.897 47.1724 431.874 43.7276 433.854 43.1131C435.835 42.4986 437.045 41.2695 438.517 40.0427C439.989 38.8159 439.989 37.8401 441.584 37.9525C443.179 38.0648 443.549 37.708 444.04 40.2872C444.53 42.8664 446.126 42.7453 446.002 43.9721C445.879 45.1989 446.002 44.8333 444.654 46.6746C443.305 48.516 443.303 51.2207 443.303 51.2207C443.303 51.2207 442.689 53.0642 442.812 54.5378C442.935 56.0113 443.058 57.6081 443.058 58.7226C443.058 59.8371 442.444 62.9075 442.198 63.7599C441.952 64.6123 440.726 65.7267 440.726 67.3236C440.726 68.9205 441.093 71.1318 440.603 71.623C440.112 72.1142 441.093 73.2198 437.168 73.0965C433.243 72.9732 431.766 72.2375 431.031 73.5877C430.297 74.9379 429.681 74.689 427.951 76.5369C426.222 78.3848 426.726 78.6249 427.584 79.4861C428.442 80.3473 431.511 85.8736 431.388 91.402L431.258 96.9128C431.258 96.9128 429.786 98.3863 428.191 98.633C426.596 98.8797 428.314 99.492 428.558 100.598C428.803 101.703 428.191 102.195 428.191 102.195C428.191 102.195 426.719 101.336 426.596 100.598C426.473 99.8598 425.859 98.8775 425.859 98.8775C425.859 98.8775 423.896 97.4039 423.405 98.0185C422.915 98.633 422.668 100.721 422.668 101.089C422.668 101.457 423.159 105.635 419.968 103.547C416.778 101.459 421.069 103.3 419.968 105.144C418.868 106.987 419.231 108.214 417.513 108.705C415.794 109.196 411.746 110.058 411.746 110.058C411.746 110.058 411.746 111.899 412.483 112.637C413.22 113.375 414.683 113.866 413.832 115.339C412.98 116.813 412.237 116.692 411.132 116.322C410.027 115.952 407.942 117.919 406.47 116.692C404.998 115.465 403.77 113.251 402.665 114.602C401.561 115.952 401.438 116.804 400.947 119.024C400.456 121.244 400.21 121.727 398.982 122.341C397.754 122.956 396.529 123.443 396.282 124.429C396.036 125.416 395.182 126.396 392.845 127.379C390.509 128.361 391.373 129.713 389.778 130.696C388.183 131.678 387.078 134.38 387.078 134.38C387.078 134.38 387.937 136.469 385.116 136.583C382.295 136.698 381.065 139.286 377.635 139.9C374.204 140.515 372.235 144.085 372.235 144.085C372.235 144.085 370.763 146.664 370.396 146.664C370.028 146.664 369.168 147.523 368.308 146.788C367.447 146.052 369.535 148.261 368.308 148.508C367.08 148.754 364.627 149.243 364.503 150.105C364.38 150.966 362.785 147.523 364.382 147.279C365.355 147.124 366.279 146.747 367.082 146.177C367.082 146.177 367.694 143.975 367.082 143.975C366.47 143.975 365.485 145.076 365.117 143.852C364.75 142.627 364.75 141.272 366.589 140.534C368.429 139.797 367.082 138.57 368.677 136.235C370.273 133.9 371.745 132.05 370.763 130.949C369.782 129.848 370.396 126.279 365.482 128C360.569 129.72 361.066 127.385 359.348 132.185C357.63 136.984 356.525 136.484 356.525 136.484C356.525 136.484 353.949 138.942 353.211 138.942C352.474 138.942 351.249 139.31 350.388 141.277C349.882 142.399 349.591 143.608 349.53 144.838C349.53 144.838 350.144 146.067 349.284 146.435C348.424 146.803 348.916 148.279 347.198 148.279C345.48 148.279 344.252 149.38 343.27 149.508C342.289 149.635 340.571 146.682 339.22 148.406C337.869 150.131 336.643 153.197 337.019 154.67C337.396 156.144 338.368 157.864 338.368 157.864L339.719 159.093L340.577 160.194L341.805 161.67C341.805 161.67 341.928 160.071 343.891 160.194C345.854 160.318 346.714 159.58 346.714 159.212C346.714 158.844 347.572 159.459 347.572 159.459C347.572 159.459 348.432 159.459 348.432 160.932C348.432 162.406 349.046 163.135 349.046 163.135C349.046 163.135 347.205 167.681 350.146 168.049C353.088 168.417 354.809 169.15 355.546 167.925C356.283 166.701 355.79 165.346 355.79 165.346C357.096 164.671 358.263 163.754 359.227 162.644C360.822 160.8 361.68 160.441 362.173 159.56C362.666 158.679 362.785 158.946 363.155 159.93C363.524 160.915 365.485 160.666 365.854 161.65C366.224 162.635 366.468 163.247 367.45 163.247C368.431 163.247 369.535 164.23 370.763 163.615C371.991 163.001 373.707 160.789 374.2 161.527C374.693 162.265 374.077 162.628 376.04 162.877C378.002 163.126 377.514 164.597 377.514 164.597C377.514 164.597 375.795 166.8 376.53 166.932C377.265 167.064 378.125 168.776 376.409 168.652C374.693 168.529 374.568 166.685 372.972 167.791C371.377 168.897 371.254 169.758 370.026 169.758C368.798 169.758 368.063 170.985 368.063 170.985L366.099 171.846L364.013 171.969L365.24 173.071L364.503 174.297C364.503 174.297 363.645 173.438 363.645 174.912C363.666 176.021 363.747 177.129 363.889 178.229C363.889 178.229 361.927 178.844 361.689 178.229C361.452 177.615 361.077 175.897 360.094 176.509C359.11 177.121 359.727 178.352 359.727 178.352L359.973 179.705C359.973 179.705 359.113 182.037 358.008 182.284C357.297 182.438 356.647 182.802 356.143 183.327C355.639 183.853 355.303 184.517 355.178 185.235C354.811 187.079 354.565 188.552 353.707 188.799C352.848 189.046 352.725 190.396 352.969 190.764C353.214 191.132 354.32 191.625 355.302 192.484C356.283 193.343 355.669 193.836 357.634 193.836C359.599 193.836 362.175 195.187 362.175 195.187C362.175 195.187 363.771 196.171 364.261 198.012C364.561 199.139 364.929 200.247 365.361 201.329L367.447 205.384C367.447 205.384 369.166 205.752 369.289 208.701C369.412 211.651 371.252 212.754 371.252 212.754C371.252 212.754 373.828 212.51 373.828 213.492C373.828 214.474 374.075 216.318 374.689 216.318C375.302 216.318 377.756 216.562 378.123 217.3C378.491 218.038 379.351 222.829 378.002 222.705C376.653 222.582 375.179 221.604 374.442 220.985C373.705 220.366 372.97 219.144 372.6 219.144C372.231 219.144 370.638 218.406 370.638 218.406L369.41 217.177L366.833 217.424L371.252 220.862L374.442 221.846C374.442 221.846 377.756 223.564 378.493 225.04C379.23 226.516 380.456 227.496 380.211 227.987C379.967 228.478 376.774 229.216 376.774 229.216L374.933 231.304L372.97 232.289C372.97 232.289 373.584 234.253 372.11 234.377C370.636 234.5 370.024 236.833 371.989 236.709C373.954 236.586 373.951 234.13 375.547 234.621C377.142 235.112 377.879 237.079 379.107 237.079C380.334 237.079 381.927 238.062 382.911 237.938C383.895 237.815 382.42 239.535 382.42 239.535C382.42 239.535 381.32 241.132 380.332 241.132C379.344 241.132 381.56 242.116 381.56 242.116C381.56 242.116 382.297 239.658 382.66 241.502C383.023 243.345 383.274 245.434 383.274 245.434L381.923 245.678C381.41 245.595 380.912 245.437 380.445 245.209C379.879 244.885 380.121 246.583 380.121 246.583L380.607 248.766L380.929 249.647L380.607 250.858H379.476L380.042 251.909L380.922 253.526C380.922 253.526 381.487 254.821 381.245 254.821C381.003 254.821 379.791 254.579 379.791 254.579L378.823 256.032L378.339 256.761L377.692 257.488L377.045 256.922L377.773 255.466L376.233 254.821L376.154 257.327L375.274 258.208L373.819 258.371V259.18L374.869 259.261L373.901 260.957L372.851 263.545L373.819 264.272L373.659 265.325L372.688 265.646L372.528 266.941L370.75 267.75L369.621 269.851L368.611 273.056C368.611 273.056 366.743 271.734 365.436 271.932C364.129 272.131 365.436 274.924 365.436 274.924L365.808 278.102L365.062 280.721L366.743 282.403L367.304 284.086L365.249 284.458L363.007 286.703L360.952 288.386L358.532 292.498L356.111 295.117L352.936 295.304L350.696 296.612C350.696 296.612 353.31 296.238 353.31 297.546C353.31 298.854 351.629 300.537 351.629 300.537L349.948 302.407L346.96 304.464C346.96 304.464 342.179 309.814 341.55 310.698C340.921 311.581 338.276 313.471 338.276 313.471C338.276 313.471 336.892 314.73 335.884 314.479C334.876 314.228 333.745 315.739 333.745 315.739H331.73C331.73 315.739 331.352 313.722 331.101 314.226C330.85 314.73 331.73 315.739 330.722 316.62C329.714 317.501 327.072 316.62 327.072 316.62L325.312 316.369L322.163 317.25L316.882 318.889C316.083 318.89 315.285 318.848 314.491 318.763C313.611 318.638 313.104 316.874 313.104 316.874C313.104 316.874 311.595 317.25 311.217 317.25C310.838 317.25 311.846 318.131 311.72 319.393C311.614 320.256 311.402 321.103 311.091 321.915L309.331 323.677L307.571 324.558C307.372 324.065 307.208 323.558 307.082 323.041C307.032 322.847 306.985 322.638 306.939 322.415C306.688 321.155 306.563 320.147 306.563 320.147L306.059 325.567C306.059 325.567 305.934 326.448 304.801 326.448C304.065 326.478 303.359 326.743 302.785 327.204C302.785 327.204 301.148 326.825 300.772 326.825C300.396 326.825 298.756 327.959 298.756 327.959C298.756 327.959 298.505 327.582 296.239 328.589C293.973 329.595 294.224 330.732 292.083 330.732C290.565 330.707 289.051 330.581 287.55 330.353L284.655 332.115L282.263 333.877C281.494 334.195 280.773 334.619 280.122 335.137L279.242 335.893C279.573 336.695 279.995 337.456 280.5 338.161C281.07 339.031 281.526 339.971 281.858 340.956C281.858 340.956 282.738 341.586 281.356 342.846C279.975 344.106 276.956 344.359 276.571 343.476C276.186 342.593 276.571 340.073 276.067 339.822C275.563 339.571 274.683 337.428 274.683 337.428C274.683 337.428 274.43 337.174 274.43 335.789C274.43 334.404 276.067 331.882 276.067 331.882L275.312 330.496C274.605 330.365 273.89 330.28 273.171 330.243C272.417 330.243 271.03 331.001 271.03 331.001C271.03 331.001 268.39 331.252 268.39 330.622C268.39 329.992 267.004 329.234 267.004 329.234L263.103 328.858C263.103 328.858 262.975 330.117 261.466 330.117C259.956 330.117 254.425 329.109 254.425 329.109C254.425 329.109 252.788 328.479 250.396 327.723C248.004 326.968 248.887 326.085 247.375 325.329C245.863 324.574 245.615 323.437 245.615 323.437C245.615 323.437 244.482 321.422 245.362 319.658C245.884 318.64 246.184 317.523 246.242 316.38L244.226 315.371C244.226 315.371 243.85 316.885 242.339 316.127C240.827 315.369 240.198 314.741 240.198 314.741L237.302 314.112L235.289 312.852L233.903 310.834L232.393 309.7C232.393 309.7 232.393 310.455 231.26 310.96C230.127 311.464 228.62 310.583 228.237 312.473C227.854 314.363 226.978 314.363 226.978 314.363L224.837 316.001C224.837 316.001 222.67 315.004 222.008 315.004C221.345 315.004 220.688 316.728 218.826 316.462C216.965 316.195 212.067 319.514 209.948 317.259C207.829 315.004 207.968 313.81 205.178 315.799C202.388 317.788 200.539 317.655 198.817 316.86C197.094 316.065 197.226 320.84 198.157 322.565C199.087 324.29 198.025 327.34 198.025 327.34C198.025 327.34 200.005 329.463 196.832 329.322C193.659 329.181 192.592 328.261 192.724 326.404C192.856 324.547 193.518 322.424 191.133 324.149C188.748 325.873 188.493 325.873 185.833 325.607C183.173 325.34 182.387 324.812 182.387 322.157C182.387 319.503 181.989 319.107 180.002 319.107C178.015 319.107 174.039 319.107 175.364 316.587C176.688 314.067 178.279 313.004 178.004 310.75C177.729 308.497 177.606 308.495 175.221 307.433C172.836 306.372 173.366 302.922 173.366 302.922C173.366 302.922 172.046 299.209 173.366 298.28C174.686 297.35 173.762 295.892 169.654 296.687C165.546 297.482 163.425 298.412 163.425 298.412C163.425 298.412 160.785 298.81 162.105 297.35C163.425 295.89 164.745 292.974 163.96 292.841C163.174 292.709 162.767 289.126 163.828 288.993C164.888 288.861 166.743 285.146 166.743 285.146C166.743 285.146 169.79 285.943 171.249 283.824C172.708 281.705 172.569 277.987 173.9 278.65C175.232 279.313 174.827 276.131 174.827 276.131L175.623 270.162L176.283 265.651C176.283 265.651 175.623 262.6 174.03 262.732C172.437 262.865 173.102 258.752 173.102 258.752L172.307 255.171C172.307 255.171 171.115 253.711 169.656 253.579C168.197 253.446 168.065 253.312 166.078 254.508C164.092 255.704 166.109 252.347 161.137 252.495C156.164 252.643 160.551 251.03 157.775 251.471C154.998 251.911 158.655 249.861 158.655 249.861L159.535 246.777C159.535 246.777 158.215 244.288 156.173 245.605C154.131 246.922 159.097 244.143 157.493 242.385C155.889 240.628 152.96 240.623 152.96 240.623C152.96 240.623 150.76 241.945 150.181 242.672C149.603 243.398 147.842 243.553 146.234 242.231C144.626 240.909 145.501 237.694 141.699 240.028C137.897 242.363 136.859 243.425 136.859 243.425C136.859 243.425 135.69 244.008 133.056 244.008C130.423 244.008 129.109 245.911 127.939 246.352C126.768 246.792 123.113 248.255 122.675 249.717C122.238 251.18 120.915 250.742 119.751 250.742C118.587 250.742 115.219 251.475 114.193 250.301C113.168 249.127 111.124 248.099 111.124 248.099L107.76 247.658C107.76 247.658 104.835 245.755 103.957 245.608C103.08 245.46 98.8396 241.363 96.3555 243.559C93.8713 245.755 90.9449 247.218 90.9449 247.951C90.9449 248.684 91.385 253.513 88.8965 250.438C86.4079 247.363 92.9912 240.777 86.2561 242.094C79.521 243.412 73.3888 240.484 73.3888 240.484L66.8077 238.282C66.8077 238.282 63.8835 237.548 63.7383 235.059C63.5931 232.571 59.9494 232.15 58.7788 232.15C57.6083 232.15 59.0715 228.491 56.5785 227.32C54.0856 226.148 56.5653 221.472 50.2417 220.743C43.918 220.014 46.3493 216.358 44.16 214.655C41.9707 212.952 40.5098 210.514 40.5098 210.514L35.8891 206.862C35.8891 206.862 36.3754 204.913 31.2685 205.889C26.1616 206.865 23.2418 198.583 23.2418 198.583C23.2418 198.583 20.322 194.2 19.1053 193.958C17.8885 193.715 17.8907 189.574 16.6849 189.574C15.4792 189.574 13.0347 186.652 13.0347 186.652L13.8862 181.782L13.1579 177.399C13.1579 177.399 14.3724 172.773 16.3197 174.976C18.267 177.178 20.9403 179.114 20.9403 179.114C20.9403 179.114 23.8601 180.577 23.8601 177.167C23.8484 175.098 23.2585 173.073 22.1571 171.322L19.2329 166.441C19.2329 166.441 23.3672 162.789 23.6115 160.598C23.8557 158.406 22.1505 155.972 22.1505 155.972L19.2329 150.858C19.2329 150.858 20.9337 148.673 20.4474 146.47C19.9612 144.268 15.5826 143.55 15.5826 143.55L12.1765 140.387C12.1765 140.387 5.12239 140.629 7.31168 135.273C9.50098 129.916 8.28421 129.427 5.36662 126.506C2.44903 123.586 0.015501 119.932 0.015501 119.932C0.015501 119.932 0.988032 120.174 3.66359 120.174C6.33915 120.174 5.86389 115.304 5.86389 115.304L6.35015 108.243L2.69106 105.564C2.69106 105.564 -0.219931 105.564 0.015501 102.886C0.250933 100.208 2.43583 97.285 2.43583 97.285L4.86935 93.1442L8.76168 92.1707C8.76168 92.1707 13.6265 92.9019 14.8433 92.1707C16.0601 91.4394 19.4639 87.3008 20.1944 91.1971C20.9249 95.0935 22.6147 95.5802 22.6147 95.5802C22.6147 95.5802 25.7788 96.3115 27.7238 93.8754C29.6689 91.4394 31.3719 90.7104 33.3192 90.9527C35.2664 91.1949 39.1566 91.9284 39.1566 91.9284L44.2657 91.6839L52.5366 88.2743C52.5366 88.2743 52.5366 88.7611 57.6457 85.3537C60.8488 83.1665 63.6537 80.4458 65.9386 77.31L66.1806 68.7883V63.4339L63.7603 60.0265H71.787C71.787 60.0265 77.3823 59.2953 78.3548 60.2688C79.3274 61.2423 82.2472 62.9471 82.2472 62.9471C82.2472 62.9471 85.167 64.4096 84.1922 60.0265C83.2175 55.6434 87.8425 51.2603 87.8425 51.2603L92.2211 45.4148C92.2211 45.4148 91.9769 46.146 96.5997 47.364C101.223 48.582 101.465 51.5026 103.898 51.0159L108.763 50.0423L110.708 45.417C110.708 45.417 108.508 40.5471 115.329 38.8423C122.15 37.1375 121.643 33.4791 121.643 33.4791C122.947 32.8993 124.417 32.8125 125.78 33.2346C127.98 33.9659 128.456 35.1839 128.456 37.86C128.456 40.5361 130.887 41.9986 130.887 41.9986L133.076 45.8949L136.969 48.3309C136.969 48.3309 142.078 48.5732 142.078 52.9563C142.078 57.3394 145 61.489 145 61.489L144.027 67.3324C144.027 67.3324 140.135 66.6034 140.621 71.4732C141.107 76.3431 140.621 78.7791 144.755 79.5082C148.89 80.2372 154.487 82.6732 154.487 82.6732C154.487 82.6732 157.891 80.7262 162.27 85.8405C166.648 90.9549 168.596 92.9019 170.054 92.9019C171.513 92.9019 172.723 95.0935 172.723 96.5538C172.723 98.0141 173.702 102.639 173.702 102.639L175.892 107.754V109.945C175.892 109.945 178.323 109.214 183.188 110.432C188.053 111.65 186.352 112.868 194.865 112.868C203.378 112.868 208.973 113.355 208.973 113.355C208.973 113.355 218.461 116.762 219.191 119.443C219.922 122.123 220.164 117.007 225.029 120.172C229.894 123.337 235.733 124.797 236.95 124.068C238.167 123.339 235.247 126.746 239.626 125.531C244.004 124.315 254.951 118.225 262.491 118.225C270.031 118.225 274.41 118.711 274.41 118.711C274.41 118.711 281.953 119.685 281.953 115.789C281.953 111.892 285.357 109.701 285.357 109.701C285.357 109.701 293.627 107.996 292.177 104.831C290.727 101.666 288.285 99.4743 288.285 98.5008C288.285 97.5273 291.205 91.4394 292.906 91.6729C294.607 91.9064 299.229 94.838 299.229 94.838L303.85 94.3512C303.85 94.3512 309.201 90.9416 309.932 88.9946C310.662 87.0475 318.931 89.7258 320.878 84.1247C322.825 78.5236 325.499 76.5766 327.932 76.5766C330.366 76.5766 330.608 73.6538 330.608 73.6538C330.608 73.6538 330.608 74.8718 332.808 74.6273C335.008 74.3828 335.97 72.4357 338.648 72.4357C341.325 72.4357 341.565 73.167 343.999 73.167C346.432 73.167 349.35 71.949 344.241 67.5659C339.132 63.1828 339.134 60.26 335.728 60.26C332.322 60.26 330.133 60.9912 330.133 60.9912L328.43 64.1563C328.43 64.1563 326.484 62.2093 324.537 62.2093C322.59 62.2093 320.889 60.9912 320.159 62.9383C319.428 64.8854 318.456 66.3479 316.997 63.4251C315.538 60.5023 316.51 58.5552 316.51 58.5552L317.259 54.5201Z" fill="#BFBEBE"/>
<path d="M346.5 130C346.5 130.324 346.294 130.721 345.716 131.158C345.146 131.589 344.29 131.999 343.186 132.352C340.986 133.056 337.915 133.5 334.5 133.5C331.085 133.5 328.014 133.056 325.814 132.352C324.71 131.999 323.854 131.589 323.284 131.158C322.706 130.721 322.5 130.324 322.5 130C322.5 129.676 322.706 129.279 323.284 128.842C323.854 128.411 324.71 128.001 325.814 127.648C328.014 126.944 331.085 126.5 334.5 126.5C337.915 126.5 340.986 126.944 343.186 127.648C344.29 128.001 345.146 128.411 345.716 128.842C346.294 129.279 346.5 129.676 346.5 130Z" stroke="#D1D1D1"/>
<line x1="334.5" y1="107" x2="334.5" y2="130" stroke="#9B9B9B"/>
<path d="M317.718 86.425C317.358 86.0523 317.158 85.5548 317.158 85.0372L317.158 75.0052C317.158 74.4747 317.368 73.966 317.744 73.591L332.92 58.4142C333.701 57.6331 334.968 57.6331 335.749 58.4142L351.898 74.5632C352.273 74.9383 352.484 75.447 352.484 75.9775L352.484 85.005C352.484 85.5417 352.268 86.0559 351.885 86.4319L335.775 102.254C334.982 103.033 333.705 103.016 332.933 102.215L317.718 86.425Z" fill="#D11216"/>
<path d="M334.495 72.5203C336.035 72.515 337.551 72.907 338.895 73.6587C340.24 74.4103 341.368 75.496 342.17 76.8109C342.415 77.2058 342.628 77.6195 342.807 78.0483C343.657 80.0803 343.733 82.3534 343.021 84.4378C342.309 86.5222 340.858 88.2736 338.942 89.3608C337.026 90.4479 334.779 90.7956 332.624 90.338C330.47 89.8804 328.557 88.6493 327.249 86.8774C326.142 85.3891 325.526 83.5929 325.486 81.7384C325.486 81.6679 325.486 81.5999 325.486 81.5294C325.484 80.3458 325.716 79.1734 326.168 78.0795C326.62 76.9856 327.284 75.9917 328.121 75.1547C328.958 74.3178 329.951 73.6543 331.045 73.2022C332.139 72.7501 333.312 72.5184 334.495 72.5203ZM334.495 72.0341C333.248 72.0322 332.012 72.2765 330.859 72.753C329.706 73.2295 328.659 73.9288 327.777 74.8109C326.895 75.693 326.195 76.7406 325.719 77.8934C325.242 79.0463 324.998 80.2819 325 81.5294C325 81.6047 325 81.6752 325 81.7482C325.034 83.1433 325.375 84.5139 325.998 85.7623C326.622 87.0107 327.513 88.1063 328.608 88.9711C329.704 89.8359 330.976 90.4487 332.335 90.7657C333.694 91.0828 335.106 91.0964 336.471 90.8056C337.836 90.5148 339.12 89.9267 340.232 89.0831C341.344 88.2396 342.256 87.1613 342.903 85.9252C343.551 84.689 343.918 83.3252 343.979 81.931C344.039 80.5368 343.792 79.1464 343.254 77.8587C342.528 76.1354 341.311 74.6637 339.755 73.6264C338.199 72.5891 336.373 72.032 334.503 72.0244L334.495 72.0341Z" fill="white"/>
<path d="M347 75.0776C345.832 75.9917 344.584 76.9187 343.256 77.8586C341.591 79.0352 339.804 80.2191 337.884 81.3884C337.101 81.8745 336.299 82.3413 335.475 82.8105C332.745 84.376 330.105 85.7008 327.618 86.8288H327.594C327.326 86.9382 327.086 87.0476 326.865 87.1472C327.639 86.2378 328.363 85.2867 329.033 84.2982C331.323 83.4338 333.564 82.4428 335.745 81.33C336.304 81.0456 336.848 80.7563 337.378 80.467C339.185 79.4801 340.847 78.4639 342.367 77.4575C340.578 78.2416 338.747 78.9258 336.882 79.5068C336.145 79.7353 335.386 79.9533 334.605 80.1607C333.389 80.484 332.193 80.749 331.043 80.9654C329.046 81.344 327.028 81.6054 325 81.7481C325 81.6752 325 81.6047 325 81.5293C325 80.7861 325.086 80.0453 325.258 79.3221C327.541 79.2617 329.819 79.0832 332.084 78.7872L332.898 78.6779C334.044 78.5158 335.156 78.3278 336.233 78.1139C338.506 77.6714 340.626 77.1415 342.583 76.5556C344.166 76.084 345.639 75.5833 347 75.0776Z" fill="white"/>
<path d="M334.252 75.0435C334.62 76.1905 335.046 77.3176 335.531 78.4201C335.718 78.8504 335.922 79.2855 336.136 79.7231L336.158 79.7644C336.17 79.7936 336.185 79.8228 336.2 79.8519C336.365 80.1825 336.535 80.5131 336.705 80.8243C336.875 81.1355 337.05 81.4588 337.23 81.7675C337.962 83.0372 338.774 84.2592 339.661 85.4261C337.976 84.9417 336.232 84.6962 334.478 84.6968H334.238C332.518 84.7192 330.809 84.9793 329.16 85.4698C329.332 85.2267 329.502 84.9836 329.668 84.7405C330.416 83.6407 331.1 82.4987 331.717 81.3202C331.96 80.8681 332.186 80.3965 332.41 79.92C332.534 79.6526 332.653 79.373 332.782 79.0935C333.351 77.775 333.838 76.4224 334.24 75.0435M334.216 72C333.748 74.3315 333.033 76.6066 332.084 78.7872C331.967 79.0546 331.841 79.3244 331.719 79.5967C331.501 80.0683 331.272 80.5253 331.044 80.9653C330.441 82.1172 329.772 83.2332 329.04 84.3078C328.37 85.2963 327.646 86.2474 326.872 87.1569C327.086 87.0572 327.327 86.9478 327.601 86.8384H327.626C329.73 85.9657 331.982 85.5013 334.26 85.4698H334.503C337.135 85.4729 339.735 86.0538 342.119 87.1715C340.505 85.4002 339.086 83.4614 337.884 81.3883C337.712 81.0893 337.541 80.7805 337.371 80.467C337.201 80.1534 337.038 79.8349 336.885 79.5067C336.863 79.4654 336.844 79.4217 336.822 79.3803C336.613 78.9525 336.418 78.5303 336.236 78.1138C335.368 76.1454 334.692 74.0981 334.216 72Z" fill="white"/>
<path d="M301.5 319C301.5 319.324 301.294 319.721 300.716 320.158C300.146 320.589 299.29 320.999 298.186 321.352C295.986 322.056 292.915 322.5 289.5 322.5C286.085 322.5 283.014 322.056 280.814 321.352C279.71 320.999 278.854 320.589 278.284 320.158C277.706 319.721 277.5 319.324 277.5 319C277.5 318.676 277.706 318.279 278.284 317.842C278.854 317.411 279.71 317.001 280.814 316.648C283.014 315.944 286.085 315.5 289.5 315.5C292.915 315.5 295.986 315.944 298.186 316.648C299.29 317.001 300.146 317.411 300.716 317.842C301.294 318.279 301.5 318.676 301.5 319Z" stroke="#D1D1D1"/>
<line x1="289.5" y1="296" x2="289.5" y2="319" stroke="#9B9B9B"/>
<path d="M272.718 275.425C272.358 275.052 272.158 274.555 272.158 274.037L272.158 264.005C272.158 263.475 272.368 262.966 272.744 262.591L287.92 247.414C288.701 246.633 289.968 246.633 290.749 247.414L306.898 263.563C307.273 263.938 307.484 264.447 307.484 264.977L307.484 274.005C307.484 274.542 307.268 275.056 306.885 275.432L290.775 291.254C289.982 292.033 288.705 292.016 287.933 291.215L272.718 275.425Z" fill="#D11216"/>
<path d="M289.495 261.52C291.035 261.515 292.551 261.907 293.895 262.659C295.24 263.41 296.368 264.496 297.17 265.811C297.415 266.206 297.628 266.62 297.807 267.048C298.657 269.08 298.733 271.353 298.021 273.438C297.309 275.522 295.858 277.274 293.942 278.361C292.026 279.448 289.779 279.796 287.624 279.338C285.47 278.88 283.557 277.649 282.249 275.877C281.142 274.389 280.526 272.593 280.486 270.738C280.486 270.668 280.486 270.6 280.486 270.529C280.484 269.346 280.716 268.173 281.168 267.079C281.62 265.986 282.284 264.992 283.121 264.155C283.958 263.318 284.951 262.654 286.045 262.202C287.139 261.75 288.312 261.518 289.495 261.52ZM289.495 261.034C288.248 261.032 287.012 261.277 285.859 261.753C284.706 262.23 283.659 262.929 282.777 263.811C281.895 264.693 281.195 265.741 280.719 266.893C280.242 268.046 279.998 269.282 280 270.529C280 270.605 280 270.675 280 270.748C280.034 272.143 280.375 273.514 280.998 274.762C281.622 276.011 282.513 277.106 283.608 277.971C284.704 278.836 285.976 279.449 287.335 279.766C288.694 280.083 290.106 280.096 291.471 279.806C292.836 279.515 294.12 278.927 295.232 278.083C296.344 277.24 297.256 276.161 297.903 274.925C298.551 273.689 298.918 272.325 298.979 270.931C299.039 269.537 298.792 268.146 298.254 266.859C297.528 265.135 296.311 263.664 294.755 262.626C293.199 261.589 291.373 261.032 289.503 261.024L289.495 261.034Z" fill="white"/>
<path d="M302 264.078C300.832 264.992 299.584 265.919 298.256 266.859C296.591 268.035 294.804 269.219 292.884 270.388C292.101 270.875 291.299 271.341 290.475 271.81C287.745 273.376 285.105 274.701 282.618 275.829H282.594C282.326 275.938 282.086 276.048 281.865 276.147C282.639 275.238 283.363 274.287 284.033 273.298C286.323 272.434 288.564 271.443 290.745 270.33C291.304 270.046 291.848 269.756 292.378 269.467C294.185 268.48 295.847 267.464 297.367 266.458C295.578 267.242 293.747 267.926 291.882 268.507C291.145 268.735 290.386 268.953 289.605 269.161C288.389 269.484 287.193 269.749 286.043 269.965C284.046 270.344 282.028 270.605 280 270.748C280 270.675 280 270.605 280 270.529C280 269.786 280.086 269.045 280.258 268.322C282.541 268.262 284.819 268.083 287.084 267.787L287.898 267.678C289.044 267.516 290.156 267.328 291.233 267.114C293.506 266.671 295.626 266.142 297.583 265.556C299.166 265.084 300.639 264.583 302 264.078Z" fill="white"/>
<path d="M289.252 264.044C289.62 265.191 290.046 266.318 290.531 267.42C290.718 267.85 290.922 268.286 291.136 268.723L291.158 268.764C291.17 268.794 291.185 268.823 291.2 268.852C291.365 269.183 291.535 269.513 291.705 269.824C291.875 270.135 292.05 270.459 292.23 270.768C292.962 272.037 293.774 273.259 294.661 274.426C292.976 273.942 291.232 273.696 289.478 273.697H289.238C287.518 273.719 285.809 273.979 284.16 274.47C284.332 274.227 284.502 273.984 284.668 273.741C285.416 272.641 286.1 271.499 286.717 270.32C286.96 269.868 287.186 269.396 287.41 268.92C287.534 268.653 287.653 268.373 287.782 268.093C288.351 266.775 288.838 265.422 289.24 264.044M289.216 261C288.748 263.331 288.033 265.607 287.084 267.787C286.967 268.055 286.841 268.324 286.719 268.597C286.501 269.068 286.272 269.525 286.044 269.965C285.441 271.117 284.772 272.233 284.04 273.308C283.37 274.296 282.646 275.247 281.872 276.157C282.086 276.057 282.327 275.948 282.601 275.838H282.626C284.73 274.966 286.982 274.501 289.26 274.47H289.503C292.135 274.473 294.735 275.054 297.119 276.171C295.505 274.4 294.086 272.461 292.884 270.388C292.712 270.089 292.541 269.781 292.371 269.467C292.201 269.153 292.038 268.835 291.885 268.507C291.863 268.465 291.844 268.422 291.822 268.38C291.613 267.952 291.418 267.53 291.236 267.114C290.368 265.145 289.692 263.098 289.216 261Z" fill="white"/>
</g>
<defs>
<clipPath id="clip0_544_72">
<rect width="446" height="344" fill="white"/>
</clipPath>
</defs>
</svg>
