<svg width="31" height="31" viewBox="0 0 31 31" fill="none" xmlns="http://www.w3.org/2000/svg">
<path d="M0 9.555C0 8.13249 0.605911 6.77731 1.66603 5.82879L6.7569 1.27379C7.67369 0.453514 8.86069 0 10.0909 0H26C28.7614 0 31 2.23858 31 5V22.04C31 23.3661 30.4732 24.6379 29.5355 25.5756L25.5756 29.5355C24.6379 30.4732 23.3661 31 22.04 31H5.00001C2.23858 31 0 28.7614 0 26V9.555Z" fill="url(#paint0_linear_543_483)"/>
<g clip-path="url(#clip0_543_483)">
<path d="M23.9172 13.9708C23.5081 13.8769 23.1023 13.7729 22.6898 13.6857C22.6457 13.678 22.6049 13.6573 22.5726 13.6262C22.5404 13.5952 22.5181 13.5551 22.5088 13.5113C22.3344 13.0486 22.1533 12.5925 21.9622 12.1365C21.9369 12.0963 21.9234 12.0498 21.9234 12.0023C21.9234 11.9549 21.9369 11.9084 21.9622 11.8682C22.3847 11.1975 22.8005 10.5269 23.2063 9.85621L21.268 7.91127C20.651 8.29355 19.9904 8.68254 19.3399 9.10841C19.2909 9.14337 19.2323 9.16216 19.1722 9.16216C19.1121 9.16216 19.0534 9.14337 19.0045 9.10841C18.5686 8.90721 18.1226 8.72949 17.6833 8.53499C17.623 8.50817 17.5425 8.44781 17.5291 8.3908C17.3413 7.61618 17.1602 6.84156 16.9791 6.06694C16.9758 6.04246 16.9758 6.01764 16.9791 5.99316H14.1958C14.1187 6.34862 14.0483 6.70407 13.9678 7.05617C13.8739 7.47199 13.77 7.88445 13.6794 8.30026C13.6723 8.345 13.6519 8.38655 13.6208 8.41946C13.5897 8.45237 13.5493 8.47511 13.5051 8.48469C13.049 8.65236 12.5963 8.82003 12.1637 9.02123C12.1181 9.05015 12.0652 9.0655 12.0111 9.0655C11.9571 9.0655 11.9042 9.05015 11.8586 9.02123C11.1879 8.60206 10.5172 8.18625 9.87004 7.78385C9.2195 8.45451 8.5723 9.08159 7.91505 9.73884C8.29062 10.3592 8.68296 10.9963 9.09878 11.6435C9.13344 11.6976 9.15187 11.7604 9.15187 11.8246C9.15187 11.8888 9.13344 11.9517 9.09878 12.0057C8.89758 12.4349 8.7232 12.8776 8.53206 13.3135C8.50524 13.3739 8.44488 13.4543 8.38787 13.4678C7.61325 13.6589 6.83863 13.8366 6.06401 14.0143C6.03953 14.0177 6.01471 14.0177 5.99023 14.0143V16.7976C6.35239 16.8747 6.71455 16.9452 7.07336 17.029C7.48247 17.1195 7.88822 17.2235 8.29733 17.314C8.34189 17.3215 8.38321 17.3421 8.41605 17.3732C8.44889 17.4042 8.47176 17.4443 8.48176 17.4884C8.65278 17.9478 8.83722 18.4072 9.02836 18.8599C9.05151 18.9021 9.06223 18.9501 9.05926 18.9981C9.05629 19.0462 9.03977 19.0925 9.01159 19.1315C8.58907 19.8022 8.1699 20.4729 7.7675 21.1435L9.7292 23.1019C10.316 22.7397 10.9398 22.3642 11.5467 21.9651C11.6236 21.9053 11.7172 21.8709 11.8146 21.8667C11.9119 21.8625 12.0082 21.8887 12.09 21.9416C12.4789 22.1395 12.8948 22.277 13.2938 22.458C13.3685 22.487 13.4303 22.5417 13.4682 22.6123C13.656 23.388 13.8382 24.1627 14.0148 24.9362C14.0181 24.9606 14.0181 24.9855 14.0148 25.0099H16.798C16.8584 24.7283 16.9154 24.4432 16.9791 24.1615C17.0898 23.6753 17.2071 23.1891 17.3144 22.6995C17.3222 22.6554 17.3429 22.6145 17.3739 22.5823C17.405 22.55 17.445 22.5278 17.4888 22.5184C17.9482 22.344 18.4076 22.163 18.8603 21.9718C18.9013 21.9469 18.9482 21.9338 18.9961 21.9338C19.044 21.9338 19.091 21.9469 19.132 21.9718C19.8026 22.3977 20.4733 22.8135 21.144 23.2192L23.1023 21.2676C22.7234 20.6539 22.3243 20 21.9152 19.3562C21.8799 19.3018 21.861 19.2383 21.861 19.1735C21.861 19.1086 21.8799 19.0451 21.9152 18.9907C22.1164 18.5615 22.2874 18.1188 22.4786 17.6862C22.5083 17.6192 22.5605 17.5647 22.6261 17.532C23.394 17.3442 24.162 17.1665 24.9332 16.9854C24.9633 16.982 24.9937 16.982 25.0238 16.9854V14.2021C24.6381 14.125 24.276 14.0479 23.9172 13.9708ZM15.4902 19.3562C14.7278 19.3542 13.9831 19.1263 13.3502 18.7012C12.7172 18.2761 12.2245 17.6729 11.9343 16.9679C11.6441 16.2629 11.5693 15.4876 11.7195 14.7402C11.8697 13.9927 12.2381 13.3065 12.7782 12.7683C13.3182 12.2301 14.0057 11.8641 14.7537 11.7165C15.5017 11.5689 16.2767 11.6463 16.9807 11.939C17.6847 12.2317 18.2861 12.7265 18.709 13.3609C19.1319 13.9953 19.3573 14.7408 19.3566 15.5032C19.354 16.5266 18.9453 17.5071 18.2204 18.2295C17.4955 18.9519 16.5136 19.3571 15.4902 19.3562Z" fill="white"/>
</g>
<defs>
<linearGradient id="paint0_linear_543_483" x1="29.0625" y1="-1.32518e-06" x2="2.325" y2="29.45" gradientUnits="userSpaceOnUse">
<stop stop-color="#D11216"/>
<stop offset="1" stop-color="#B02B2B"/>
</linearGradient>
<clipPath id="clip0_543_483">
<rect width="19" height="19" fill="white" transform="translate(6 6)"/>
</clipPath>
</defs>
</svg>
