<svg width="31" height="31" viewBox="0 0 31 31" fill="none" xmlns="http://www.w3.org/2000/svg">
<path d="M0 9.555C0 8.13249 0.605911 6.77731 1.66603 5.82879L6.7569 1.27379C7.67369 0.453514 8.86069 0 10.0909 0H26C28.7614 0 31 2.23858 31 5V22.04C31 23.3661 30.4732 24.6379 29.5355 25.5756L25.5756 29.5355C24.6379 30.4732 23.3661 31 22.04 31H5.00001C2.23858 31 0 28.7614 0 26V9.555Z" fill="url(#paint0_linear_543_468)"/>
<g clip-path="url(#clip0_543_468)">
<path d="M25 16.984V17.172C24.9593 17.2378 24.9185 17.3067 24.8715 17.3725C23.781 18.9708 22.6904 20.5679 21.5999 22.1641C21.2852 22.6527 20.8494 23.0516 20.3348 23.3218C19.8202 23.592 19.2444 23.7243 18.6635 23.7059H13.6495C13.4581 23.7048 13.2671 23.7226 13.0792 23.7592C12.6584 23.8518 12.2758 24.0705 11.9824 24.3859C11.7599 24.6053 11.5154 24.8027 11.2835 25.0127H6.36978L6 24.6303V23.4426C6.08414 23.3149 6.17734 23.1935 6.2789 23.0791C7.58673 21.7734 8.8956 20.4677 10.2055 19.1619C10.4717 18.8854 10.7925 18.6671 11.1474 18.5209C11.5023 18.3747 11.8838 18.3038 12.2675 18.3127C13.8689 18.3127 15.4702 18.3127 17.0684 18.3127C17.4194 18.3127 17.5228 18.4224 17.5103 18.7733C17.4912 19.1776 17.3421 19.565 17.0852 19.8778C16.8283 20.1905 16.4773 20.4121 16.0844 20.5094C15.9372 20.5533 15.7867 20.5847 15.5862 20.6379C16.589 20.6379 17.5354 20.6379 18.4849 20.6379C18.8583 20.638 19.2258 20.5449 19.5542 20.3671C19.8825 20.1892 20.1613 19.9323 20.3652 19.6195L22.0041 17.3067C22.1668 17.0486 22.3852 16.8302 22.6433 16.6675C22.9015 16.5048 23.1927 16.402 23.4958 16.3666C23.7425 16.3407 23.9919 16.3669 24.2278 16.4436C24.4637 16.5203 24.6809 16.6456 24.8652 16.8116C24.9162 16.8641 24.9614 16.9218 25 16.984Z" fill="white"/>
<path d="M16.8809 6.31338C16.5392 6.18617 16.1896 6.08148 15.8342 6L15.1291 6C15.1037 6.01448 15.0762 6.02504 15.0476 6.03134C14.2043 6.12876 13.4249 6.52884 12.8541 7.15732C12.2833 7.78581 11.96 8.60002 11.944 9.44885C11.928 10.2977 12.2205 11.1235 12.7672 11.773C13.3139 12.4225 14.0777 12.8517 14.9168 12.9808C15.7559 13.1099 16.6134 12.9301 17.33 12.475C18.0467 12.0198 18.5739 11.3201 18.8138 10.5057C19.0537 9.69137 18.99 8.81761 18.6345 8.04662C18.2791 7.27564 17.656 6.65979 16.8809 6.31338ZM17.1943 9.10869C16.6459 9.6477 16.0975 10.1836 15.5428 10.7132C15.492 10.7636 15.4317 10.8034 15.3653 10.8302C15.2989 10.8569 15.2278 10.8701 15.1562 10.8689C15.0847 10.8678 15.0141 10.8523 14.9486 10.8234C14.8831 10.7945 14.8241 10.7527 14.775 10.7006C14.4512 10.3873 14.1326 10.0676 13.8192 9.74171C13.717 9.63946 13.6596 9.50082 13.6596 9.35626C13.6596 9.2117 13.717 9.07306 13.8192 8.97081C13.9232 8.86709 14.0641 8.80884 14.2109 8.80884C14.3578 8.80884 14.4987 8.86709 14.6027 8.97081C14.6998 9.05855 14.7875 9.15256 14.8816 9.24344L15.1636 9.55682L16.3983 8.35972C16.4674 8.28018 16.5579 8.22222 16.659 8.19277C16.7602 8.16331 16.8677 8.16361 16.9686 8.19363C17.0675 8.22271 17.1558 8.28 17.2226 8.35848C17.2894 8.43697 17.3318 8.53324 17.3447 8.63549C17.3575 8.71901 17.3496 8.80438 17.3217 8.88414C17.2938 8.9639 17.2469 9.03562 17.1849 9.09302L17.1943 9.10869Z" fill="white"/>
<path d="M6 24.6304L6.36978 25.0002H6V24.6304Z" fill="white"/>
<path d="M15.2262 14.1069C15.2074 14.1696 15.1948 14.2228 15.1792 14.273C14.894 15.0972 14.6119 15.9182 14.3299 16.7424C14.2046 17.1028 13.9413 17.1749 13.6467 16.9336C13.3522 16.6923 13.1077 16.5011 12.8414 16.2786C12.7268 16.1745 12.5761 16.1194 12.4214 16.125C12.0203 16.125 11.6161 16.125 11.2149 16.125C11.1529 16.1298 11.0906 16.1183 11.0343 16.0919C10.9779 16.0654 10.9294 16.0248 10.8934 15.974C10.8574 15.9231 10.8352 15.8639 10.829 15.8019C10.8227 15.74 10.8326 15.6775 10.8577 15.6205C11.2087 14.5864 11.5659 13.5554 11.92 12.5212C11.92 12.4993 11.942 12.4805 11.9576 12.4429C12.3618 12.9266 12.8598 13.3235 13.4216 13.6095C13.9833 13.8955 14.5972 14.0647 15.2262 14.1069Z" fill="white"/>
<path d="M19.6942 16.1317C19.3087 16.1317 18.9264 16.1317 18.5441 16.1317C18.4169 16.1383 18.2942 16.1806 18.19 16.2539C17.8985 16.4733 17.6228 16.7114 17.3376 16.9402C17.0524 17.1689 16.7923 17.0969 16.6764 16.7584C16.3839 15.9228 16.0935 15.0871 15.8052 14.2514C15.8052 14.2138 15.7832 14.1699 15.7676 14.1167C16.3977 14.0756 17.0129 13.907 17.5759 13.6209C18.1388 13.3349 18.6377 12.9374 19.0424 12.4526L19.152 12.766C19.4717 13.6873 19.7934 14.616 20.1172 15.5519C20.2457 15.9248 20.1016 16.1317 19.6942 16.1317Z" fill="white"/>
</g>
<defs>
<linearGradient id="paint0_linear_543_468" x1="29.0625" y1="-1.32518e-06" x2="2.325" y2="29.45" gradientUnits="userSpaceOnUse">
<stop stop-color="#D11216"/>
<stop offset="1" stop-color="#B02B2B"/>
</linearGradient>
<clipPath id="clip0_543_468">
<rect width="19" height="19" fill="white" transform="translate(6 6)"/>
</clipPath>
</defs>
</svg>
