<svg width="10" height="8" viewBox="0 0 10 8" fill="none" xmlns="http://www.w3.org/2000/svg">
<g clip-path="url(#clip0_1110_80)">
<path d="M10.0002 2.10742V6.69449C10.0002 6.69449 9.99023 6.70444 9.98857 6.70941C9.85756 7.24009 9.53418 7.49051 8.99355 7.49051H0.913946C0.792164 7.48987 0.671724 7.46503 0.559629 7.41743C0.447534 7.36983 0.346022 7.30041 0.260995 7.21323C0.175968 7.12604 0.109123 7.02282 0.0643484 6.90956C0.0195734 6.79631 -0.00223836 6.67528 0.000181383 6.55352C0.000181383 5.09637 0.000181383 3.63921 0.000181383 2.18205C0.00157536 2.15704 0.0043435 2.13213 0.00847326 2.10742L0.0432991 2.12566C1.39322 3.03003 2.74369 3.92998 4.09471 4.8255C4.35571 5.02193 4.67352 5.12815 5.00018 5.12815C5.32684 5.12815 5.64465 5.02193 5.90565 4.8255L9.52754 2.41422L10.0002 2.10742Z" fill="#C6C6C6"/>
<path d="M10.0001 0.800995V1.05473C9.94864 1.30521 9.80175 1.52584 9.59053 1.66998C8.23398 2.57214 6.87743 3.4743 5.52088 4.37645C5.36861 4.48877 5.18438 4.54937 4.99517 4.54937C4.80596 4.54937 4.62173 4.48877 4.46947 4.37645C3.11513 3.4743 1.76189 2.57103 0.409766 1.66667C0.265841 1.58095 0.150864 1.45412 0.0796361 1.3025C0.00840822 1.15089 -0.0158106 0.98142 0.0100973 0.81592C0.0277646 0.637718 0.0985496 0.468931 0.213278 0.331434C0.328007 0.193937 0.481389 0.0940702 0.653547 0.0447761C0.708273 0.026534 0.764658 0.0149254 0.829334 0H9.18754C9.20469 0.0075689 9.22244 0.0136714 9.24061 0.0182421C9.40367 0.0465963 9.55591 0.118862 9.68098 0.227267C9.80604 0.335673 9.89918 0.476117 9.9504 0.633499C9.97195 0.688226 9.98356 0.74461 10.0001 0.800995Z" fill="#C6C6C6"/>
</g>
<defs>
<clipPath id="clip0_1110_80">
<rect width="10" height="7.49088" fill="white"/>
</clipPath>
</defs>
</svg>
