<svg width="15" height="12" viewBox="0 0 15 12" fill="none" xmlns="http://www.w3.org/2000/svg">
<g clip-path="url(#clip0_1115_1097)">
<path d="M15.0003 3.16113V10.0417C15.0003 10.0417 14.9853 10.0567 14.9829 10.0641C14.7863 10.8601 14.3013 11.2358 13.4903 11.2358H1.37092C1.18825 11.2348 1.00759 11.1975 0.839443 11.1261C0.671301 11.0547 0.519032 10.9506 0.391492 10.8198C0.263952 10.6891 0.163685 10.5342 0.0965225 10.3643C0.0293602 10.1945 -0.00335754 10.0129 0.000272075 9.83029C0.000272075 7.64455 0.000272075 5.45881 0.000272075 3.27307C0.00236304 3.23556 0.00651524 3.19819 0.0127099 3.16113L0.0649487 3.1885C2.08982 4.54505 4.11553 5.89496 6.14206 7.23825C6.53357 7.53289 7.01028 7.69223 7.50027 7.69223C7.99027 7.69223 8.46697 7.53289 8.85848 7.23825L14.2913 3.62133L15.0003 3.16113Z" fill="#C6C6C6"/>
<path d="M15.0002 1.20149V1.58209C14.923 1.95781 14.7026 2.28876 14.3858 2.50498C12.351 3.85821 10.3161 5.21144 8.28131 6.56468C8.05292 6.73316 7.77657 6.82406 7.49276 6.82406C7.20895 6.82406 6.9326 6.73316 6.7042 6.56468C4.67269 5.21144 2.64284 3.85655 0.614648 2.5C0.398761 2.37143 0.226296 2.18118 0.119454 1.95376C0.0126123 1.72633 -0.0237159 1.47213 0.015146 1.22388C0.0416469 0.956578 0.147824 0.703397 0.319917 0.497151C0.49201 0.290906 0.722084 0.141105 0.98032 0.0671642C1.06241 0.039801 1.14699 0.0223881 1.244 0H13.7813C13.807 0.0113533 13.8337 0.0205072 13.8609 0.0273632C14.1055 0.0698945 14.3339 0.178292 14.5215 0.340901C14.7091 0.503509 14.8488 0.714176 14.9256 0.950249C14.9579 1.03234 14.9753 1.11692 15.0002 1.20149Z" fill="#C6C6C6"/>
</g>
<defs>
<clipPath id="clip0_1115_1097">
<rect width="15" height="11.2363" fill="white"/>
</clipPath>
</defs>
</svg>
