<svg width="16" height="21" viewBox="0 0 16 21" fill="none" xmlns="http://www.w3.org/2000/svg">
<g clip-path="url(#clip0_278_44)">
<path d="M15.9587 6.94225C15.7617 5.33804 15.0672 3.83192 13.9691 2.62772C12.871 1.42352 11.4223 0.579372 9.81908 0.209516C9.4084 0.116846 8.97308 0.0684958 8.55008 0H7.46179C7.2277 0.0322333 6.99361 0.0523791 6.76363 0.0926708C5.68624 0.251022 4.65459 0.628962 3.73509 1.20216C2.81558 1.77536 2.02861 2.53111 1.42483 3.42076C-0.000226379 5.49175 -0.410904 7.73599 0.472053 10.1414C1.01048 11.5081 1.699 12.8132 2.52544 14.0336C4.04084 16.3584 5.81086 18.4939 7.45357 20.722C7.51265 20.8101 7.59312 20.8824 7.68774 20.9325C7.78236 20.9825 7.88817 21.0087 7.99567 21.0087C8.10316 21.0087 8.20898 20.9825 8.3036 20.9325C8.39822 20.8824 8.47868 20.8101 8.53776 20.722C9.85604 19.0056 11.1332 17.3254 12.394 15.5929C13.4713 14.1666 14.4013 12.6388 15.1702 11.0318C15.8148 9.76687 16.0878 8.35083 15.9587 6.94225ZM7.99156 11.4791C7.26054 11.4791 6.54594 11.2664 5.93812 10.868C5.3303 10.4695 4.85656 9.90315 4.57681 9.24054C4.29706 8.57793 4.22387 7.84882 4.36648 7.14539C4.5091 6.44197 4.86112 5.79584 5.37802 5.2887C5.89493 4.78156 6.55351 4.43619 7.27049 4.29627C7.98746 4.15635 8.73062 4.22816 9.406 4.50262C10.0814 4.77709 10.6586 5.24187 11.0648 5.8382C11.4709 6.43454 11.6877 7.13564 11.6877 7.85284C11.6877 8.81458 11.2983 9.73693 10.6051 10.417C9.91194 11.097 8.97183 11.4791 7.99156 11.4791Z" fill="#D5D5D5"/>
</g>
<defs>
<clipPath id="clip0_278_44">
<rect width="16" height="21" fill="white"/>
</clipPath>
</defs>
</svg>
