<svg width="66" height="76" viewBox="0 0 66 76" fill="none" xmlns="http://www.w3.org/2000/svg">
<g filter="url(#filter0_d_1260_7)">
<circle cx="32" cy="65" r="3" fill="white"/>
</g>
<g filter="url(#filter1_d_1260_7)">
<path d="M15.7176 40.4255C15.3584 40.0528 15.1577 39.5553 15.1577 39.0377L15.1577 29.0057C15.1577 28.4752 15.3684 27.9665 15.7435 27.5915L30.9203 12.4146C31.7014 11.6336 32.9677 11.6336 33.7487 12.4147L49.8978 28.5637C50.2729 28.9388 50.4836 29.4475 50.4836 29.9779L50.4836 39.0055C50.4836 39.5422 50.2679 40.0563 49.885 40.4324L33.775 56.2547C32.9817 57.0339 31.7051 57.0163 30.9335 56.2156L15.7176 40.4255Z" fill="white"/>
<path d="M16.0776 40.0785C15.8082 39.799 15.6577 39.4259 15.6577 39.0377L15.6577 29.0057C15.6577 28.6078 15.8158 28.2263 16.0971 27.945L31.2739 12.7682C31.8597 12.1824 32.8094 12.1824 33.3952 12.7682L49.5443 28.9173C49.8256 29.1986 49.9836 29.5801 49.9836 29.9779L49.9836 39.0055C49.9836 39.408 49.8218 39.7936 49.5347 40.0757L33.4247 55.898C32.8297 56.4823 31.8722 56.4692 31.2935 55.8686L16.0776 40.0785Z" stroke="#BF2D25"/>
</g>
<path d="M20.3842 38.9257C20.025 38.5529 19.8243 38.0555 19.8243 37.5379V30.5392C19.8243 30.0088 20.0351 29.5001 20.4101 29.125L31.1211 18.414C31.9022 17.633 33.1685 17.633 33.9495 18.414L45.38 29.8445C45.7551 30.2196 45.9658 30.7283 45.9658 31.2587V37.5057C45.9658 38.0424 45.7501 38.5565 45.3672 38.9326L33.9759 50.1205C33.1825 50.8997 31.9059 50.8821 31.1343 50.0814L20.3842 38.9257Z" fill="#D11216"/>
<defs>
<filter id="filter0_d_1260_7" x="23" y="56" width="18" height="18" filterUnits="userSpaceOnUse" color-interpolation-filters="sRGB">
<feFlood flood-opacity="0" result="BackgroundImageFix"/>
<feColorMatrix in="SourceAlpha" type="matrix" values="0 0 0 0 0 0 0 0 0 0 0 0 0 0 0 0 0 0 127 0" result="hardAlpha"/>
<feOffset/>
<feGaussianBlur stdDeviation="3"/>
<feComposite in2="hardAlpha" operator="out"/>
<feColorMatrix type="matrix" values="0 0 0 0 0 0 0 0 0 0 0 0 0 0 0 0 0 0 0.25 0"/>
<feBlend mode="normal" in2="BackgroundImageFix" result="effect1_dropShadow_1260_7"/>
<feBlend mode="normal" in="SourceGraphic" in2="effect1_dropShadow_1260_7" result="shape"/>
</filter>
<filter id="filter1_d_1260_7" x="0.158203" y="0.829102" width="65.3252" height="74.999" filterUnits="userSpaceOnUse" color-interpolation-filters="sRGB">
<feFlood flood-opacity="0" result="BackgroundImageFix"/>
<feColorMatrix in="SourceAlpha" type="matrix" values="0 0 0 0 0 0 0 0 0 0 0 0 0 0 0 0 0 0 127 0" result="hardAlpha"/>
<feOffset dy="4"/>
<feGaussianBlur stdDeviation="7.5"/>
<feComposite in2="hardAlpha" operator="out"/>
<feColorMatrix type="matrix" values="0 0 0 0 0.269445 0 0 0 0 0.269445 0 0 0 0 0.269445 0 0 0 0.15 0"/>
<feBlend mode="normal" in2="BackgroundImageFix" result="effect1_dropShadow_1260_7"/>
<feBlend mode="normal" in="SourceGraphic" in2="effect1_dropShadow_1260_7" result="shape"/>
</filter>
</defs>
</svg>
