<svg width="11" height="16" viewBox="0 0 11 16" fill="none" xmlns="http://www.w3.org/2000/svg">
<g clip-path="url(#clip0_1115_1086)">
<path d="M10.2074 5.76913C10.0814 4.65874 9.63714 3.61624 8.93474 2.78272C8.23234 1.94919 7.3057 1.3649 6.28023 1.10889C6.01755 1.04475 5.7391 1.01128 5.46853 0.963867H4.77242C4.62269 0.986178 4.47296 1.00012 4.32585 1.02801C3.63671 1.13762 2.97683 1.39922 2.38868 1.79597C1.80053 2.19273 1.29715 2.71584 0.910946 3.33164C-0.000571487 4.76513 -0.263257 6.31854 0.301517 7.98351C0.645915 8.92949 1.08632 9.83284 1.61494 10.6776C2.58425 12.2868 3.71642 13.7649 4.76717 15.3071C4.80495 15.3681 4.85642 15.4182 4.91694 15.4528C4.97747 15.4875 5.04515 15.5056 5.11391 15.5056C5.18267 15.5056 5.25035 15.4875 5.31087 15.4528C5.3714 15.4182 5.42287 15.3681 5.46065 15.3071C6.30387 14.1191 7.12082 12.9561 7.92727 11.7569C8.61634 10.7697 9.21119 9.71212 9.70302 8.59986C10.1153 7.72427 10.29 6.74412 10.2074 5.76913ZM5.11128 8.90942C4.64369 8.90942 4.18661 8.76222 3.79782 8.48641C3.40904 8.21061 3.10602 7.8186 2.92708 7.35996C2.74814 6.90131 2.70132 6.39664 2.79254 5.90974C2.88376 5.42285 3.10893 4.97561 3.43956 4.62458C3.7702 4.27355 4.19145 4.03449 4.65006 3.93765C5.10866 3.8408 5.58401 3.8905 6.01601 4.08048C6.44801 4.27046 6.81724 4.59217 7.07702 5.00494C7.33679 5.41771 7.47545 5.90299 7.47545 6.39942C7.47545 7.06511 7.22637 7.70355 6.783 8.17426C6.33963 8.64498 5.7383 8.90942 5.11128 8.90942Z" fill="#C6C6C6"/>
</g>
<defs>
<clipPath id="clip0_1115_1086">
<rect width="10.2342" height="14.5357" fill="white" transform="translate(0 0.963867)"/>
</clipPath>
</defs>
</svg>
