<svg width="33" height="40" viewBox="0 0 33 40" fill="none" xmlns="http://www.w3.org/2000/svg">
<g filter="url(#filter0_d_249_339)">
<path d="M4.78629 20.7043C4.41121 20.3292 4.2005 19.8205 4.2005 19.29L4.2005 12.5459C4.2005 12.0155 4.41121 11.5068 4.78629 11.1317L14.5035 1.41449C15.2845 0.633446 16.5509 0.633447 17.3319 1.4145L27.7123 11.7949C28.0874 12.17 28.2981 12.6787 28.2981 13.2091V19.2576C28.2981 19.8071 28.072 20.3325 27.6729 20.7102L17.3308 30.4982C16.5442 31.2427 15.3078 31.2257 14.5419 30.4598L4.78629 20.7043Z" fill="white"/>
</g>
<g clip-path="url(#clip0_249_339)">
<path d="M21.2058 15.2396C20.9534 15.1814 20.7053 15.1188 20.4529 15.0627C20.4259 15.0584 20.401 15.046 20.3813 15.0271C20.3616 15.0082 20.3482 14.9838 20.3428 14.957C20.235 14.6744 20.1271 14.3939 20.0063 14.1156C19.991 14.0906 19.983 14.0618 19.983 14.0325C19.983 14.0032 19.991 13.9745 20.0063 13.9495C20.2652 13.5374 20.5219 13.121 20.77 12.7219L19.5812 11.5245C19.2015 11.7596 18.7981 12.0056 18.4011 12.2602C18.3707 12.2803 18.3351 12.291 18.2986 12.291C18.2622 12.291 18.2265 12.2803 18.1961 12.2602C17.9286 12.135 17.6546 12.0272 17.3871 11.9063C17.3447 11.8902 17.31 11.8586 17.29 11.8179C17.1757 11.3432 17.0743 10.8686 16.9556 10.3939C16.9534 10.3789 16.9534 10.3637 16.9556 10.3486H15.249C15.2037 10.5644 15.1584 10.7801 15.1109 10.9959C15.0527 11.2505 14.988 11.505 14.9319 11.7596C14.9274 11.7867 14.915 11.8119 14.8961 11.8318C14.8773 11.8518 14.8529 11.8657 14.8262 11.8718C14.5478 11.9754 14.2695 12.0876 13.9955 12.2019C13.9677 12.2193 13.9356 12.2286 13.9028 12.2286C13.8699 12.2286 13.8378 12.2193 13.81 12.2019C13.4001 11.9409 12.988 11.6884 12.5953 11.4317L11.3914 12.6399C11.6266 13.0174 11.8704 13.4166 12.1228 13.8049C12.1436 13.8371 12.1547 13.8745 12.1547 13.9128C12.1547 13.9511 12.1436 13.9885 12.1228 14.0207C11.9999 14.2839 11.8941 14.5536 11.7776 14.8211C11.7696 14.8421 11.7574 14.8613 11.7418 14.8776C11.7263 14.8939 11.7076 14.907 11.687 14.916C11.2124 15.0325 10.7377 15.1318 10.2631 15.2526C10.248 15.2537 10.2329 15.2537 10.2178 15.2526V16.9592C10.4335 17.0066 10.6601 17.0498 10.8823 17.0994C11.1045 17.149 11.3807 17.2202 11.6331 17.2763C11.6599 17.2809 11.6847 17.2934 11.7043 17.3123C11.7239 17.3311 11.7375 17.3554 11.7431 17.382C11.851 17.6647 11.9589 17.9451 12.0797 18.2234C12.0949 18.2485 12.103 18.2772 12.103 18.3065C12.103 18.3358 12.0949 18.3645 12.0797 18.3896C11.8143 18.8146 11.5597 19.231 11.3116 19.6301L12.509 20.8297C12.8672 20.6139 13.249 20.3766 13.6223 20.1328C13.6689 20.0955 13.726 20.0737 13.7856 20.0706C13.8452 20.0675 13.9043 20.0832 13.9545 20.1156C14.194 20.2385 14.4486 20.3313 14.6945 20.4349C14.74 20.4517 14.7777 20.4847 14.8003 20.5276C14.9168 21.0023 15.016 21.4769 15.1368 21.9516C15.1379 21.9667 15.1379 21.9818 15.1368 21.9969H16.8434C16.8801 21.8243 16.9146 21.6495 16.9534 21.4769C17.0203 21.1792 17.0937 20.8815 17.1692 20.5816C17.1738 20.5548 17.1863 20.5299 17.2051 20.5103C17.224 20.4907 17.2483 20.4772 17.2749 20.4715C17.5575 20.3637 17.838 20.2558 18.1163 20.1371C18.1411 20.1212 18.1699 20.1127 18.1994 20.1127C18.2288 20.1127 18.2577 20.1212 18.2824 20.1371C18.6967 20.3982 19.1109 20.6528 19.51 20.9009L20.7096 19.7035C20.4766 19.3281 20.2306 18.9268 19.9804 18.532C19.959 18.5 19.9477 18.4625 19.9477 18.4241C19.9477 18.3857 19.959 18.3481 19.9804 18.3162C20.1034 18.053 20.2091 17.7833 20.3277 17.5179C20.3355 17.4971 20.3473 17.4779 20.3624 17.4616C20.3776 17.4453 20.3959 17.4322 20.4162 17.423C20.8865 17.3065 21.359 17.2073 21.8293 17.0864C21.848 17.0843 21.8668 17.0843 21.8854 17.0864V15.3799C21.6567 15.3324 21.4259 15.2893 21.2058 15.2396ZM16.0473 18.5514C15.5779 18.5514 15.1191 18.4122 14.7288 18.1514C14.3385 17.8906 14.0343 17.52 13.8547 17.0863C13.6751 16.6527 13.6281 16.1755 13.7197 15.7152C13.8112 15.2548 14.0373 14.8319 14.3692 14.5C14.7011 14.1681 15.1239 13.9421 15.5843 13.8505C16.0447 13.7589 16.5218 13.8059 16.9555 13.9856C17.3891 14.1652 17.7598 14.4694 18.0206 14.8597C18.2813 15.2499 18.4205 15.7088 18.4205 16.1781C18.4205 16.8076 18.1705 17.4112 17.7254 17.8563C17.2803 18.3013 16.6767 18.5514 16.0473 18.5514Z" fill="#D11216"/>
</g>
<defs>
<filter id="filter0_d_249_339" x="0.200195" y="0.828613" width="32.0977" height="38.2168" filterUnits="userSpaceOnUse" color-interpolation-filters="sRGB">
<feFlood flood-opacity="0" result="BackgroundImageFix"/>
<feColorMatrix in="SourceAlpha" type="matrix" values="0 0 0 0 0 0 0 0 0 0 0 0 0 0 0 0 0 0 127 0" result="hardAlpha"/>
<feOffset dy="4"/>
<feGaussianBlur stdDeviation="2"/>
<feComposite in2="hardAlpha" operator="out"/>
<feColorMatrix type="matrix" values="0 0 0 0 0 0 0 0 0 0 0 0 0 0 0 0 0 0 0.18 0"/>
<feBlend mode="normal" in2="BackgroundImageFix" result="effect1_dropShadow_249_339"/>
<feBlend mode="normal" in="SourceGraphic" in2="effect1_dropShadow_249_339" result="shape"/>
</filter>
<clipPath id="clip0_249_339">
<rect width="11.6461" height="11.6461" fill="white" transform="translate(10.2227 10.353)"/>
</clipPath>
</defs>
</svg>
