<svg width="8" height="11" viewBox="0 0 8 11" fill="none" xmlns="http://www.w3.org/2000/svg">
<g clip-path="url(#clip0_1107_214)">
<path d="M7.97911 3.63642C7.88063 2.79612 7.53336 2.0072 6.9843 1.37643C6.43524 0.745653 5.7109 0.303481 4.90929 0.109747C4.70395 0.0612049 4.4863 0.0358787 4.2748 0H3.73065C3.61361 0.0168841 3.49656 0.0274367 3.38157 0.0485418C2.84288 0.131488 2.32705 0.329456 1.8673 0.629702C1.40755 0.929948 1.01406 1.32582 0.712168 1.79183C-0.00035733 2.87663 -0.205696 4.05219 0.235782 5.31216C0.504996 6.02804 0.849256 6.71166 1.26248 7.35092C2.02018 8.56869 2.90519 9.68726 3.72654 10.8544C3.75608 10.9005 3.79631 10.9384 3.84362 10.9646C3.89093 10.9908 3.94384 11.0046 3.99759 11.0046C4.05134 11.0046 4.10424 10.9908 4.15156 10.9646C4.19887 10.9384 4.2391 10.9005 4.26864 10.8544C4.92777 9.9553 5.56638 9.07521 6.19677 8.16769C6.73541 7.42061 7.2004 6.6203 7.58486 5.77859C7.90716 5.11598 8.04367 4.37424 7.97911 3.63642ZM3.99554 6.01286C3.63003 6.01286 3.27272 5.90145 2.96881 5.69274C2.6649 5.48402 2.42804 5.18737 2.28816 4.84028C2.14829 4.4932 2.11169 4.11128 2.183 3.74283C2.2543 3.37437 2.43031 3.03591 2.68877 2.77027C2.94722 2.50462 3.27651 2.32372 3.635 2.25043C3.99349 2.17714 4.36507 2.21475 4.70275 2.35852C5.04044 2.50228 5.32907 2.74574 5.53213 3.05811C5.7352 3.37047 5.84359 3.73771 5.84359 4.11339C5.84359 4.61716 5.64888 5.1003 5.3023 5.45652C4.95573 5.81273 4.48567 6.01286 3.99554 6.01286Z" fill="#C6C6C6"/>
</g>
<defs>
<clipPath id="clip0_1107_214">
<rect width="8" height="11" fill="white"/>
</clipPath>
</defs>
</svg>
