<svg width="12" height="16" viewBox="0 0 12 16" fill="none" xmlns="http://www.w3.org/2000/svg">
<g clip-path="url(#clip0_227_477)">
<path d="M11.9696 5.28933C11.8219 4.06708 11.301 2.91956 10.4774 2.00207C9.65384 1.08459 8.56732 0.441426 7.36492 0.159632C7.05691 0.0890253 6.73042 0.0521873 6.41317 0H5.59695C5.42139 0.0245587 5.24582 0.0399079 5.07334 0.0706063C4.26529 0.191255 3.49155 0.479209 2.80192 0.915931C2.1123 1.35265 1.52207 1.92846 1.06923 2.60629C0.000440567 4.18419 -0.307568 5.89409 0.35465 7.72678C0.75847 8.76806 1.27486 9.76241 1.89469 10.6922C3.03124 12.4635 4.35876 14.0906 5.59079 15.7882C5.6351 15.8553 5.69545 15.9104 5.76641 15.9486C5.83738 15.9867 5.91674 16.0067 5.99736 16.0067C6.07798 16.0067 6.15734 15.9867 6.22831 15.9486C6.29927 15.9104 6.35962 15.8553 6.40393 15.7882C7.39264 14.4804 8.35054 13.2003 9.29613 11.8803C10.1041 10.7936 10.8016 9.62953 11.3783 8.40522C11.8617 7.44142 12.0665 6.36253 11.9696 5.28933ZM5.99428 8.74597C5.44602 8.74597 4.91006 8.58393 4.4542 8.28035C3.99833 7.97676 3.64303 7.54526 3.43322 7.04041C3.22341 6.53557 3.16851 5.98005 3.27547 5.44411C3.38243 4.90817 3.64645 4.41587 4.03413 4.02948C4.42181 3.64309 4.91575 3.37995 5.45348 3.27335C5.99121 3.16674 6.54858 3.22146 7.05511 3.43057C7.56164 3.63968 7.99458 3.99381 8.29918 4.44816C8.60378 4.90251 8.76635 5.43667 8.76635 5.98312C8.76635 6.71587 8.4743 7.41861 7.95443 7.93675C7.43457 8.45489 6.72948 8.74597 5.99428 8.74597Z" fill="#A6A6A6"/>
</g>
<defs>
<clipPath id="clip0_227_477">
<rect width="12" height="16" fill="white"/>
</clipPath>
</defs>
</svg>
