<svg class="history-path__line1" width="620" height="6672" viewBox="0 0 620 6672" fill="none" xmlns="http://www.w3.org/2000/svg">
    <g id="car">
        <rect x="573.727" y="15.309" width="19.0247" height="49.2481" rx="9.51233" transform="rotate(0.163569 573.727 15.309)" fill="black" />
        <path d="M572.445 44.6679L570.886 42.9323L570.885 42.3227L572.266 42.3155C572.266 42.3155 572.421 17.7127 573.011 16.6809C573.601 15.6492 574.324 12.6753 576.253 11.8982C578.182 11.1212 583.261 10.853 583.261 10.853C583.261 10.853 588.341 11.1005 590.274 11.8703C592.207 12.639 592.943 15.6097 593.537 16.6394C594.131 17.6691 594.393 42.2706 594.393 42.2706L595.675 42.2594L595.676 43.05L594.223 44.6243C594.223 44.6243 594.057 47.5806 594.007 48.6624C593.956 49.7453 594.7 55.7217 594.292 59.6912C593.883 63.6607 587.674 64.4464 587.624 65.1168C587.573 65.7871 583.38 65.7613 583.38 65.7613C583.38 65.7613 579.189 65.8042 579.135 65.134C579.081 64.4638 572.87 63.7036 572.443 59.7358C572.017 55.768 572.734 49.7874 572.68 48.7056C572.626 47.6229 572.444 44.6679 572.444 44.6679L572.445 44.6679ZM575.847 25.9696C575.273 25.6102 574.23 25.973 574.23 25.973L574.266 42.518C574.266 42.518 576.293 38.5451 576.185 37.0509C576.077 35.5568 576.422 26.3301 575.847 25.9707L575.847 25.9696ZM579.681 12.235C579.681 12.235 576.898 12.5154 576.152 12.8264C575.406 13.1374 574.435 15.6475 574.435 15.6475C574.435 15.6475 574.713 15.7848 574.957 15.6471C575.2 15.5094 575.892 13.7901 576.378 13.3418C576.864 12.8946 579.3 12.8551 579.682 12.6819C580.065 12.5097 579.682 12.235 579.682 12.235L579.681 12.235ZM575.216 22.7845L578.074 25.1155L588.998 25.0932L591.36 23.0267C591.36 23.0267 589.862 17.6919 583.277 17.6823C576.876 17.6735 575.217 22.7835 575.217 22.7835L575.216 22.7845ZM590.432 12.7972C589.684 12.4895 586.901 12.2199 586.901 12.2199C586.901 12.2199 586.518 12.4952 586.901 12.6667C587.284 12.8383 589.719 12.8676 590.208 13.313C590.696 13.7585 591.395 15.4756 591.639 15.6118C591.883 15.7491 592.161 15.6114 592.161 15.6114C592.161 15.6114 591.179 13.1049 590.432 12.7972ZM592.359 25.9366C592.359 25.9366 591.314 25.5775 590.741 25.9399C590.168 26.3013 590.553 35.5264 590.452 37.0217C590.351 38.5171 592.395 42.4815 592.395 42.4815L592.36 25.9366L592.359 25.9366ZM587.998 63.0712C591.65 62.3422 592.237 60.2793 592.237 60.2793C592.426 59.8747 592.34 59.7636 591.956 59.4899C591.573 59.2163 590.844 59.8356 589.315 60.6285C587.786 61.4224 587.997 63.0712 587.997 63.0712L587.998 63.0712ZM583.674 48.3911C588.579 48.4496 591.428 46.1765 591.428 46.1765C590.194 38.6547 589.604 39.2396 589.604 39.2396C585.64 40.45 577.01 39.1966 576.662 39.2656C576.314 39.3347 575.251 46.2093 575.251 46.2093C575.251 46.2093 578.769 48.3325 583.675 48.3911L583.674 48.3911ZM574.184 60.3157C574.184 60.3157 574.779 62.3756 578.435 63.0904C578.435 63.0904 578.64 61.4412 577.107 60.6529C575.574 59.8656 574.842 59.2485 574.46 59.5249C574.078 59.8002 573.993 59.9125 574.184 60.3157Z" fill="#198DE0" />
    </g>
    <path id="car-path" d="M592.499 6670.5C473.999 6586 109.499 6578 64.4994 6489.5C10.7896 6383.87 103.999 6289.5 210.999 6154.5C301.137 6040.77 338.999 6018 348.499 5892C357.999 5766 31.1145 5946.13 20.4994 5814.5C12.7109 5717.92 133.506 5705.54 167.999 5615C202.211 5525.2 166.377 5462.89 190.999 5370C224.028 5245.39 412.623 5172 358.499 5055C304.178 4937.57 158.5 5056.5 83.9995 4993C24.3995 4942.2 117.161 4883.41 125 4799C134.369 4698.11 63.7208 4622.96 190.999 4532.5C433 4360.5 286.304 4226.01 254.999 4207C198.999 4173 -21.972 4101.19 3.99956 3896.5C19.9283 3770.96 138.499 3675 185.499 3574C232.672 3472.63 -10.1199 3456.26 32.9995 3260C60.7757 3133.58 149.702 3038.41 190.999 3001.5C247.499 2951 308.499 2876 329.999 2824C351.499 2772 337.377 2710.94 313.499 2681.5C276.999 2636.5 251.805 2606.74 137.499 2432C15.4993 2245.5 344 2236.5 344 2080C344 2020 354.601 1955.24 412.5 1939.5C463.999 1925.5 476.5 1868.5 463.999 1791.5C447.114 1687.49 -85.866 1696 62.9991 1461.5C147.713 1328.05 285.499 1262.5 294.499 1181C315.848 987.675 -2.65055 932.5 92.9991 831.5C156.14 772.5 475.559 684.093 426.506 575.5C398.499 513.5 270.499 566 194.999 467.5C179.166 436 154.5 358.7 182.5 301.5C217.5 230 266 171 442.5 177.5C583.7 182.7 592 78.3333 578.5 25.5" stroke="white" stroke-opacity="0.12" stroke-width="2" stroke-linecap="round" stroke-dasharray="6 6" />
</svg>