<svg width="14" height="13" viewBox="0 0 14 13" fill="none" xmlns="http://www.w3.org/2000/svg">
<path d="M13.7358 10.8931C13.3963 11.5277 13.0034 12.1335 12.5613 12.7042C12.4747 12.8203 12.3551 12.9087 12.2175 12.9584C12.0799 13.0082 11.9303 13.017 11.7876 12.9839C9.65675 12.5891 7.65857 11.6838 5.97113 10.3484C3.92947 8.81395 2.32822 6.78702 1.32352 4.46524C0.981458 3.669 0.731334 2.83774 0.577819 1.98697C0.577819 1.93396 0.564769 1.88096 0.561041 1.84624C0.556767 1.73307 0.580274 1.62055 0.629585 1.51814C0.678896 1.41573 0.752569 1.32643 0.844409 1.25774C1.44205 0.807305 2.07969 0.410335 2.74969 0.0715988C2.85415 0.0210251 2.96975 -0.00343762 3.0862 0.000388861C3.20264 0.00421534 3.31631 0.0362123 3.41709 0.0935304C3.96144 0.349609 4.44664 0.712084 4.84289 1.15869C5.23914 1.6053 5.53807 2.12661 5.72132 2.69061C5.76606 2.8222 5.80148 2.95561 5.84436 3.0872C5.89086 3.21827 5.90016 3.35926 5.87127 3.49511C5.84237 3.63095 5.77637 3.75655 5.68031 3.85847C5.36338 4.224 5.05205 4.60963 4.74817 4.98612C4.62813 5.11017 4.55624 5.27154 4.545 5.44217C4.53376 5.6128 4.58388 5.7819 4.68665 5.92005C5.47068 7.15717 6.53388 8.20136 7.79438 8.9722C7.9329 9.06847 8.10079 9.1155 8.27028 9.10553C8.43977 9.09556 8.60072 9.02919 8.72651 8.91737C9.12173 8.60546 9.51571 8.28988 9.90845 7.97066C10.0038 7.88739 10.1191 7.82901 10.2435 7.8009C10.368 7.77279 10.4977 7.77586 10.6206 7.80983C11.6366 8.06569 12.5222 8.54088 13.1784 9.35966C13.3855 9.63952 13.5724 9.93327 13.7376 10.2388C13.7959 10.3384 13.8265 10.4513 13.8261 10.5662C13.8258 10.681 13.7946 10.7937 13.7358 10.8931Z" fill="#A6A6A6"/>
</svg>
