<svg width="18" height="18" viewBox="0 0 18 18" fill="none" xmlns="http://www.w3.org/2000/svg">
<g clip-path="url(#clip0_278_21)">
<path d="M18 12.3064V17.0874C17.9549 17.3088 17.8472 17.5125 17.6895 17.6743C17.5319 17.8361 17.331 17.9492 17.1109 18H16.5942C16.5372 18 16.4801 17.9765 16.4231 17.9698C15.0903 17.8842 13.7725 17.6398 12.4977 17.2418C8.99426 16.1767 5.91369 14.0385 3.69059 11.1288C1.69699 8.58733 0.453558 5.53917 0.100652 2.32842C0.0637465 2.01305 0.0335508 1.71445 0 1.40578V0.879031C0.04935 0.644547 0.177163 0.433893 0.362349 0.281827C0.539405 0.175963 0.72321 0.0818186 0.912582 0L5.70363 0C5.86245 0.0667961 6.01609 0.145297 6.16328 0.234856C6.3023 0.352035 6.41442 0.497808 6.492 0.662239C6.56959 0.82667 6.61081 1.00589 6.61286 1.1877C6.78397 2.4123 6.94837 3.63355 7.13625 4.8548C7.1771 5.06223 7.16399 5.27667 7.0982 5.47758C7.0324 5.6785 6.91612 5.85915 6.76048 6.00224C6.22367 6.51892 5.70363 7.05238 5.18024 7.57912C5.135 7.60998 5.09691 7.65019 5.06855 7.69704C5.04019 7.74389 5.02222 7.79629 5.01586 7.85068C5.00949 7.90507 5.01489 7.9602 5.03167 8.01233C5.04845 8.06446 5.07624 8.11238 5.11314 8.15284C6.30555 10.0761 7.92555 11.6984 9.84716 12.8936C9.88815 12.93 9.93639 12.9574 9.98871 12.9739C10.041 12.9904 10.0962 12.9957 10.1507 12.9893C10.2052 12.983 10.2578 12.9652 10.3049 12.9371C10.352 12.9091 10.3927 12.8714 10.4242 12.8265C10.951 12.3031 11.4844 11.783 12.0011 11.2462C12.1437 11.0909 12.3238 10.9747 12.5241 10.9089C12.7244 10.8431 12.9383 10.8299 13.1452 10.8705C14.4369 11.0617 15.7286 11.2429 17.0203 11.4274C17.2378 11.4483 17.4439 11.5345 17.6115 11.6746C17.7792 11.8147 17.9005 12.0022 17.9597 12.2125C17.9711 12.2446 17.9846 12.276 18 12.3064Z" fill="#D5D5D5"/>
</g>
<defs>
<clipPath id="clip0_278_21">
<rect width="18" height="18" fill="white"/>
</clipPath>
</defs>
</svg>
