<svg width="16" height="15" viewBox="0 0 16 15" fill="none" xmlns="http://www.w3.org/2000/svg">
<path d="M15.198 12.5655C14.8064 13.2975 14.3532 13.9964 13.8432 14.6547C13.7433 14.7886 13.6054 14.8906 13.4466 14.9479C13.2879 15.0053 13.1154 15.0155 12.9508 14.9773C10.4927 14.5219 8.18779 13.4776 6.24127 11.9372C3.88615 10.1672 2.03907 7.82904 0.880117 5.15079C0.485534 4.2323 0.197009 3.27341 0.0199242 2.29202C0.0199242 2.23089 0.00487079 2.16975 0.000569821 2.12969C-0.00435995 1.99915 0.0227561 1.86935 0.0796378 1.75122C0.136519 1.63309 0.221503 1.53007 0.327443 1.45084C1.01684 0.93125 1.75238 0.473334 2.52524 0.0825913C2.64574 0.0242531 2.77909 -0.00396539 2.91341 0.000448563C3.04774 0.00486252 3.17886 0.0417719 3.29511 0.10789C3.92303 0.403284 4.48272 0.821411 4.93981 1.33659C5.39689 1.85176 5.74172 2.45311 5.95311 3.1037C6.00472 3.25549 6.04558 3.40939 6.09504 3.56118C6.14868 3.71237 6.15941 3.87501 6.12608 4.03171C6.09274 4.18841 6.0166 4.33329 5.9058 4.45086C5.54021 4.87251 5.18108 5.31735 4.83055 5.75164C4.69208 5.89473 4.60915 6.08088 4.59619 6.2777C4.58322 6.47453 4.64104 6.66959 4.75959 6.82895C5.66398 8.25601 6.89042 9.46052 8.34444 10.3497C8.50423 10.4608 8.6979 10.515 8.89341 10.5035C9.08893 10.492 9.27458 10.4154 9.41968 10.2865C9.87559 9.92665 10.3301 9.56263 10.7831 9.19439C10.8931 9.09834 11.026 9.031 11.1696 8.99857C11.3132 8.96615 11.4628 8.96969 11.6046 9.00887C12.7766 9.30402 13.7981 9.85216 14.555 10.7967C14.794 11.1195 15.0096 11.4583 15.2002 11.8107C15.2674 11.9256 15.3026 12.0559 15.3023 12.1884C15.3019 12.3209 15.2659 12.4509 15.198 12.5655Z" fill="#C6C6C6"/>
</svg>
