<svg width="11" height="10" viewBox="0 0 11 10" fill="none" xmlns="http://www.w3.org/2000/svg">
<path d="M10.132 8.37698C9.87091 8.86503 9.5688 9.33092 9.22882 9.76982C9.16221 9.85905 9.07024 9.92704 8.96441 9.96529C8.85858 10.0035 8.7436 10.0103 8.63385 9.98486C6.99516 9.68129 5.45852 8.98504 4.16085 7.95814C2.59077 6.77811 1.35938 5.21936 0.586745 3.43386C0.323689 2.82153 0.131339 2.18228 0.0132828 1.52802C0.0132828 1.48726 0.00324719 1.4465 0.000379881 1.41979C-0.00290664 1.33276 0.0151708 1.24623 0.0530918 1.16748C0.0910129 1.08873 0.147669 1.02005 0.218295 0.967225C0.677892 0.620834 1.16826 0.315556 1.68349 0.0550609C1.76383 0.0161687 1.85273 -0.0026436 1.94228 0.000299042C2.03182 0.00324168 2.11924 0.027848 2.19674 0.0719268C2.61535 0.268856 2.98848 0.547607 3.29321 0.891058C3.59793 1.23451 3.82781 1.63541 3.96874 2.06913C4.00315 2.17033 4.03038 2.27293 4.06336 2.37412C4.09912 2.47491 4.10627 2.58334 4.08405 2.68781C4.06183 2.79227 4.01107 2.88886 3.9372 2.96724C3.69348 3.24834 3.45406 3.5449 3.22037 3.83443C3.12805 3.92982 3.07277 4.05392 3.06412 4.18514C3.05548 4.31636 3.09403 4.44639 3.17306 4.55263C3.77599 5.504 4.59361 6.30701 5.56296 6.8998C5.66949 6.97383 5.7986 7.01001 5.92894 7.00234C6.05928 6.99467 6.18305 6.94363 6.27979 6.85764C6.58372 6.61777 6.8867 6.37509 7.18873 6.1296C7.26208 6.06556 7.3507 6.02066 7.44641 5.99905C7.54212 5.97743 7.64185 5.97979 7.73638 6.00591C8.51772 6.20268 9.19871 6.56811 9.70336 7.19777C9.86267 7.41298 10.0064 7.63888 10.1335 7.87381C10.1783 7.95042 10.2018 8.03726 10.2015 8.12558C10.2012 8.21391 10.1773 8.30061 10.132 8.37698Z" fill="#C6C6C6"/>
</svg>
