<svg width="508" height="356" viewBox="0 0 508 356" fill="none" xmlns="http://www.w3.org/2000/svg">
<path d="M506.362 308.894C507.095 308.07 507.5 307.006 507.5 305.903L507.5 35.2603C507.5 33.9671 506.944 32.7365 505.973 31.8821L471.586 1.62177C470.765 0.898775 469.708 0.499971 468.613 0.499972L40.0634 0.499994C38.8551 0.499994 37.6975 0.985987 36.8512 1.8485L1.78777 37.5874C0.96236 38.4287 0.499958 39.5602 0.499958 40.7389L0.499969 351C0.499969 353.485 2.51471 355.5 4.99997 355.5L462.886 355.5C464.171 355.5 465.395 354.951 466.249 353.991L506.362 308.894Z" stroke="#454242"/>
</svg>
