<svg width="1200" height="271" viewBox="0 0 1200 271" fill="none" xmlns="http://www.w3.org/2000/svg">
<path d="M0 9C0 4.02944 4.02944 0 9 0H407.055C408.012 0 408.963 0.152755 409.873 0.452504L452.627 14.5475C453.537 14.8472 454.488 15 455.445 15H751.222C752.07 15 752.913 14.8802 753.728 14.6442L803.022 0.355802C803.837 0.119784 804.68 0 805.528 0H1191C1195.97 0 1200 4.02944 1200 9V262C1200 266.971 1195.97 271 1191 271H8.99999C4.02943 271 0 266.971 0 262V9Z" fill="url(#paint0_linear_544_187)"/>
<g clip-path="url(#clip0_544_187)">
<path d="M258.928 206.123C243.319 213.057 195.704 234.258 136.417 228.398C127.676 227.508 118.991 226.137 110.402 224.29C123.678 220.823 133.434 219.532 144.559 218.076C162.656 215.922 180.578 212.496 198.192 207.822C216.403 203.098 238.454 192.446 248.487 183.553C259.855 173.092 264.694 162.925 262.474 154.136C259.448 142.114 247.871 134.409 239.009 129.919C244.732 122.006 246.987 114.994 245.712 109.031C243.917 100.667 240.509 93.3513 214.356 81.7369L214.243 81.6936C213.567 81.4336 212.882 81.1996 212.197 80.9482C212.251 78.0832 211.741 75.2355 210.697 72.5668C206.222 61.1865 191.567 52.0337 180.008 47.4313C166.949 42.2308 151.011 39.8126 138.48 39.0326C108.225 37.1431 86.2345 45.6891 74.4152 50.3002C66.4287 53.3858 56.9334 59.7044 53.2307 62.2786C53.0164 62.426 52.8646 62.6477 52.8047 62.9007C52.7447 63.1536 52.7809 63.4198 52.9062 63.6477C53.0315 63.8755 53.237 64.0486 53.4828 64.1336C53.7286 64.2185 53.9972 64.2092 54.2366 64.1074C75.0482 55.3013 96.5015 51.895 104.757 50.8462C122.006 48.8984 139.442 49.3447 156.569 52.1724C158.624 52.5191 170.92 55.102 176.514 57.1995C186.677 61.0131 192.885 65.7976 194.724 73.2689C194.903 74.0274 194.996 74.8037 195.001 75.5831C175.924 70.66 155.112 68.4931 130.884 68.8572C69.1602 69.7672 32.5491 92.1898 14.9546 102.963L14.5297 103.223C14.1193 103.475 13.7768 103.823 13.5325 104.238L8.87588 112.22C8.75591 112.424 8.7082 112.662 8.74048 112.896C8.77276 113.13 8.88313 113.346 9.05372 113.51C9.22432 113.673 9.44514 113.774 9.68041 113.797C9.91569 113.819 10.1516 113.761 10.35 113.633C35.0465 97.8323 78.0919 85.5679 117.513 83.0544C143.024 81.4336 169.021 83.2191 189.573 87.3881C186.174 91.066 182.203 94.1713 177.814 96.5842C164.087 101.369 148.505 104.272 133.434 107.072C125.274 108.589 117.573 110.027 110.281 111.718C37.4398 125.204 -8.207 148.693 -5.91772 171.523C-4.97252 180.91 2.2335 189.118 6.35247 192.489L6.48255 192.68C3.32787 196.586 1.23689 201.241 0.412487 206.192C-2.70926 225.503 11.8155 239.579 26.93 249.053C26.7866 250.372 26.7866 251.703 26.93 253.023C27.3029 256.802 31.0923 266.795 42.7208 277.621C57.0461 290.96 77.9532 301.759 105.338 307.047C112.137 308.411 119.05 309.128 125.985 309.187C131.087 309.166 136.184 308.877 141.255 308.321C183.208 303.918 207.358 283.983 207.601 283.775C207.781 283.624 207.904 283.417 207.951 283.187C207.999 282.957 207.967 282.718 207.861 282.509C207.735 282.263 207.517 282.076 207.254 281.988C206.992 281.901 206.705 281.92 206.456 282.041C204.956 282.76 169.073 299.653 122.403 296.602C104.336 295.252 86.7431 290.183 70.7298 281.712C58.3382 274.968 49.9702 267.168 46.3628 259.176C49.5453 260.589 52.2421 261.716 54.1672 262.557C84.3527 275.827 113.48 276.78 134.431 276.78C145.444 276.78 154.375 276.061 160.497 275.575C162.691 275.402 164.417 275.263 165.7 275.202C181.101 274.466 220.487 263.701 238.159 254.106C238.233 254.066 238.302 254.019 238.367 253.967C239.183 253.213 243.57 246.626 243.57 246.167C243.572 246.043 243.551 245.919 243.51 245.803C243.462 245.673 243.388 245.555 243.294 245.454C243.2 245.353 243.087 245.271 242.961 245.214C242.835 245.157 242.7 245.125 242.562 245.121C242.424 245.116 242.286 245.139 242.157 245.187C198.14 261.655 174.129 262.609 163.879 263.285C163.879 263.285 107.809 265.781 60.4194 247.215C56.5779 245.716 52.5196 244.112 48.4787 242.396C53.4995 238.063 62.5699 235.246 72.967 232.862C90.839 238.063 113.68 241.426 145.999 243.038C148.739 243.176 151.444 243.237 154.141 243.237C202.988 243.237 245.391 221.828 257.714 214.955C257.935 214.835 258.105 214.637 258.191 214.401C259.24 211.514 260.272 207.467 260.315 207.311C260.362 207.12 260.355 206.921 260.295 206.734C260.235 206.548 260.123 206.382 259.973 206.256C259.823 206.13 259.641 206.048 259.447 206.02C259.253 205.992 259.055 206.018 258.876 206.097L258.928 206.123ZM244.429 152.749C244.441 152.784 244.459 152.816 244.481 152.844C245.422 154.218 245.996 155.81 246.147 157.468C246.299 159.127 246.024 160.796 245.348 162.318C239.529 175.926 204.592 187.93 173.825 194.63C156.083 198.27 131.612 202.751 121.918 204.502C120.721 204.728 119.438 204.953 118.059 205.187C112.318 206.201 105.164 207.458 95.9986 209.521C89.2608 211.046 82.5404 212.754 75.9067 214.609C68.5446 212.008 61.3385 209.174 54.462 206.054C46.1657 202.416 38.2722 197.922 30.9102 192.645C43.6226 185.711 63.5845 182.504 84.0666 177.824C86.3819 177.295 88.2376 177.001 89.4429 176.723C109.639 172.233 129.28 168.602 145.062 165.69C159.205 163.089 170.383 161.001 177.242 159.224H177.355C179.852 158.747 213.107 152.333 228.837 140.918C236.312 144.645 242.53 148.753 244.429 152.749ZM197.932 102.677C201.248 100.201 204.32 97.415 207.107 94.3567C207.631 93.7697 208.117 93.1502 208.564 92.5019C215.77 95.0501 221.475 98.023 225.143 101.308C228.005 103.908 229.523 106.56 229.644 109.291C229.913 115.211 228.655 119.882 225.308 123.791C215.816 119.764 206.076 116.351 196.146 113.572C192.348 112.506 188.48 111.536 184.621 110.66C189.334 108.487 193.797 105.811 197.932 102.677ZM146.822 120.29C152.71 120.463 159.361 120.879 166.645 121.78C178.283 123.211 188.029 125.152 193.397 127.102C194.264 127.423 195.574 127.865 197.212 128.428C200.378 129.503 205.017 131.029 210.09 132.979C203.945 135.146 197.669 136.921 191.299 138.292C173.21 142.4 155.598 145.538 138.567 148.571C111.911 153.321 86.6594 157.811 60.7489 165.62C42.8278 170 28.8319 175.429 18.7614 181.906C17.8943 180.996 17.1225 180.173 16.4288 179.479C14.3303 177.382 10.9137 171.211 10.8356 168.298C10.324 150.574 86.8415 134.86 146.822 120.29ZM34.2921 235.462C24.7534 229.924 17.504 223.146 17.1225 214.418C16.8853 210.783 17.5745 207.148 19.1256 203.852C29.358 211.93 39.0701 218.76 50.6292 224.385C44.9581 227.246 38.8793 230.912 34.2921 235.462Z" fill="white" fill-opacity="0.1"/>
</g>
<defs>
<linearGradient id="paint0_linear_544_187" x1="-200" y1="-197.736" x2="898.5" y2="434.764" gradientUnits="userSpaceOnUse">
<stop stop-color="#D11216"/>
<stop offset="1" stop-color="#494949"/>
</linearGradient>
<clipPath id="clip0_544_187">
<rect width="273" height="233" fill="white" transform="translate(0 36.7642)"/>
</clipPath>
</defs>
</svg>
