<svg width="390" height="488" viewBox="0 0 390 488" fill="none" xmlns="http://www.w3.org/2000/svg">
<path d="M0 9C0 4.02944 4.02944 0 9 0H131.314C132.273 0 133.227 0.153434 134.138 0.45449L146.175 4.43205C147.086 4.73311 148.039 4.88654 148.999 4.88654H243.282C244.131 4.88654 244.977 4.76622 245.793 4.52915L260.151 0.357391C260.967 0.120325 261.812 0 262.662 0H381C385.971 0 390 4.02944 390 9V470.5C390 475.471 385.971 479.5 381 479.5H9.00001C4.02945 479.5 0 475.471 0 470.5V9Z" fill="url(#paint0_linear_7_3)"/>
<g clip-path="url(#clip0_7_3)">
<path d="M220.475 431.461C206.581 437.621 164.199 456.456 111.426 451.25C103.646 450.459 95.9162 449.241 88.2707 447.6C100.088 444.52 108.771 443.373 118.674 442.079C134.782 440.166 150.735 437.122 166.414 432.97C182.623 428.773 202.251 419.31 211.182 411.409C221.301 402.115 225.608 393.083 223.632 385.275C220.938 374.594 210.634 367.749 202.745 363.76C207.84 356.73 209.846 350.5 208.712 345.202C207.114 337.772 204.081 331.273 180.801 320.954L180.701 320.916C180.099 320.685 179.489 320.477 178.879 320.254C178.927 317.708 178.473 315.178 177.544 312.808C173.561 302.697 160.517 294.566 150.228 290.477C138.604 285.857 124.417 283.708 113.264 283.015C86.3333 281.337 66.759 288.929 56.2385 293.026C49.1297 295.767 40.6778 301.38 37.382 303.667C37.1913 303.798 37.0561 303.995 37.0028 304.22C36.9494 304.445 36.9816 304.681 37.0932 304.884C37.2047 305.086 37.3876 305.24 37.6064 305.315C37.8252 305.391 38.0643 305.383 38.2773 305.292C56.802 297.469 75.8978 294.442 83.2459 293.511C98.5997 291.78 114.12 292.177 129.365 294.689C131.194 294.997 142.139 297.292 147.117 299.155C156.163 302.543 161.69 306.794 163.326 313.431C163.486 314.105 163.569 314.795 163.573 315.487C146.592 311.113 128.068 309.188 106.502 309.512C51.561 310.32 18.9731 330.241 3.31207 339.812L2.93386 340.043C2.5685 340.267 2.26369 340.576 2.04622 340.944L-2.09867 348.036C-2.20546 348.217 -2.24793 348.428 -2.2192 348.636C-2.19047 348.844 -2.09222 349.036 -1.94038 349.182C-1.78853 349.327 -1.59198 349.417 -1.38256 349.437C-1.17313 349.457 -0.963113 349.405 -0.786511 349.291C21.1961 335.254 59.5112 324.358 94.6 322.125C117.308 320.685 140.448 322.271 158.742 325.975C155.716 329.242 152.182 332.001 148.275 334.145C136.057 338.395 122.186 340.975 108.771 343.462C101.508 344.81 94.654 346.088 88.1626 347.59C23.3264 359.571 -17.3043 380.439 -15.2666 400.721C-14.4253 409.061 -8.01112 416.353 -4.34478 419.348L-4.22901 419.517C-7.03701 422.988 -8.89822 427.123 -9.63203 431.522C-12.4107 448.678 0.517935 461.183 13.9715 469.6C13.8439 470.772 13.8439 471.954 13.9715 473.127C14.3034 476.484 17.6764 485.362 28.027 494.98C40.7782 506.831 59.3877 516.425 83.763 521.122C89.815 522.334 95.9685 522.971 102.141 523.024C106.682 523.005 111.219 522.748 115.733 522.254C153.076 518.342 174.572 500.632 174.788 500.447C174.948 500.313 175.058 500.129 175.1 499.925C175.142 499.721 175.114 499.509 175.02 499.323C174.908 499.104 174.714 498.938 174.48 498.86C174.246 498.783 173.991 498.799 173.77 498.907C172.434 499.546 140.495 514.554 98.9532 511.843C82.8713 510.644 67.2117 506.14 52.9581 498.614C41.9282 492.624 34.4798 485.693 31.2688 478.594C34.1016 479.849 36.502 480.85 38.2156 481.597C65.084 493.386 91.0108 494.233 109.659 494.233C119.462 494.233 127.412 493.594 132.861 493.163C134.814 493.009 136.35 492.885 137.492 492.831C151.2 492.177 186.258 482.613 201.989 474.089C202.054 474.053 202.116 474.012 202.174 473.966C202.9 473.296 206.805 467.444 206.805 467.036C206.807 466.926 206.788 466.816 206.751 466.712C206.708 466.597 206.643 466.492 206.559 466.402C206.475 466.313 206.375 466.24 206.263 466.19C206.151 466.139 206.03 466.111 205.907 466.106C205.785 466.102 205.662 466.122 205.547 466.166C166.368 480.796 144.995 481.643 135.871 482.244C135.871 482.244 85.9628 484.461 43.7807 467.967C40.3614 466.635 36.749 465.211 33.1522 463.686C37.6212 459.836 45.6949 457.333 54.9495 455.216C70.8575 459.836 91.1883 462.824 119.956 464.256C122.395 464.379 124.803 464.433 127.203 464.433C170.682 464.433 208.426 445.413 219.394 439.307C219.591 439.2 219.742 439.025 219.819 438.814C220.753 436.25 221.671 432.654 221.71 432.516C221.752 432.347 221.746 432.169 221.692 432.004C221.638 431.838 221.539 431.691 221.406 431.579C221.272 431.466 221.11 431.394 220.937 431.369C220.765 431.344 220.588 431.368 220.429 431.437L220.475 431.461ZM207.569 384.042C207.58 384.073 207.596 384.102 207.616 384.127C208.453 385.348 208.964 386.762 209.099 388.235C209.234 389.708 208.989 391.191 208.388 392.544C203.208 404.633 172.11 415.298 144.725 421.25C128.932 424.484 107.15 428.465 98.521 430.021C97.4558 430.221 96.3135 430.421 95.0862 430.629C89.9765 431.53 83.6087 432.646 75.4501 434.479C69.4528 435.834 63.4708 437.351 57.5661 438.999C51.013 436.689 44.5989 434.171 38.478 431.399C31.0933 428.167 24.0673 424.175 17.5143 419.487C28.8298 413.326 46.598 410.477 64.8293 406.319C66.8902 405.85 68.5419 405.588 69.6148 405.341C87.5915 401.353 105.074 398.126 119.122 395.539C131.711 393.229 141.66 391.373 147.766 389.795H147.866C150.089 389.371 179.69 383.673 193.691 373.532C200.345 376.843 205.879 380.493 207.569 384.042ZM166.182 339.558C169.133 337.358 171.868 334.883 174.349 332.166C174.815 331.644 175.248 331.094 175.645 330.518C182.059 332.782 187.138 335.423 190.403 338.342C192.95 340.652 194.301 343.008 194.409 345.433C194.648 350.693 193.529 354.843 190.55 358.316C182.101 354.738 173.431 351.706 164.592 349.237C161.211 348.29 157.769 347.428 154.334 346.65C158.529 344.72 162.501 342.342 166.182 339.558ZM120.689 355.205C125.93 355.359 131.85 355.729 138.334 356.53C148.692 357.8 157.368 359.525 162.145 361.257C162.917 361.542 164.083 361.935 165.542 362.436C168.359 363.39 172.488 364.746 177.004 366.478C171.534 368.404 165.948 369.981 160.278 371.198C144.177 374.848 128.5 377.636 113.341 380.331C89.6137 384.551 67.1372 388.539 44.074 395.477C28.1222 399.369 15.6644 404.191 6.70053 409.946C5.92867 409.138 5.24171 408.406 4.62423 407.79C2.75632 405.927 -0.284801 400.444 -0.354269 397.857C-0.809667 382.11 67.2993 368.149 120.689 355.205ZM20.5245 457.526C12.0341 452.605 5.58134 446.584 5.24172 438.83C5.03061 435.601 5.64408 432.371 7.02471 429.443C16.1327 436.62 24.7775 442.688 35.0664 447.685C30.0184 450.226 24.6077 453.483 20.5245 457.526Z" fill="white" fill-opacity="0.1"/>
</g>
<defs>
<linearGradient id="paint0_linear_7_3" x1="-17.5" y1="-67" x2="390" y2="479" gradientUnits="userSpaceOnUse">
<stop stop-color="#D11216"/>
<stop offset="1" stop-color="#494949"/>
</linearGradient>
<clipPath id="clip0_7_3">
<rect width="243" height="207" fill="white" transform="translate(-10 281)"/>
</clipPath>
</defs>
</svg>
