<svg width="19" height="20" viewBox="0 0 19 20" fill="none" xmlns="http://www.w3.org/2000/svg">
<path d="M0 5.88326C0 5.31426 0.242364 4.77219 0.66641 4.39278L4.44443 1.01245C4.81114 0.684335 5.28594 0.50293 5.77802 0.50293H17C18.1046 0.50293 19 1.39836 19 2.50293V14.4523C19 14.9827 18.7893 15.4914 18.4142 15.8665L15.3636 18.9171C14.9885 19.2922 14.4798 19.5029 13.9494 19.5029H2C0.895432 19.5029 0 18.6075 0 17.5029V5.88326Z" fill="#D11216"/>
<g clip-path="url(#clip0_7_12)">
<path d="M14.994 9.69801C14.994 9.69801 14.994 9.69801 14.994 9.68801C15.02 9.45822 14.8641 9.39029 14.6882 9.33234C14.5423 9.28238 14.4023 9.22044 14.2584 9.16449C14.2184 9.15079 14.1827 9.12676 14.155 9.09483C14.1272 9.06289 14.1084 9.02419 14.1005 8.98266C13.9825 8.44184 13.7693 7.92628 13.4708 7.46004C13.4455 7.42352 13.4305 7.38076 13.4277 7.33638C13.4249 7.292 13.4343 7.2477 13.4548 7.20827C13.5388 7.00845 13.6188 6.82062 13.7047 6.6268C13.7246 6.59173 13.7317 6.55082 13.7248 6.51108C13.7179 6.47135 13.6974 6.43526 13.6667 6.40899C13.4668 6.20918 13.267 6.01935 13.0811 5.82353C13.0529 5.79161 13.0144 5.77068 12.9723 5.76446C12.9303 5.75825 12.8873 5.76714 12.8512 5.78956C12.6653 5.87348 12.4774 5.94741 12.2915 6.02934C12.2471 6.05209 12.1972 6.06208 12.1474 6.0582C12.0977 6.05432 12.05 6.03672 12.0096 6.00736C11.5532 5.71458 11.0483 5.50549 10.5185 5.38992C10.4731 5.38188 10.4306 5.36191 10.3955 5.33207C10.3604 5.30222 10.3338 5.26357 10.3186 5.22008C10.2446 5.02026 10.1646 4.83642 10.0907 4.6426C10.0805 4.60109 10.0562 4.56441 10.0219 4.53888C9.98761 4.51336 9.94549 4.50057 9.90279 4.50273H9.07324C9.03289 4.50042 8.99298 4.51208 8.96021 4.53573C8.92745 4.55939 8.90383 4.5936 8.89334 4.63261C8.81738 4.83243 8.73542 5.03225 8.65946 5.23206C8.64514 5.27353 8.61998 5.3104 8.58658 5.33887C8.55319 5.36733 8.51279 5.38633 8.46957 5.39392C7.93219 5.51249 7.41995 5.72489 6.95639 6.02135C6.91825 6.04739 6.87377 6.06263 6.82767 6.06544C6.78157 6.06826 6.73556 6.05854 6.69454 6.03733C6.50864 5.95541 6.31874 5.88147 6.13484 5.79555C6.09474 5.77337 6.04824 5.76563 6.00312 5.77363C5.95799 5.78163 5.91699 5.80489 5.88698 5.83951C5.70308 6.03933 5.51518 6.21717 5.32728 6.401C5.29115 6.43232 5.26745 6.47555 5.26048 6.52285C5.25352 6.57014 5.26374 6.61837 5.2893 6.65877C5.37326 6.83661 5.44122 7.01844 5.52118 7.19828C5.54385 7.2425 5.55415 7.29203 5.55099 7.34163C5.54782 7.39122 5.5313 7.43904 5.50319 7.48002C5.21148 7.93303 5.00299 8.43444 4.88752 8.96068C4.87821 9.01238 4.85452 9.06042 4.81917 9.09929C4.78382 9.13816 4.73823 9.1663 4.68763 9.18048C4.48774 9.25241 4.31184 9.33234 4.12194 9.40427C4.08275 9.41517 4.04848 9.43916 4.02484 9.47224C4.00119 9.50533 3.98961 9.54552 3.99201 9.58611C3.99201 9.86585 3.99201 10.1456 3.99201 10.4253C3.99051 10.4642 4.0021 10.5025 4.02493 10.534C4.04776 10.5655 4.08051 10.5885 4.11794 10.5992C4.31783 10.6751 4.50173 10.755 4.69363 10.827C4.73915 10.8408 4.78009 10.8667 4.81211 10.9018C4.84413 10.937 4.86605 10.9802 4.87553 11.0268C4.99198 11.5599 5.20249 12.0681 5.49719 12.5274C5.52428 12.565 5.54049 12.6093 5.54401 12.6555C5.54754 12.7017 5.53825 12.7479 5.51718 12.7892C5.43322 12.989 5.35327 13.1888 5.26731 13.3707C5.25017 13.4029 5.24402 13.4399 5.24979 13.4759C5.25557 13.512 5.27295 13.5452 5.2993 13.5705C5.50052 13.7703 5.70041 13.9701 5.89897 14.1699C5.92414 14.1965 5.95751 14.214 5.99374 14.2194C6.02998 14.2248 6.06698 14.218 6.09886 14.1999C6.28476 14.118 6.47466 14.0421 6.65856 13.9581C6.70468 13.9343 6.75646 13.9235 6.80827 13.927C6.86008 13.9306 6.90993 13.9482 6.95239 13.9781C7.39972 14.2622 7.8937 14.4651 8.4116 14.5776C8.46823 14.5859 8.52129 14.6103 8.56451 14.6478C8.60772 14.6854 8.63929 14.7345 8.65547 14.7894C8.71543 14.9592 8.79139 15.1231 8.85536 15.2929C8.89733 15.4128 8.9613 15.4927 9.09723 15.4728C9.11611 15.4744 9.13447 15.4798 9.1512 15.4887H9.85881H9.88679C9.90696 15.4848 9.92647 15.4781 9.94476 15.4688H9.95876H9.96875L10.0047 15.4428H10.0167V15.4308L10.0347 15.4088L10.0487 15.3888C10.0797 15.3331 10.1045 15.2741 10.1227 15.213C10.1706 15.0711 10.2346 14.9352 10.2866 14.7954C10.3007 14.7512 10.3269 14.7119 10.3622 14.6818C10.3975 14.6518 10.4406 14.6323 10.4865 14.6255C11.0161 14.5084 11.5209 14.2987 11.9777 14.0061C12.0203 13.9765 12.0703 13.9592 12.1221 13.956C12.1739 13.9529 12.2256 13.964 12.2715 13.9881C12.4534 14.07 12.6393 14.142 12.8192 14.2259C12.8553 14.2483 12.8983 14.2572 12.9404 14.251C12.9824 14.2448 13.021 14.2238 13.0491 14.1919C13.249 13.9921 13.4489 13.7923 13.6487 13.5925C13.6745 13.5668 13.6913 13.5335 13.6967 13.4975C13.7021 13.4615 13.6958 13.4248 13.6787 13.3926C13.5968 13.2088 13.5208 13.019 13.4369 12.8332C13.4131 12.7875 13.4022 12.7362 13.4054 12.6848C13.4086 12.6334 13.4257 12.5838 13.4548 12.5414C13.7449 12.0916 13.952 11.5935 14.0665 11.0708C14.0751 11.0179 14.0984 10.9685 14.1338 10.9282C14.1691 10.8879 14.2151 10.8584 14.2664 10.843C14.4363 10.783 14.6002 10.7051 14.7701 10.6431C14.9001 10.5992 14.97 10.5312 14.97 10.3854C14.9707 10.3545 14.9789 10.3244 14.994 10.2975V9.69801ZM5.46321 9.06458C5.68197 8.10216 6.24049 7.25084 7.03635 6.66676C7.48656 6.3305 8.00189 6.09164 8.54952 5.9654C8.61569 5.94108 8.68702 5.93424 8.7566 5.94554C8.82619 5.95684 8.89168 5.98589 8.94675 6.02989C9.00182 6.07389 9.0446 6.13135 9.07096 6.19671C9.09732 6.26207 9.10637 6.33312 9.09723 6.403V6.86258C9.12391 7.25449 9.07851 7.64797 8.9633 8.02353C8.80244 8.47533 8.50825 8.86772 8.11959 9.14886C7.73093 9.42999 7.26609 9.58663 6.78649 9.5981C6.48865 9.5981 6.18681 9.5981 5.88897 9.5981C5.82095 9.60671 5.75186 9.59769 5.68834 9.5719C5.62481 9.54611 5.56899 9.50443 5.52623 9.45085C5.48347 9.39727 5.45522 9.3336 5.44418 9.26595C5.43314 9.19831 5.4397 9.12896 5.46321 9.06458ZM9.09723 13.1289C9.09723 13.2867 9.09723 13.4426 9.09723 13.6005C9.10454 13.6677 9.09465 13.7358 9.06846 13.7982C9.04227 13.8606 9.00065 13.9154 8.94751 13.9573C8.89436 13.9993 8.83143 14.027 8.76462 14.038C8.6978 14.049 8.62929 14.0428 8.56552 14.0201C7.81321 13.8453 7.12463 13.4641 6.57726 12.9194C6.02989 12.3747 5.64545 11.6881 5.4672 10.9369C5.43985 10.8715 5.43037 10.8001 5.43974 10.7298C5.4491 10.6596 5.47698 10.5931 5.52051 10.5372C5.56404 10.4813 5.62165 10.438 5.68745 10.4116C5.75325 10.3853 5.82487 10.3769 5.89497 10.3874C6.26677 10.3874 6.64256 10.3754 7.01236 10.4094C7.50982 10.4626 7.97679 10.6749 8.3438 11.0148C8.71081 11.3546 8.95823 11.8039 9.04925 12.2956C9.09523 12.5674 9.09523 12.8451 9.11522 13.1209L9.09723 13.1289ZM9.48301 10.9768C9.28873 10.9741 9.09959 10.914 8.93939 10.8041C8.77918 10.6942 8.65505 10.5394 8.5826 10.3591C8.51016 10.1789 8.49263 9.98128 8.53222 9.79112C8.57181 9.60096 8.66675 9.42674 8.80511 9.29037C8.94347 9.154 9.11907 9.06155 9.30984 9.02466C9.50061 8.98777 9.69803 9.00808 9.87729 9.08303C10.0565 9.15799 10.2096 9.28424 10.3173 9.44593C10.425 9.60761 10.4825 9.7975 10.4825 9.99174C10.4788 10.2543 10.3719 10.5048 10.1848 10.6892C9.9978 10.8735 9.74568 10.9769 9.48301 10.9768ZM13.5168 10.9229C13.3415 11.6752 12.9592 12.3636 12.4131 12.9102C11.867 13.4568 11.1789 13.8398 10.4265 14.0161C10.3617 14.0417 10.2914 14.05 10.2225 14.0402C10.1535 14.0303 10.0883 14.0026 10.0334 13.9598C9.97846 13.917 9.93567 13.8606 9.90925 13.7961C9.88283 13.7317 9.87371 13.6615 9.8828 13.5925V13.1189C9.85654 12.7311 9.90124 12.3417 10.0147 11.9699C10.1753 11.513 10.4723 11.1163 10.8654 10.8334C11.2586 10.5504 11.7291 10.3947 12.2135 10.3874C12.5094 10.3874 12.8132 10.3874 13.101 10.3874C13.1685 10.3805 13.2366 10.3909 13.299 10.4176C13.3613 10.4443 13.4158 10.4864 13.4574 10.5399C13.499 10.5935 13.5263 10.6567 13.5367 10.7237C13.5471 10.7907 13.5402 10.8593 13.5168 10.9229ZM13.087 9.60009H12.5353C12.1695 9.62328 11.8026 9.57718 11.4539 9.46422C11.0026 9.30196 10.6111 9.00678 10.331 8.61761C10.0508 8.22843 9.89528 7.76353 9.8848 7.2842C9.8848 6.98847 9.8848 6.68474 9.8848 6.39701C9.8747 6.32775 9.88298 6.25706 9.9088 6.192C9.93462 6.12695 9.97708 6.06981 10.0319 6.02632C10.0868 5.98282 10.1521 5.95448 10.2213 5.94414C10.2906 5.9338 10.3613 5.94182 10.4265 5.9674C11.015 6.10092 11.5664 6.36366 12.0407 6.73656C12.5151 7.10947 12.9005 7.58321 13.169 8.12344C13.3113 8.42496 13.4264 8.73859 13.5128 9.06058C13.5377 9.12528 13.5453 9.19533 13.5349 9.26386C13.5245 9.33239 13.4965 9.39703 13.4535 9.45145C13.4106 9.50587 13.3542 9.54818 13.29 9.57424C13.2257 9.6003 13.1558 9.60921 13.087 9.60009Z" fill="white"/>
</g>
<defs>
<clipPath id="clip0_7_12">
<rect width="11" height="11" fill="white" transform="translate(4 4.50293)"/>
</clipPath>
</defs>
</svg>
