<svg width="19" height="20" viewBox="0 0 19 20" fill="none" xmlns="http://www.w3.org/2000/svg">
<path d="M0 5.88326C0 5.31426 0.242364 4.77219 0.66641 4.39278L4.44443 1.01245C4.81114 0.684335 5.28594 0.50293 5.77802 0.50293H17C18.1046 0.50293 19 1.39836 19 2.50293V14.4523C19 14.9827 18.7893 15.4914 18.4142 15.8665L15.3636 18.9171C14.9885 19.2922 14.4798 19.5029 13.9494 19.5029H2C0.895432 19.5029 0 18.6075 0 17.5029V5.88326Z" fill="#D11216"/>
<g clip-path="url(#clip0_7_11)">
<path d="M15.0001 11.2279V11.4853C14.9288 11.8084 14.7138 11.9989 14.4343 12.1538C13.5354 12.6618 12.641 13.181 11.75 13.7024C11.3238 13.9576 10.8354 14.0898 10.3388 14.0846C9.64376 14.0768 8.94986 14.0757 8.25595 14.069C8.16351 14.0648 8.07193 14.0885 7.99309 14.137C7.84495 14.2294 7.69125 14.313 7.5342 14.4044L5.72314 11.2647L5.99714 11.1054C6.34317 10.9048 6.68993 10.7046 7.03744 10.5048C7.60498 10.1724 8.27435 10.0587 8.91978 10.1851L11.2955 10.6018C11.4014 10.6183 11.5029 10.6558 11.5942 10.712C11.6854 10.7683 11.7645 10.8421 11.8269 10.9293C11.8892 11.0165 11.9336 11.1152 11.9574 11.2197C11.9812 11.3242 11.9839 11.4325 11.9654 11.538C11.9469 11.6436 11.9075 11.7445 11.8496 11.8347C11.7917 11.9249 11.7164 12.0026 11.6281 12.0633C11.5398 12.1241 11.4403 12.1666 11.3354 12.1885C11.2305 12.2103 11.1223 12.211 11.0171 12.1905L8.87969 11.814C8.83644 11.8027 8.79138 11.8002 8.74716 11.8067C8.70295 11.8131 8.66047 11.8284 8.62226 11.8515C8.58404 11.8747 8.55086 11.9053 8.52467 11.9415C8.49849 11.9777 8.47983 12.0189 8.4698 12.0624C8.43527 12.2607 8.55891 12.4145 8.77499 12.4524C9.4934 12.576 10.2118 12.6986 10.9302 12.8278C11.1368 12.8652 11.3491 12.8571 11.5523 12.8043C11.7555 12.7514 11.9447 12.6549 12.1069 12.5216C12.2692 12.3883 12.4004 12.2212 12.4917 12.0321C12.583 11.843 12.632 11.6362 12.6355 11.4262C12.6332 11.3952 12.6407 11.3643 12.6568 11.3377C12.673 11.3111 12.6971 11.2903 12.7257 11.2781C13.0698 11.082 13.4174 10.8892 13.7559 10.682C13.8665 10.6121 13.9923 10.5701 14.1226 10.5594C14.253 10.5488 14.3839 10.5699 14.5044 10.6209C14.6248 10.6719 14.731 10.7514 14.8141 10.8524C14.8971 10.9535 14.9544 11.0731 14.9811 11.2012C14.9859 11.2111 14.9923 11.2201 15.0001 11.2279Z" fill="white"/>
<path d="M6.90266 15.5029H4.23954C4.05353 15.4216 4.00007 15.27 4.00007 15.0706C4.00675 13.9564 4.00007 12.8423 4.00007 11.7281C3.99297 11.6495 4.01063 11.5706 4.05057 11.5025C4.09052 11.4343 4.15074 11.3804 4.22283 11.3482C4.32196 11.2981 4.4144 11.2368 4.51019 11.1822C4.54986 11.1521 4.59586 11.1315 4.6447 11.1219C4.69354 11.1123 4.74392 11.1139 4.79203 11.1267C4.84014 11.1395 4.8847 11.1631 4.92232 11.1957C4.95995 11.2283 4.98966 11.269 5.00918 11.3148C5.59059 12.3212 6.17126 13.3277 6.75118 14.3341L7.07864 14.9012C7.25128 15.1987 7.20784 15.3491 6.90266 15.5029Z" fill="white"/>
<path d="M12.8515 9.12647C12.8571 9.17495 12.8518 9.22407 12.8358 9.27019C12.8199 9.31632 12.7938 9.35826 12.7595 9.39293C12.7251 9.4276 12.6834 9.45409 12.6375 9.47046C12.5915 9.48682 12.5425 9.49263 12.4939 9.48746H8.28708C8.03648 9.48746 7.90616 9.35933 7.91284 9.11088C7.91351 8.7727 7.99862 8.44004 8.16045 8.14312C8.32229 7.84621 8.55572 7.59444 8.83953 7.41068C8.85232 7.39809 8.86759 7.3883 8.88436 7.38194C8.90114 7.37557 8.91906 7.37277 8.93697 7.37371C8.95489 7.37466 8.97242 7.37932 8.98843 7.38741C9.00445 7.39551 9.0186 7.40685 9.02999 7.42071C9.40122 7.7565 9.88389 7.94243 10.3844 7.94243C10.8849 7.94243 11.3676 7.7565 11.7388 7.42071C11.7494 7.40715 11.7627 7.39599 11.7779 7.38798C11.7931 7.37997 11.8099 7.37528 11.827 7.37422C11.8442 7.37317 11.8614 7.37578 11.8775 7.38187C11.8936 7.38796 11.9082 7.39741 11.9203 7.40957C12.2071 7.59456 12.4428 7.8488 12.6055 8.14885C12.7682 8.44891 12.8528 8.78511 12.8515 9.12647Z" fill="white"/>
<path d="M11.7778 5.90453C11.7767 6.18045 11.6939 6.44985 11.5398 6.67871C11.3857 6.90758 11.1673 7.08564 10.9121 7.19042C10.657 7.2952 10.3765 7.32198 10.1061 7.2674C9.83571 7.21282 9.58756 7.07931 9.39298 6.88374C9.1984 6.68817 9.06612 6.43931 9.01285 6.16859C8.95958 5.89786 8.9877 5.61742 9.09366 5.36267C9.19962 5.10792 9.37867 4.8903 9.6082 4.73728C9.83773 4.58426 10.1074 4.50271 10.3833 4.50293C10.5668 4.50337 10.7485 4.53997 10.918 4.61064C11.0874 4.68132 11.2412 4.78468 11.3707 4.91483C11.5002 5.04498 11.6028 5.19937 11.6726 5.36919C11.7425 5.539 11.7782 5.72091 11.7778 5.90453Z" fill="white"/>
</g>
<defs>
<clipPath id="clip0_7_11">
<rect width="11" height="11" fill="white" transform="translate(4 4.50293)"/>
</clipPath>
</defs>
</svg>
