<svg width="19" height="19" viewBox="0 0 19 19" fill="none" xmlns="http://www.w3.org/2000/svg">
<path d="M0.25 5.38033C0.25 4.88245 0.462069 4.40814 0.833109 4.07616L4.61113 0.695828C4.932 0.40873 5.34745 0.25 5.77802 0.25H17C17.9665 0.25 18.75 1.0335 18.75 2V13.9494C18.75 14.4135 18.5656 14.8586 18.2374 15.1868L15.1868 18.2374C14.8586 18.5656 14.4135 18.75 13.9494 18.75H2C1.0335 18.75 0.25 17.9665 0.25 17V5.38033Z" stroke="#727272" stroke-width="0.5"/>
<g clip-path="url(#clip0_26_994)">
<path d="M14.9996 10.725V10.9824C14.9283 11.3055 14.7133 11.496 14.4338 11.6508C13.5349 12.1589 12.6405 12.6781 11.7495 13.1995C11.3233 13.4546 10.8349 13.5869 10.3383 13.5817C9.64327 13.5739 8.94937 13.5728 8.25546 13.5661C8.16302 13.5619 8.07145 13.5856 7.9926 13.634C7.84447 13.7265 7.69076 13.8101 7.53371 13.9014L5.72266 10.7618L5.99665 10.6024C6.34268 10.4019 6.68944 10.2017 7.03695 10.0019C7.60449 9.66944 8.27386 9.55573 8.91929 9.68214L11.2951 10.0988C11.4009 10.1154 11.5025 10.1529 11.5937 10.2091C11.6849 10.2653 11.764 10.3392 11.8264 10.4264C11.8888 10.5135 11.9331 10.6123 11.9569 10.7168C11.9807 10.8213 11.9834 10.9295 11.9649 11.0351C11.9464 11.1407 11.9071 11.2415 11.8491 11.3317C11.7912 11.4219 11.7159 11.4997 11.6276 11.5604C11.5393 11.6212 11.4398 11.6637 11.3349 11.6855C11.23 11.7074 11.1218 11.7081 11.0166 11.6876L8.8792 11.311C8.83596 11.2998 8.79089 11.2973 8.74668 11.3037C8.70246 11.3102 8.65999 11.3255 8.62177 11.3486C8.58355 11.3718 8.55037 11.4024 8.52418 11.4386C8.498 11.4748 8.47934 11.5159 8.46931 11.5595C8.43479 11.7578 8.55842 11.9116 8.7745 11.9494C9.49291 12.0731 10.2113 12.1957 10.9297 12.3249C11.1363 12.3623 11.3486 12.3542 11.5518 12.3013C11.755 12.2484 11.9442 12.152 12.1065 12.0187C12.2687 11.8853 12.4 11.7183 12.4912 11.5292C12.5825 11.34 12.6315 11.1333 12.635 10.9233C12.6327 10.8923 12.6402 10.8613 12.6564 10.8348C12.6725 10.8082 12.6966 10.7873 12.7252 10.7751C13.0694 10.579 13.4169 10.3863 13.7555 10.1791C13.866 10.1092 13.9918 10.0671 14.1222 10.0565C14.2525 10.0459 14.3835 10.0669 14.5039 10.118C14.6243 10.169 14.7305 10.2484 14.8136 10.3495C14.8966 10.4505 14.9539 10.5702 14.9807 10.6982C14.9854 10.7082 14.9918 10.7172 14.9996 10.725Z" fill="#D11216"/>
<path d="M6.90217 15H4.23905C4.05304 14.9186 3.99958 14.7671 3.99958 14.5677C4.00626 13.4535 3.99958 12.3394 3.99958 11.2252C3.99249 11.1466 4.01015 11.0677 4.05009 10.9995C4.09003 10.9314 4.15025 10.8775 4.22234 10.8453C4.32147 10.7952 4.41392 10.7339 4.5097 10.6793C4.54937 10.6492 4.59538 10.6286 4.64421 10.619C4.69305 10.6093 4.74344 10.611 4.79154 10.6238C4.83965 10.6366 4.88421 10.6601 4.92183 10.6927C4.95946 10.7253 4.98917 10.7661 5.00869 10.8119C5.5901 11.8183 6.17077 12.8248 6.75069 13.8312L7.07815 14.3983C7.25079 14.6958 7.20735 14.8462 6.90217 15Z" fill="#D11216"/>
<path d="M12.851 8.62354C12.8566 8.67202 12.8513 8.72114 12.8353 8.76726C12.8194 8.81339 12.7933 8.85533 12.759 8.89C12.7246 8.92467 12.6829 8.95116 12.637 8.96753C12.591 8.98389 12.542 8.9897 12.4935 8.98453H8.28659C8.03599 8.98453 7.90567 8.8564 7.91235 8.60795C7.91302 8.26977 7.99813 7.93711 8.15997 7.64019C8.3218 7.34328 8.55523 7.09151 8.83905 6.90775C8.85183 6.89516 8.8671 6.88537 8.88387 6.87901C8.90065 6.87264 8.91857 6.86984 8.93648 6.87078C8.9544 6.87173 8.97193 6.87639 8.98794 6.88449C9.00396 6.89258 9.01811 6.90392 9.02951 6.91778C9.40074 7.25357 9.8834 7.4395 10.3839 7.4395C10.8844 7.4395 11.3671 7.25357 11.7383 6.91778C11.7489 6.90422 11.7622 6.89307 11.7774 6.88505C11.7927 6.87704 11.8094 6.87235 11.8266 6.87129C11.8437 6.87024 11.8609 6.87285 11.877 6.87894C11.8931 6.88503 11.9077 6.89448 11.9198 6.90664C12.2067 7.09163 12.4423 7.34587 12.605 7.64592C12.7677 7.94598 12.8523 8.28218 12.851 8.62354Z" fill="#D11216"/>
<path d="M11.7775 5.4016C11.7764 5.67752 11.6936 5.94692 11.5395 6.17578C11.3855 6.40465 11.1671 6.58272 10.9119 6.68749C10.6567 6.79227 10.3762 6.81905 10.1058 6.76447C9.83546 6.70989 9.58731 6.57638 9.39274 6.38081C9.19816 6.18524 9.06588 5.93638 9.01261 5.66566C8.95933 5.39493 8.98745 5.11449 9.09341 4.85974C9.19938 4.60499 9.37843 4.38737 9.60796 4.23435C9.83749 4.08133 10.1072 3.99978 10.383 4C10.5666 4.00044 10.7483 4.03704 10.9177 4.10771C11.0871 4.17839 11.241 4.28175 11.3705 4.4119C11.5 4.54205 11.6026 4.69644 11.6724 4.86626C11.7422 5.03607 11.778 5.21798 11.7775 5.4016Z" fill="#D11216"/>
</g>
<defs>
<clipPath id="clip0_26_994">
<rect width="11" height="11" fill="white" transform="translate(4 4)"/>
</clipPath>
</defs>
</svg>
