<svg width="19" height="20" viewBox="0 0 19 20" fill="none" xmlns="http://www.w3.org/2000/svg">
<path d="M0 5.88326C0 5.31426 0.242364 4.77219 0.66641 4.39278L4.44443 1.01245C4.81114 0.684335 5.28594 0.50293 5.77802 0.50293H17C18.1046 0.50293 19 1.39836 19 2.50293V14.4523C19 14.9827 18.7893 15.4914 18.4142 15.8665L15.3636 18.9171C14.9885 19.2922 14.4798 19.5029 13.9494 19.5029H2C0.895432 19.5029 0 18.6075 0 17.5029V5.88326Z" fill="#D11216"/>
<g clip-path="url(#clip0_7_10)">
<path d="M13.9776 8.46938C13.8669 7.55263 13.4762 6.69194 12.8585 6.00376C12.2408 5.31559 11.4259 4.83317 10.5241 4.62177C10.2884 4.56864 10.05 4.54208 9.80869 4.50293H9.1971C9.06805 4.52111 8.92777 4.53369 8.80293 4.55606C7.53765 4.78255 6.51505 5.39493 5.79685 6.46029C5.00009 7.64169 4.76162 8.92236 5.26521 10.2967C5.57015 11.0787 5.96009 11.8251 6.42808 12.5225C7.27955 13.8479 8.2783 15.0685 9.20832 16.3435C9.24241 16.3933 9.28831 16.4338 9.34194 16.4616C9.39557 16.4893 9.45526 16.5034 9.51568 16.5026C9.57609 16.5017 9.63537 16.486 9.68821 16.4568C9.74105 16.4276 9.78582 16.3858 9.81851 16.3352C10.5409 15.3565 11.2675 14.3946 11.9773 13.4117C12.582 12.5971 13.1032 11.724 13.533 10.8056C13.8696 10.0618 14.0716 9.29985 13.9776 8.46938ZM9.49588 11.0629C9.08427 11.0618 8.68224 10.939 8.34067 10.71C7.9991 10.4811 7.73335 10.1563 7.57705 9.77678C7.42076 9.39725 7.38094 8.98004 7.46264 8.57794C7.54434 8.17585 7.74388 7.80695 8.03602 7.51793C8.32815 7.22892 8.69974 7.03277 9.10377 6.95433C9.50779 6.87589 9.92608 6.91867 10.3057 7.07727C10.6853 7.23586 11.0092 7.50314 11.2363 7.84527C11.4635 8.1874 11.5837 8.58901 11.5818 8.99926C11.5788 9.54832 11.3576 10.0738 10.9666 10.4606C10.5756 10.8474 10.0468 11.064 9.49588 11.0629Z" fill="white"/>
</g>
<defs>
<clipPath id="clip0_7_10">
<rect width="9" height="12" fill="white" transform="translate(5 4.50293)"/>
</clipPath>
</defs>
</svg>
