<svg width="13" height="13" viewBox="0 0 13 13" fill="none" xmlns="http://www.w3.org/2000/svg">
<g clip-path="url(#clip0_1109_306)">
<path d="M13.0004 5.43673V7.56548C13.0004 7.75981 12.9496 7.80839 12.7597 7.80839H11.9846C11.9029 8.05792 11.8256 8.29862 11.7395 8.53712C11.6711 8.72923 11.5761 8.76898 11.4083 8.65415C11.0572 8.41345 10.7127 8.1595 10.366 7.90997C10.271 7.84152 10.2865 7.74877 10.3152 7.6494C10.5298 6.94969 10.5443 6.20389 10.3571 5.49635C10.173 4.80096 9.80362 4.16858 9.28835 3.66662C8.77308 3.16466 8.13125 2.81194 7.43129 2.64606C6.73133 2.48018 5.99947 2.50736 5.31374 2.72471C4.62801 2.94205 4.01411 3.34141 3.5375 3.88021C3.06089 4.41901 2.73942 5.07706 2.60738 5.78418C2.47534 6.49131 2.53767 7.22102 2.78772 7.89551C3.03778 8.57 3.46619 9.16399 4.02728 9.61415C4.58836 10.0643 5.2611 10.3538 5.97375 10.4517C6.5257 10.5277 7.08754 10.484 7.62111 10.3236C7.81985 10.2662 7.84194 10.2706 7.9656 10.4384C8.18643 10.7476 8.4205 11.0545 8.62808 11.3703C8.77161 11.5911 8.73849 11.6662 8.5 11.7523C8.26151 11.8385 8.04289 11.9047 7.80219 11.9842C7.80219 12.2404 7.80219 12.5031 7.80219 12.7659C7.78214 12.8496 7.74696 12.9289 7.6984 13H5.30024C5.25232 12.9289 5.21789 12.8495 5.19866 12.7659C5.18541 12.5031 5.19866 12.2404 5.19866 11.971C4.62054 11.8305 4.06777 11.601 3.56013 11.2908L3.00586 11.8517C2.87115 11.9864 2.80491 11.9864 2.67462 11.8517L1.15092 10.3435C1.0118 10.2043 1.0118 10.1403 1.15092 10.0034L1.70961 9.44692C1.39985 8.93904 1.17043 8.38634 1.02947 7.80839C0.760062 7.80839 0.49728 7.80839 0.234497 7.80839C0.155489 7.7867 0.0807947 7.75159 0.0136719 7.7046V5.29981C0.0847354 5.25322 0.163112 5.21889 0.245539 5.19823C0.508321 5.18498 0.773312 5.19823 1.04051 5.19823C1.17961 4.61968 1.40915 4.0667 1.72065 3.55971C1.53074 3.37201 1.34967 3.19314 1.1708 3.01206C1.02284 2.86632 1.02284 2.80448 1.1708 2.66316L2.65033 1.1505C2.78945 1.01138 2.85349 1.01138 2.9904 1.1505C3.17589 1.33599 3.35918 1.5237 3.54467 1.7114C4.05409 1.39899 4.60916 1.16802 5.18982 1.02684C5.18982 0.757432 5.18982 0.494649 5.18982 0.231867C5.2122 0.1485 5.24962 0.0699216 5.30024 0L7.70061 0C7.74876 0.0704792 7.78391 0.149006 7.8044 0.231867C7.81765 0.494649 7.8044 0.75964 7.8044 1.02684C8.38205 1.16658 8.9342 1.39608 9.44071 1.70698L9.99057 1.15492C10.1363 1.00917 10.1981 1.00917 10.3417 1.15492C10.8422 1.6584 11.3442 2.16041 11.8477 2.66095C11.9824 2.79786 11.9824 2.8619 11.8477 3.00323C11.713 3.14456 11.5187 3.32784 11.3597 3.49788C11.3458 3.51668 11.3368 3.53857 11.3333 3.56166C11.3299 3.58475 11.3321 3.60834 11.3398 3.63037C11.6254 4.11715 11.8382 4.64315 11.9714 5.19161H12.7487C12.9518 5.1894 13.0004 5.23577 13.0004 5.43673Z" fill="#D11216"/>
<path d="M12.9962 11.3133C12.9899 11.4363 12.9714 11.5583 12.941 11.6777C12.9013 11.8455 12.76 11.883 12.6341 11.7594C12.3647 11.4944 12.0982 11.2272 11.8347 10.9578C11.8142 10.9286 11.7831 10.9086 11.748 10.902C11.713 10.8954 11.6767 10.9027 11.647 10.9224C11.159 11.1565 11.159 11.1565 10.9227 11.6445C10.9033 11.6742 10.8959 11.7101 10.9021 11.745C10.9082 11.7798 10.9274 11.811 10.9558 11.8322C11.2142 12.084 11.4659 12.3401 11.7199 12.5919C11.7861 12.6581 11.8722 12.731 11.8148 12.8127C11.7594 12.8728 11.6894 12.9177 11.6117 12.943C11.5571 12.9631 11.501 12.9786 11.4438 12.9894H11.0022L10.7416 12.9209C10.3435 12.8061 9.9984 12.5549 9.7667 12.2114C9.535 11.8679 9.43142 11.4538 9.47407 11.0417C9.4846 10.9852 9.48015 10.9269 9.46117 10.8727C9.44218 10.8184 9.40933 10.7701 9.36586 10.7325C8.60033 9.97436 7.83775 9.21178 7.07811 8.44477C7.04066 8.40156 6.99285 8.36856 6.93917 8.34886C6.88548 8.32916 6.82768 8.32342 6.77116 8.33215C6.52019 8.36002 6.26615 8.33377 6.02618 8.25515C5.78621 8.17653 5.56588 8.04739 5.38005 7.87641C5.19422 7.70544 5.0472 7.49661 4.9489 7.26401C4.85061 7.03141 4.80332 6.78043 4.81023 6.52801C4.81419 6.40451 4.83046 6.28171 4.85881 6.16144C4.90298 5.95386 5.03768 5.91632 5.18563 6.06207C5.45063 6.32264 5.71341 6.58101 5.96294 6.846C6.02698 6.91225 6.08219 6.93654 6.16168 6.87912H6.17273C6.34031 6.8298 6.49273 6.73897 6.61587 6.61506C6.73901 6.49115 6.82888 6.33816 6.87716 6.17027C6.89907 6.13813 6.90806 6.09891 6.90233 6.06043C6.8966 6.02196 6.87657 5.98706 6.84624 5.9627C6.58567 5.71095 6.3273 5.45259 6.07556 5.18981C6.04859 5.16219 6.0276 5.12931 6.01392 5.09321C6.00024 5.05711 5.99416 5.01858 5.99606 4.98002C6.00711 4.92923 6.09985 4.87403 6.1661 4.85636C6.4396 4.79075 6.72481 4.79138 6.99801 4.85822C7.2712 4.92505 7.5245 5.05615 7.73682 5.24061C7.94914 5.42506 8.11435 5.65755 8.21871 5.91873C8.32307 6.17991 8.36356 6.46223 8.33682 6.74221C8.32532 6.8047 8.33027 6.86911 8.35117 6.92912C8.37208 6.98912 8.40822 7.04267 8.45606 7.08449C9.22453 7.84266 9.98712 8.60524 10.7438 9.37224C10.7792 9.41126 10.8239 9.44079 10.8736 9.45815C10.9234 9.4755 10.9767 9.48013 11.0287 9.47161C11.2834 9.44213 11.5415 9.46847 11.7851 9.54879C12.0286 9.62912 12.2518 9.7615 12.439 9.93675C12.6262 10.112 12.7731 10.3259 12.8693 10.5636C12.9655 10.8013 13.0088 11.0572 12.9962 11.3133Z" fill="#D11216"/>
</g>
<defs>
<clipPath id="clip0_1109_306">
<rect width="13" height="13" fill="white"/>
</clipPath>
</defs>
</svg>
