<svg width="10" height="10" viewBox="0 0 10 10" fill="none" xmlns="http://www.w3.org/2000/svg">
<g clip-path="url(#clip0_1110_65)">
<path d="M2.77148 2.40638C4.14011 3.13431 5.97497 3.08167 7.21727 2.40638C7.06472 1.90915 6.84025 1.43691 6.551 1.00466C6.35558 0.691633 6.08986 0.428487 5.77494 0.236126C5.58628 0.144827 5.39185 0.0659507 5.1929 0L4.80337 0C4.61028 0.0625537 4.42139 0.137405 4.23787 0.224094C3.93586 0.4048 3.67876 0.651624 3.48588 0.946007C3.1721 1.392 2.93098 1.88491 2.77148 2.40638Z" fill="#C6C6C6"/>
<path d="M1.95518 4.83651C2.03188 4.83651 2.06196 4.81997 2.06347 4.73574C2.07459 4.0363 2.17106 3.34082 2.35073 2.66476C2.35581 2.65326 2.35847 2.64083 2.35855 2.62826C2.35863 2.61568 2.35613 2.60323 2.35119 2.59166C2.34626 2.5801 2.33899 2.56967 2.32986 2.56103C2.32072 2.55239 2.30991 2.54572 2.29809 2.54143C1.95986 2.34578 1.64544 2.1116 1.36111 1.84358C1.31599 1.80297 1.27237 1.76086 1.23026 1.71875C0.729433 2.23011 0.239134 3.21221 0.099263 3.99428C0.0601594 4.21085 0.0330877 4.43044 0 4.64701V4.84253C0.0391036 4.84253 0.0767033 4.83501 0.115807 4.83501C0.730937 4.83501 1.34456 4.8335 1.95518 4.83651Z" fill="#C6C6C6"/>
<path d="M2.35223 7.34199C2.17415 6.66309 2.07821 5.96526 2.06648 5.26348C2.06648 5.17324 2.03038 5.1582 1.95067 5.1582C1.33253 5.1582 0.714393 5.1582 0.0962551 5.1582C0.0646714 5.1582 0.0315837 5.1582 0 5.1582V5.33417C0.00768062 5.36177 0.0132118 5.38993 0.0165438 5.41839C0.0818666 6.25106 0.3594 7.05311 0.82268 7.74807C0.946007 7.93306 1.08588 8.10601 1.22274 8.29101C1.55161 7.96451 1.91933 7.67963 2.31764 7.44276C2.33095 7.42988 2.34102 7.41404 2.34704 7.39653C2.35305 7.37901 2.35483 7.36032 2.35223 7.34199Z" fill="#C6C6C6"/>
<path d="M4.99746 3.27257C4.1918 3.27482 3.39617 3.09379 2.6708 2.74316C2.29854 4.22411 2.29854 5.77417 2.6708 7.25512C3.39765 6.90921 4.1925 6.72972 4.99746 6.72972C5.80243 6.72972 6.59727 6.90921 7.32413 7.25512C7.69739 5.7743 7.69739 4.22399 7.32413 2.74316C6.59891 3.09424 5.80318 3.2753 4.99746 3.27257ZM6.65786 4.39153C6.55409 4.39153 6.50747 4.45921 6.48641 4.54193L6.40971 4.81265C6.43527 4.72391 6.46084 4.63518 6.48491 4.54644C6.50897 4.45771 6.55409 4.39153 6.65786 4.39153ZM6.68193 5.2473C6.68193 5.22925 6.6714 5.2112 6.66538 5.19466C6.6714 5.2112 6.67591 5.22925 6.68193 5.2473ZM6.30593 4.52388C6.30593 4.54494 6.31947 4.5675 6.32699 4.58855C6.32699 4.5675 6.31345 4.54494 6.30593 4.52388ZM5.3494 4.52539C5.3494 4.53291 5.3494 4.54043 5.3494 4.54795C5.3494 4.55547 5.3494 4.53291 5.3494 4.52539ZM5.26367 4.81265C5.26367 4.79009 5.27721 4.76753 5.28322 4.74647C5.28322 4.76753 5.26969 4.79009 5.26367 4.81265ZM5.24261 4.76602C5.21413 4.6981 5.19051 4.62824 5.17193 4.55697C5.19129 4.6277 5.21541 4.69704 5.24412 4.76452L5.24261 4.76602ZM4.64252 4.51185C4.66057 4.55998 4.6726 4.61111 4.68764 4.66225C4.6726 4.61262 4.66057 4.56148 4.64252 4.51185ZM4.79292 4.67729C4.77939 4.72391 4.76735 4.76903 4.75382 4.81415C4.76284 4.76903 4.77487 4.72391 4.78841 4.67729H4.79292ZM3.98679 5.35559C4.00193 5.33166 4.02277 5.31185 4.04744 5.29794C4.07211 5.28403 4.09985 5.27645 4.12816 5.27588C4.09908 5.2757 4.07043 5.28292 4.04491 5.29687C4.01939 5.31081 3.99783 5.33102 3.98227 5.35559H3.98679ZM4.01235 4.62615L3.91008 4.95402L4.00483 4.62615C4.01543 4.59573 4.01864 4.56323 4.0142 4.53132C4.00975 4.49942 3.99778 4.46903 3.97927 4.44267C3.99828 4.46878 4.01079 4.49904 4.01576 4.53095C4.02073 4.56286 4.01802 4.5955 4.00784 4.62615H4.01235ZM3.91008 4.39604C3.81383 4.36897 3.7296 4.42312 3.69351 4.53892C3.7266 4.42312 3.81082 4.36897 3.91008 4.39604ZM3.34759 4.39604C3.32399 4.39462 3.30039 4.39878 3.2787 4.40819C3.25701 4.4176 3.23785 4.43199 3.22276 4.45019C3.23708 4.43158 3.25556 4.41658 3.27671 4.4064C3.29786 4.39621 3.32111 4.39112 3.34458 4.39153L3.34759 4.39604ZM3.43182 5.46237C3.41375 5.39211 3.39063 5.32325 3.36263 5.25632C3.38941 5.32186 3.41152 5.38921 3.42881 5.45786L3.43182 5.46237ZM2.78209 4.40356C2.75665 4.41094 2.73337 4.42436 2.71425 4.4427C2.69513 4.46103 2.68073 4.48373 2.6723 4.50884C2.67939 4.48268 2.69285 4.45868 2.71149 4.43899C2.73012 4.41931 2.75335 4.40455 2.77909 4.39604L2.78209 4.40356ZM3.22276 5.50899C3.23382 5.48919 3.24338 5.46857 3.25134 5.44733C3.24435 5.46849 3.2358 5.4891 3.22577 5.50899H3.22276ZM3.43182 5.47591C3.44139 5.51353 3.46178 5.54751 3.49047 5.57367C3.46288 5.54713 3.44356 5.51318 3.43482 5.47591H3.43182ZM3.74464 5.53456C3.7574 5.51404 3.76703 5.49174 3.77322 5.46839C3.76469 5.49218 3.75252 5.51451 3.73712 5.53456H3.74464ZM4.18832 5.60074C4.21962 5.59169 4.24748 5.57343 4.26827 5.54835C4.28907 5.52326 4.30183 5.4925 4.30491 5.46006C4.308 5.42762 4.30125 5.395 4.28555 5.36645C4.26986 5.33789 4.24593 5.31472 4.2169 5.29994C4.24593 5.31296 4.27059 5.33406 4.28793 5.36074C4.30527 5.38741 4.31455 5.41852 4.31465 5.45034C4.31282 5.48597 4.29931 5.52 4.2762 5.54718C4.2531 5.57437 4.22168 5.59319 4.18682 5.60074H4.18832ZM4.39437 4.41409C4.36891 4.4296 4.34825 4.45187 4.33471 4.47843C4.32116 4.50498 4.31526 4.53478 4.31766 4.56449C4.31511 4.53493 4.32079 4.50523 4.33406 4.47869C4.34733 4.45215 4.36768 4.42979 4.39286 4.41409H4.39437ZM4.74028 5.60976H4.70569H4.74179C4.78503 5.6101 4.82665 5.59334 4.85759 5.56314C4.84191 5.57846 4.82332 5.59048 4.80291 5.59849C4.7825 5.6065 4.76069 5.61033 4.73878 5.60976H4.74028ZM5.09673 5.47139C5.10241 5.50203 5.11633 5.53054 5.137 5.55386C5.15767 5.57718 5.1843 5.59443 5.21404 5.60374C5.18291 5.59562 5.1547 5.5789 5.13262 5.55549C5.11055 5.53209 5.0955 5.50294 5.08921 5.47139H5.09673ZM5.29074 5.60374C5.31175 5.60121 5.33198 5.59428 5.35012 5.58339C5.36826 5.57251 5.3839 5.55792 5.39602 5.54058C5.38341 5.55939 5.36672 5.57511 5.34719 5.58657C5.32766 5.59803 5.30579 5.60493 5.28322 5.60675L5.29074 5.60374ZM5.92091 5.55411C5.93754 5.53952 5.95074 5.52145 5.95958 5.50117C5.96842 5.48089 5.97267 5.45891 5.97205 5.4368C5.97432 5.46064 5.97086 5.48468 5.96197 5.50692C5.95307 5.52915 5.939 5.54894 5.92091 5.56464V5.55411ZM6.142 5.15405C6.17208 5.25783 6.20216 5.3601 6.23073 5.46387C6.23626 5.4834 6.24436 5.50212 6.2548 5.51952C6.24409 5.50225 6.23599 5.4835 6.23073 5.46387C6.20216 5.36612 6.16606 5.26384 6.142 5.16007V5.15405ZM6.50446 5.57066C6.53312 5.54388 6.55348 5.50942 6.56311 5.47139C6.55402 5.5105 6.53362 5.54607 6.50446 5.57367V5.57066ZM6.7857 5.54659C6.80031 5.56611 6.81944 5.58178 6.84145 5.59226C6.86346 5.60274 6.88768 5.60771 6.91204 5.60675C6.88794 5.60806 6.86388 5.60355 6.84189 5.59361C6.8199 5.58366 6.80063 5.56857 6.7857 5.5496V5.54659ZM7.32413 4.61863C7.34069 4.56935 7.338 4.51562 7.31661 4.46824C7.33879 4.51649 7.34149 4.57145 7.32413 4.62164V4.61863Z" fill="#C6C6C6"/>
<path d="M7.23908 7.58003C6.5423 7.23825 5.7765 7.06055 5.0004 7.06055C4.2243 7.06055 3.45851 7.23825 2.76172 7.58003C2.84895 7.80412 2.92114 8.01318 3.01138 8.21471C3.22516 8.74825 3.5604 9.22459 3.99048 9.6059C4.26002 9.845 4.60359 9.98413 4.96355 9.99994C5.3528 10.0019 5.72856 9.85747 6.01634 9.59537C6.41308 9.24544 6.72653 8.81122 6.93377 8.3245C7.04357 8.08537 7.13531 7.83571 7.23908 7.58003Z" fill="#C6C6C6"/>
<path d="M7.64636 2.68032C7.79062 3.2214 7.87981 3.77568 7.91257 4.33471C7.92159 4.49864 7.93061 4.66258 7.93964 4.83102H9.99859C9.95766 3.68317 9.5239 2.58416 8.76984 1.71777L8.69765 1.78244C8.3986 2.07192 8.06584 2.3244 7.70652 2.53444C7.6927 2.53969 7.6801 2.54772 7.66951 2.55803C7.65891 2.56834 7.65053 2.58071 7.6449 2.59437C7.63926 2.60804 7.63648 2.62272 7.63673 2.6375C7.63699 2.65228 7.64026 2.66686 7.64636 2.68032Z" fill="#C6C6C6"/>
<path d="M7.92898 5.25309C7.9161 5.95606 7.81865 6.65493 7.63872 7.33461C7.63395 7.34622 7.63161 7.35869 7.63185 7.37124C7.6321 7.38379 7.63491 7.39616 7.64013 7.40758C7.64535 7.419 7.65285 7.42923 7.66218 7.43763C7.67151 7.44603 7.68246 7.45243 7.69436 7.45643C8.06318 7.67082 8.40372 7.93052 8.70805 8.22948C8.7261 8.24602 8.74565 8.26106 8.76971 8.28061C9.52321 7.4159 9.95604 6.31814 9.99546 5.17188H7.93801C7.935 5.20346 7.93049 5.22752 7.92898 5.25309Z" fill="#C6C6C6"/>
<path d="M6.27734 9.82671C7.13236 9.60479 7.91172 9.1564 8.53332 8.52877C8.23164 8.22296 7.89078 7.95847 7.51964 7.74219C7.25343 8.52877 6.89247 9.25219 6.27734 9.82671Z" fill="#C6C6C6"/>
<path d="M2.47703 2.25616C2.74774 1.4786 3.09968 0.752179 3.72082 0.180664C2.86531 0.398071 2.08532 0.844748 1.46484 1.47259C1.76354 1.78027 2.10432 2.04408 2.47703 2.25616Z" fill="#C6C6C6"/>
<path d="M7.52016 2.25595C7.88966 2.0373 8.22979 1.77248 8.53235 1.46786C7.91024 0.840885 7.13108 0.392607 6.27637 0.169922C6.89601 0.74294 7.25095 1.47087 7.52016 2.25595Z" fill="#C6C6C6"/>
<path d="M2.46921 7.74219C2.09943 7.9598 1.75923 8.22418 1.45703 8.52877C2.07797 9.15601 2.85778 9.60258 3.71301 9.8207C3.09788 9.24918 2.74144 8.52576 2.46921 7.74219Z" fill="#C6C6C6"/>
</g>
<defs>
<clipPath id="clip0_1110_65">
<rect width="9.9985" height="10" fill="white"/>
</clipPath>
</defs>
</svg>
