<svg width="15" height="15" viewBox="0 0 15 15" fill="none" xmlns="http://www.w3.org/2000/svg">
<g clip-path="url(#clip0_1115_1105)">
<path d="M4.15723 3.60957C6.21017 4.70146 8.96246 4.6225 10.8259 3.60957C10.5971 2.86373 10.2604 2.15537 9.8265 1.50699C9.53337 1.03745 9.13479 0.64273 8.66242 0.354189C8.37942 0.217241 8.08777 0.098926 7.78935 0L7.20505 0C6.91542 0.0938306 6.63209 0.206107 6.35681 0.336141C5.9038 0.6072 5.51813 0.977436 5.22882 1.41901C4.75815 2.08801 4.39647 2.82736 4.15723 3.60957Z" fill="#C6C6C6"/>
<path d="M2.93277 7.25477C3.04783 7.25477 3.09295 7.22995 3.0952 7.10362C3.11189 6.05445 3.25659 5.01124 3.52609 3.99714C3.53372 3.97988 3.53771 3.96125 3.53783 3.94239C3.53795 3.92352 3.53419 3.90484 3.52679 3.88749C3.51938 3.87015 3.50849 3.85451 3.49479 3.84154C3.48109 3.82858 3.46487 3.81858 3.44713 3.81214C2.93979 3.51866 2.46816 3.1674 2.04166 2.76537C1.97398 2.70446 1.90856 2.64129 1.84539 2.57812C1.09415 3.34516 0.358701 4.81831 0.148895 5.99142C0.0902391 6.31628 0.0496315 6.64565 0 6.97051V7.26379C0.0586554 7.26379 0.115055 7.25251 0.17371 7.25251C1.09641 7.25251 2.01684 7.25026 2.93277 7.25477Z" fill="#C6C6C6"/>
<path d="M3.52835 11.013C3.26122 9.99463 3.11732 8.94789 3.09971 7.89522C3.09971 7.75986 3.04557 7.7373 2.926 7.7373C1.9988 7.7373 1.07159 7.7373 0.144383 7.7373C0.0970071 7.7373 0.0473755 7.7373 0 7.7373V8.00125C0.0115209 8.04266 0.0198177 8.0849 0.0248158 8.12759C0.1228 9.37659 0.5391 10.5797 1.23402 11.6221C1.41901 11.8996 1.62882 12.159 1.83411 12.4365C2.32742 11.9468 2.879 11.5194 3.47646 11.1641C3.49643 11.1448 3.51154 11.1211 3.52056 11.0948C3.52957 11.0685 3.53224 11.0405 3.52835 11.013Z" fill="#C6C6C6"/>
<path d="M7.49668 4.90934C6.28818 4.91272 5.09475 4.64117 4.00669 4.11523C3.44829 6.33666 3.44829 8.66174 4.00669 10.8832C5.09697 10.3643 6.28923 10.0951 7.49668 10.0951C8.70414 10.0951 9.8964 10.3643 10.9867 10.8832C11.5466 8.66193 11.5466 6.33647 10.9867 4.11523C9.89886 4.64185 8.70526 4.91343 7.49668 4.90934ZM9.98729 6.58779C9.83162 6.58779 9.76169 6.68931 9.7301 6.81338L9.61505 7.21946C9.6534 7.08636 9.69175 6.95326 9.72785 6.82015C9.76394 6.68705 9.83162 6.58779 9.98729 6.58779ZM10.0234 7.87144C10.0234 7.84437 10.0076 7.8173 9.99856 7.79248C10.0076 7.8173 10.0144 7.84437 10.0234 7.87144ZM9.45939 6.78631C9.45939 6.8179 9.47969 6.85174 9.49097 6.88332C9.49097 6.85174 9.47067 6.8179 9.45939 6.78631ZM8.02458 6.78857C8.02458 6.79985 8.02458 6.81113 8.02458 6.82241C8.02458 6.83369 8.02458 6.79985 8.02458 6.78857ZM7.89599 7.21946C7.89599 7.18562 7.9163 7.15178 7.92532 7.1202C7.92532 7.15178 7.90502 7.18562 7.89599 7.21946ZM7.86441 7.14953C7.82168 7.04764 7.78625 6.94285 7.75838 6.83594C7.78742 6.94204 7.8236 7.04605 7.86666 7.14727L7.86441 7.14953ZM6.96427 6.76827C6.99135 6.84046 7.00939 6.91716 7.03195 6.99386C7.00939 6.91942 6.99135 6.84271 6.96427 6.76827ZM7.18987 7.01642C7.16957 7.08636 7.15152 7.15404 7.13122 7.22172C7.14475 7.15404 7.1628 7.08636 7.1831 7.01642H7.18987ZM5.98067 8.03387C6.00339 7.99798 6.03465 7.96827 6.07165 7.9474C6.10866 7.92654 6.15026 7.91517 6.19273 7.9143C6.14911 7.91404 6.10613 7.92487 6.06785 7.94579C6.02957 7.96671 5.99724 7.99702 5.9739 8.03387H5.98067ZM6.01902 6.93972L5.86561 7.43152L6.00774 6.93972C6.02364 6.89409 6.02845 6.84533 6.02178 6.79748C6.01511 6.74962 5.99715 6.70403 5.96939 6.66449C5.99791 6.70365 6.01667 6.74905 6.02413 6.79692C6.03158 6.84479 6.02751 6.89374 6.01225 6.93972H6.01902ZM5.86561 6.59455C5.72123 6.55395 5.59489 6.63516 5.54075 6.80887C5.59038 6.63516 5.71672 6.55395 5.86561 6.59455ZM5.02188 6.59455C4.98648 6.59242 4.95108 6.59867 4.91854 6.61278C4.88601 6.62689 4.85726 6.64847 4.83463 6.67577C4.85611 6.64786 4.88382 6.62536 4.91555 6.61009C4.94728 6.59481 4.98215 6.58717 5.01736 6.58779L5.02188 6.59455ZM5.14821 8.19404C5.12112 8.08865 5.08644 7.98536 5.04444 7.88497C5.0846 7.98328 5.11777 8.0843 5.1437 8.18728L5.14821 8.19404ZM4.17363 6.60583C4.13546 6.61689 4.10054 6.63703 4.07186 6.66454C4.04318 6.69204 4.02159 6.72608 4.00894 6.76375C4.01957 6.72451 4.03977 6.68851 4.06772 6.65898C4.09567 6.62945 4.13051 6.60732 4.16912 6.59455L4.17363 6.60583ZM4.83463 8.26398C4.85122 8.23427 4.86555 8.20335 4.87749 8.17148C4.86701 8.20322 4.85419 8.23414 4.83914 8.26398H4.83463ZM5.14821 8.21435C5.16257 8.27078 5.19316 8.32176 5.23619 8.36099C5.19481 8.32118 5.16583 8.27025 5.15272 8.21435H5.14821ZM5.61745 8.30233C5.63658 8.27155 5.65103 8.2381 5.66032 8.20307C5.64753 8.23876 5.62926 8.27225 5.60617 8.30233H5.61745ZM6.28297 8.40159C6.32992 8.38802 6.37171 8.36064 6.4029 8.32301C6.43409 8.28537 6.45324 8.23923 6.45786 8.19057C6.46248 8.14192 6.45236 8.09299 6.42882 8.05016C6.40527 8.00733 6.36939 7.97257 6.32583 7.9504C6.36938 7.96992 6.40637 8.00159 6.43238 8.0416C6.45839 8.08161 6.47231 8.12827 6.47247 8.176C6.46972 8.22944 6.44945 8.28049 6.41479 8.32126C6.38013 8.36204 6.33301 8.39027 6.28071 8.40159H6.28297ZM6.59204 6.62163C6.55385 6.64488 6.52287 6.67829 6.50255 6.71813C6.48223 6.75796 6.47338 6.80265 6.47698 6.84722C6.47316 6.80288 6.48167 6.75833 6.50157 6.71852C6.52148 6.67871 6.55201 6.64517 6.58978 6.62163H6.59204ZM7.11091 8.41513H7.05903H7.11317C7.17803 8.41564 7.24046 8.3905 7.28688 8.34519C7.26336 8.36818 7.23547 8.38621 7.20485 8.39822C7.17424 8.41023 7.14153 8.41598 7.10866 8.41513H7.11091ZM7.64558 8.20758C7.6541 8.25354 7.67499 8.2963 7.70599 8.33128C7.73699 8.36626 7.77694 8.39213 7.82155 8.40611C7.77485 8.39391 7.73253 8.36883 7.69942 8.33373C7.66631 8.29862 7.64374 8.25491 7.6343 8.20758H7.64558ZM7.9366 8.40611C7.96811 8.40231 7.99846 8.3919 8.02567 8.37558C8.05288 8.35925 8.07634 8.33737 8.09452 8.31135C8.07561 8.33957 8.05057 8.36315 8.02127 8.38034C7.99198 8.39753 7.95918 8.40788 7.92532 8.41062L7.9366 8.40611ZM8.88186 8.33166C8.90679 8.30977 8.9266 8.28266 8.93986 8.25224C8.95311 8.22182 8.9595 8.18886 8.95856 8.15569C8.96196 8.19145 8.95678 8.22751 8.94344 8.26086C8.9301 8.29422 8.90898 8.3239 8.88186 8.34745V8.33166ZM9.21348 7.73157C9.2586 7.88723 9.30372 8.04064 9.34659 8.1963C9.35488 8.22559 9.36702 8.25366 9.38268 8.27977C9.36663 8.25386 9.35447 8.22574 9.34659 8.1963C9.30372 8.04966 9.24958 7.89625 9.21348 7.74059V7.73157ZM9.75717 8.35647C9.80017 8.31631 9.83071 8.26462 9.84516 8.20758C9.83152 8.26624 9.80092 8.31959 9.75717 8.36099V8.35647ZM10.179 8.32038C10.201 8.34965 10.2296 8.37316 10.2627 8.38888C10.2957 8.4046 10.332 8.41206 10.3685 8.41062C10.3324 8.41258 10.2963 8.40582 10.2633 8.3909C10.2303 8.37598 10.2014 8.35334 10.179 8.32489V8.32038ZM10.9867 6.92844C11.0115 6.85451 11.0075 6.77392 10.9754 6.70284C11.0087 6.77522 11.0127 6.85766 10.9867 6.93295V6.92844Z" fill="#C6C6C6"/>
<path d="M10.8586 11.37C9.81344 10.8574 8.66475 10.5908 7.5006 10.5908C6.33645 10.5908 5.18776 10.8574 4.14258 11.37C4.27342 11.7062 4.38171 12.0198 4.51707 12.3221C4.83774 13.1224 5.3406 13.8369 5.98571 14.4088C6.39002 14.7675 6.90539 14.9762 7.44533 14.9999C8.0292 15.0028 8.59284 14.7862 9.02452 14.3931C9.61961 13.8682 10.0898 13.2168 10.4007 12.4868C10.5653 12.1281 10.703 11.7536 10.8586 11.37Z" fill="#C6C6C6"/>
<path d="M11.4695 4.02C11.6859 4.83162 11.8197 5.66304 11.8688 6.50157C11.8824 6.74748 11.8959 6.99338 11.9095 7.24605H14.9979C14.9365 5.52427 14.2858 3.87576 13.1548 2.57617L13.0465 2.67318C12.5979 3.10739 12.0988 3.4861 11.5598 3.80117C11.5391 3.80905 11.5202 3.82109 11.5043 3.83655C11.4884 3.85202 11.4758 3.87057 11.4673 3.89107C11.4589 3.91157 11.4547 3.93359 11.4551 3.95576C11.4555 3.97794 11.4604 3.9998 11.4695 4.02Z" fill="#C6C6C6"/>
<path d="M11.893 7.87964C11.8737 8.93409 11.7275 9.98239 11.4576 11.0019C11.4504 11.0193 11.4469 11.038 11.4473 11.0569C11.4477 11.0757 11.4519 11.0942 11.4597 11.1114C11.4675 11.1285 11.4788 11.1438 11.4928 11.1564C11.5068 11.169 11.5232 11.1786 11.5411 11.1846C12.0943 11.5062 12.6051 11.8958 13.0616 12.3442C13.0887 12.369 13.118 12.3916 13.1541 12.4209C14.2843 11.1238 14.9336 9.47722 14.9927 7.75781H11.9065C11.902 7.80519 11.8952 7.84128 11.893 7.87964Z" fill="#C6C6C6"/>
<path d="M9.41602 14.7401C10.6985 14.4072 11.8676 13.7346 12.8 12.7932C12.3475 12.3344 11.8362 11.9377 11.2795 11.6133C10.8801 12.7932 10.3387 13.8783 9.41602 14.7401Z" fill="#C6C6C6"/>
<path d="M3.71554 3.38376C4.12161 2.21742 4.64951 1.12778 5.58123 0.270508C4.29796 0.596618 3.12797 1.26663 2.19727 2.20839C2.64532 2.66991 3.15648 3.06563 3.71554 3.38376Z" fill="#C6C6C6"/>
<path d="M11.2798 3.38392C11.834 3.05596 12.3442 2.65871 12.798 2.20179C11.8649 1.26133 10.6961 0.58891 9.41406 0.254883C10.3435 1.11441 10.8759 2.2063 11.2798 3.38392Z" fill="#C6C6C6"/>
<path d="M3.70382 11.6133C3.14914 11.9397 2.63884 12.3363 2.18555 12.7932C3.11695 13.734 4.28668 14.4039 5.56951 14.731C4.64682 13.8738 4.11215 12.7886 3.70382 11.6133Z" fill="#C6C6C6"/>
</g>
<defs>
<clipPath id="clip0_1115_1105">
<rect width="14.9977" height="15" fill="white"/>
</clipPath>
</defs>
</svg>
