<svg width="48" height="48" viewBox="0 0 48 48" fill="none" xmlns="http://www.w3.org/2000/svg">
<path d="M0.5 13.5689C0.5 12.2886 1.04532 11.069 1.99942 10.2153L11.5764 1.64642C12.4015 0.908163 13.4698 0.5 14.577 0.5H43C45.4853 0.5 47.5 2.51472 47.5 5V35.2623C47.5 36.4557 47.0259 37.6003 46.182 38.4442L38.4442 46.182C37.6003 47.0259 36.4557 47.5 35.2623 47.5H4.99999C2.51471 47.5 0.5 45.4853 0.5 43V13.5689Z" stroke="#A6A6A6"/>
<g filter="url(#filter0_d_544_229)">
<path d="M37.1998 22.3373V25.6413L34.9238 26.0084C34.0794 26.1343 34.1791 26.0975 33.9483 26.8842C33.7805 27.4453 33.555 27.9855 33.3347 28.5834L33.0778 28.3369C32.5114 27.7705 31.9502 27.1989 31.3786 26.643C31.3017 26.5824 31.246 26.499 31.2196 26.4047C31.1932 26.3104 31.1974 26.2102 31.2317 26.1185C31.5791 24.8985 31.5833 23.6062 31.2437 22.384C30.9041 21.1617 30.234 20.0568 29.3071 19.1907C27.2618 17.1874 24.7917 16.663 22.0437 17.4863C21.5612 17.6279 21.4878 17.9741 21.8391 18.3359L22.007 18.4985L25.4525 21.9493C25.5056 21.9899 25.5444 22.0463 25.5632 22.1104C25.5821 22.1746 25.58 22.243 25.5574 22.3059C25.3319 23.0925 25.1273 23.8792 24.9228 24.6658C24.915 24.7287 24.8875 24.7875 24.8441 24.8337C24.8007 24.8798 24.7438 24.9111 24.6816 24.9228C23.9002 25.1221 23.1083 25.3266 22.3426 25.5469C22.2687 25.5753 22.1877 25.5794 22.1113 25.5587C22.0349 25.5379 21.9672 25.4934 21.9178 25.4315C20.7291 24.2323 19.5316 23.0331 18.3254 21.8339C17.9793 21.493 17.6384 21.5717 17.4863 22.0279C17.0779 23.2082 16.9999 24.4776 17.2608 25.699C17.4514 26.6641 17.8389 27.5797 18.3991 28.3884C18.9593 29.1971 19.6802 29.8817 20.5168 30.3994C21.3534 30.9171 22.2877 31.2568 23.2614 31.3973C24.2352 31.5378 25.2274 31.4761 26.1762 31.216C26.238 31.1922 26.3058 31.1885 26.3698 31.2055C26.4338 31.2224 26.4909 31.2591 26.5328 31.3104C27.1359 31.924 27.7495 32.5271 28.3526 33.1354C28.4034 33.1882 28.4507 33.2443 28.4942 33.3033C28.4095 33.3522 28.3219 33.396 28.232 33.4344C27.6341 33.6441 27.0363 33.8592 26.4332 34.0532C26.3292 34.078 26.2354 34.134 26.1641 34.2137C26.0929 34.2934 26.0477 34.3929 26.0346 34.499C26.0227 34.6012 26.0052 34.7028 25.9822 34.8031L25.6046 37.1946H22.3636C22.222 36.3083 22.0699 35.4482 21.9493 34.5724C21.9413 34.4333 21.8843 34.3016 21.7882 34.2007C21.6921 34.0999 21.5633 34.0364 21.4248 34.0217C20.4618 33.7927 19.5413 33.4121 18.6978 32.8942C18.5844 32.8088 18.4448 32.7658 18.3031 32.7725C18.1613 32.7792 18.0264 32.8352 17.9216 32.9309C17.2241 33.4553 16.5056 33.9798 15.8239 34.4465L13.5373 32.1548C14.0618 31.452 14.5862 30.723 15.1107 30.0046C15.1874 29.9176 15.2332 29.8076 15.2408 29.6918C15.2484 29.5761 15.2174 29.461 15.1526 29.3648C14.606 28.4759 14.1992 27.5084 13.9464 26.4961C13.9271 26.3815 13.8702 26.2766 13.7848 26.1978C13.6994 26.119 13.5902 26.0708 13.4744 26.0608C13.0496 26.0031 12.6248 25.9297 12.2053 25.8615L10.7998 25.6308V22.3845C11.6913 22.2377 12.5619 22.0909 13.422 21.965C13.5571 21.9532 13.6837 21.8941 13.7796 21.7982C13.8755 21.7023 13.9346 21.5757 13.9464 21.4406C14.1766 20.4697 14.5608 19.5419 15.0844 18.6925C15.1646 18.5807 15.2042 18.4449 15.1965 18.3075C15.1889 18.1702 15.1346 18.0396 15.0425 17.9373C14.518 17.2399 13.9936 16.5214 13.5111 15.8396L15.8239 13.5321L17.9898 15.1054C18.0677 15.1747 18.1658 15.2171 18.2696 15.2265C18.3734 15.236 18.4775 15.2119 18.5667 15.1579C19.5004 14.6026 20.5139 14.1941 21.5717 13.9464C21.6697 13.924 21.7579 13.8706 21.8231 13.794C21.8883 13.7175 21.927 13.622 21.9335 13.5216C21.9702 13.2594 22.0174 12.9972 22.0594 12.735C22.1538 12.0899 22.2482 11.4449 22.3373 10.7998H25.6413C25.636 10.8679 25.636 10.9363 25.6413 11.0043C25.7724 11.812 25.914 12.6143 26.0241 13.422C26.0315 13.5628 26.088 13.6966 26.1839 13.8001C26.2797 13.9035 26.4087 13.9702 26.5486 13.9884C27.4758 14.2025 28.3617 14.5675 29.1707 15.0687C29.3049 15.1738 29.4723 15.2273 29.6426 15.2196C29.8129 15.2119 29.9748 15.1435 30.099 15.0267C30.7702 14.5023 31.4677 14.0251 32.139 13.5373L34.4413 15.8449L34.3102 16.0337C33.8225 16.6997 33.34 17.371 32.8522 18.0317C32.7831 18.1099 32.741 18.2083 32.7325 18.3123C32.724 18.4163 32.7495 18.5203 32.805 18.6086C33.3674 19.5337 33.7831 20.5403 34.0375 21.5927C34.0574 21.6862 34.1069 21.7709 34.1787 21.8342C34.2505 21.8975 34.3407 21.936 34.436 21.944L35.2751 22.0804L37.1998 22.3373Z" fill="url(#paint0_linear_544_229)"/>
<path d="M36.0776 32.5902C34.2281 30.7302 32.3716 28.886 30.5081 27.0574C30.3808 26.952 30.2911 26.8081 30.2524 26.6474C30.2136 26.4867 30.2279 26.3178 30.2931 26.1659C30.6128 25.1893 30.6706 24.1459 30.4609 23.1399C30.2 21.7917 29.5053 20.5658 28.4827 19.6492C27.46 18.7326 26.1657 18.1757 24.797 18.0634C24.1649 17.9971 23.5258 18.0614 22.9196 18.2522C22.972 18.3361 23.0716 18.3676 23.1398 18.4357C24.1887 19.4846 25.2376 20.5335 26.2864 21.5823C26.3847 21.6648 26.4554 21.7752 26.4891 21.8989C26.5229 22.0226 26.518 22.1537 26.4752 22.2746C26.2025 23.2605 25.9508 24.2465 25.6886 25.2377C25.6672 25.369 25.6051 25.4903 25.5109 25.5845C25.4168 25.6786 25.2955 25.7407 25.1641 25.7621C24.1712 26.0173 23.1835 26.2813 22.2011 26.554C22.0843 26.5956 21.9576 26.6008 21.8378 26.569C21.718 26.5371 21.6106 26.4697 21.5298 26.3757C20.7799 25.61 20.0142 24.8548 19.2538 24.0944L18.1577 22.9669C18.121 23.0717 18.1053 23.1085 18.0948 23.1504C17.9153 24.0645 17.9439 25.0074 18.1787 25.9089C18.392 26.736 18.7715 27.511 19.2939 28.1867C19.8164 28.8624 20.4709 29.4246 21.2177 29.8392C21.9645 30.2538 22.7878 30.5121 23.6376 30.5982C24.4874 30.6844 25.3458 30.5967 26.1606 30.3404C26.2987 30.2851 26.4509 30.2752 26.5951 30.3119C26.7393 30.3487 26.8681 30.4303 26.9629 30.5449C28.0852 31.6829 29.218 32.8105 30.3508 33.9433C31.1427 34.7299 31.9241 35.5166 32.7317 36.3032C33.1434 36.6763 33.6707 36.8965 34.2255 36.9271C34.7802 36.9576 35.3285 36.7966 35.7787 36.471C36.0911 36.2634 36.3522 35.9873 36.542 35.6637C36.7318 35.3401 36.8455 34.9776 36.8743 34.6035C36.9031 34.2295 36.8463 33.8538 36.7083 33.5049C36.5703 33.1561 36.3546 32.8433 36.0776 32.5902ZM34.1634 35.5742C33.8868 35.5753 33.6162 35.4941 33.3859 35.341C33.1556 35.1878 32.976 34.9697 32.8699 34.7143C32.7638 34.4589 32.7361 34.1777 32.7902 33.9064C32.8442 33.6352 32.9777 33.3862 33.1737 33.191C33.3696 32.9958 33.6191 32.8632 33.8906 32.8102C34.162 32.7571 34.4431 32.7859 34.6981 32.893C34.9531 33 35.1706 33.1804 35.3228 33.4113C35.4751 33.6422 35.5552 33.9132 35.5532 34.1897C35.5539 34.3722 35.5184 34.553 35.4487 34.7216C35.379 34.8902 35.2766 35.0434 35.1474 35.1721C35.0181 35.3009 34.8646 35.4028 34.6957 35.4718C34.5268 35.5408 34.3459 35.5756 34.1634 35.5742Z" fill="url(#paint1_linear_544_229)"/>
<path d="M34.6768 34.2057C34.6675 34.3383 34.6082 34.4625 34.5108 34.553C34.4134 34.6435 34.2853 34.6937 34.1524 34.6934C34.0133 34.6934 33.8799 34.6381 33.7815 34.5398C33.6832 34.4414 33.6279 34.3081 33.6279 34.169C33.6279 34.0299 33.6832 33.8965 33.7815 33.7981C33.8799 33.6998 34.0133 33.6445 34.1524 33.6445C34.2244 33.6444 34.2958 33.659 34.3619 33.6877C34.4281 33.7163 34.4876 33.7582 34.5368 33.8109C34.586 33.8635 34.6238 33.9258 34.6479 33.9937C34.672 34.0616 34.6818 34.1338 34.6768 34.2057Z" fill="url(#paint2_linear_544_229)"/>
</g>
<defs>
<filter id="filter0_d_544_229" x="6.7998" y="9.7998" width="34.4004" height="34.3945" filterUnits="userSpaceOnUse" color-interpolation-filters="sRGB">
<feFlood flood-opacity="0" result="BackgroundImageFix"/>
<feColorMatrix in="SourceAlpha" type="matrix" values="0 0 0 0 0 0 0 0 0 0 0 0 0 0 0 0 0 0 127 0" result="hardAlpha"/>
<feOffset dy="3"/>
<feGaussianBlur stdDeviation="2"/>
<feComposite in2="hardAlpha" operator="out"/>
<feColorMatrix type="matrix" values="0 0 0 0 0.819608 0 0 0 0 0.0705882 0 0 0 0 0.0862745 0 0 0 0.15 0"/>
<feBlend mode="normal" in2="BackgroundImageFix" result="effect1_dropShadow_544_229"/>
<feBlend mode="normal" in="SourceGraphic" in2="effect1_dropShadow_544_229" result="shape"/>
</filter>
<linearGradient id="paint0_linear_544_229" x1="10.1998" y1="32.3998" x2="40.1998" y2="20.9998" gradientUnits="userSpaceOnUse">
<stop stop-color="#B02B2B"/>
<stop offset="1" stop-color="#D11216"/>
</linearGradient>
<linearGradient id="paint1_linear_544_229" x1="17.5489" y1="33.4988" x2="39.0278" y2="25.3339" gradientUnits="userSpaceOnUse">
<stop stop-color="#B02B2B"/>
<stop offset="1" stop-color="#D11216"/>
</linearGradient>
<linearGradient id="paint2_linear_544_229" x1="33.6041" y1="34.5029" x2="34.7971" y2="34.049" gradientUnits="userSpaceOnUse">
<stop stop-color="#B02B2B"/>
<stop offset="1" stop-color="#D11216"/>
</linearGradient>
</defs>
</svg>
