<svg width="12" height="12" viewBox="0 0 12 12" fill="none" xmlns="http://www.w3.org/2000/svg">
<g clip-path="url(#clip0_1110_38)">
<path d="M11.9293 4.75192C11.8707 4.08257 11.7265 3.4235 11.5003 2.79081C11.2941 2.21432 10.9521 1.69595 10.5033 1.27953C10.0544 0.863104 9.51193 0.560861 8.92163 0.39835C8.28524 0.209535 7.6299 0.0917486 6.96759 0.047142L6.39953 0H5.60047L5.03241 0.047142C4.26366 0.0939406 3.50521 0.247852 2.77902 0.50442C2.20536 0.711935 1.68981 1.05396 1.27558 1.50181C0.861363 1.94966 0.560545 2.49029 0.39835 3.07837C0.179613 3.82857 0.0537462 4.60277 0.023571 5.38362C0.023571 5.45669 0.0070713 5.52976 0 5.60047V6.39953C0.0164997 6.5881 0.0306423 6.77666 0.047142 6.96759C0.0916717 7.68887 0.227098 8.40163 0.450206 9.08898C0.646376 9.69245 0.989136 10.2379 1.4478 10.6764C1.90646 11.1149 2.4667 11.4328 3.07837 11.6017C3.81327 11.8169 4.57144 11.9428 5.33648 11.9764C5.40955 11.9764 5.48262 11.9929 5.55569 12H6.44431L6.99116 11.9529C7.73079 11.9065 8.4609 11.7615 9.16205 11.5215C9.7482 11.3191 10.2764 10.9774 10.7014 10.5258C11.1263 10.0741 11.4353 9.52608 11.6017 8.9287C11.7904 8.30114 11.9082 7.6544 11.9529 7.00059C11.967 6.83088 11.9835 6.66117 12 6.4891V5.53212C11.9764 5.27048 11.9552 5.0112 11.9293 4.75192ZM8.07778 6.18032H6.1921V8.02593C6.19336 8.0727 6.18861 8.11944 6.17796 8.165C6.17106 8.20437 6.14881 8.23939 6.11611 8.26237C6.0834 8.28535 6.04292 8.29441 6.00354 8.28757C5.93781 8.26472 5.88146 8.2208 5.84325 8.16264C5.81968 8.132 5.82675 8.07307 5.82675 8.02593V6.18268H3.967C3.92222 6.18268 3.86093 6.18268 3.83265 6.16853C3.80436 6.15439 3.71479 6.06011 3.71243 6.00589C3.71008 5.95168 3.77608 5.88332 3.82793 5.83854C3.87979 5.79375 3.9175 5.82204 3.96229 5.82204H5.81733V3.96464C5.81733 3.9175 5.81733 3.85857 5.83618 3.82793C5.85504 3.79729 5.94461 3.71243 5.99882 3.71243C6.05304 3.71243 6.12139 3.77843 6.16382 3.83029C6.20625 3.88215 6.18268 3.91986 6.18268 3.96464V5.81733H8.08486C8.21685 5.81733 8.297 5.89039 8.297 6.00118C8.297 6.11196 8.21214 6.17796 8.07778 6.18032Z" fill="#D11216"/>
</g>
<defs>
<clipPath id="clip0_1110_38">
<rect width="12" height="12" fill="white"/>
</clipPath>
</defs>
</svg>
