<svg width="6" height="6" viewBox="0 0 6 6" fill="none" xmlns="http://www.w3.org/2000/svg">
<g clip-path="url(#clip0_278_34)">
<path d="M3.53577 2.99928L6 4.35286L5.70952 4.77946L3.27918 3.44613V5.92914C3.27918 5.95517 3.27918 5.97975 3.27918 6.00578H2.7305C2.7305 5.76862 2.7305 5.5329 2.7305 5.29718V3.44613L0.292093 4.77946L0 4.35286L2.46584 2.99928L0 1.6457L0.292093 1.22053L2.72243 2.55387V0.076645C2.72243 0.0506146 2.72243 0.0260304 2.72243 0H3.27111C3.27111 0.0245842 3.27111 0.0506146 3.27111 0.0751988V2.55387L5.70952 1.22053L6 1.65437L3.53577 2.99928Z" fill="#D11216"/>
</g>
<defs>
<clipPath id="clip0_278_34">
<rect width="6" height="6" fill="white"/>
</clipPath>
</defs>
</svg>
