<svg width="15" height="18" viewBox="0 0 15 18" fill="none" xmlns="http://www.w3.org/2000/svg">
<g clip-path="url(#clip0_278_4)">
<path d="M14.9955 15.126C14.9918 15.7378 14.7907 16.3321 14.4222 16.8202C14.0536 17.3083 13.5373 17.6642 12.9503 17.8347C12.7136 17.9062 12.4635 17.9465 12.2179 18.0001H2.77315C2.71956 18.0001 2.66597 17.9688 2.60792 17.9599C2.04538 17.9083 1.51106 17.6897 1.07346 17.3321C0.635865 16.9745 0.314939 16.4943 0.151831 15.9529C0.0875415 15.7237 0.0368428 15.4909 0 15.2556L0 14.2007C0.0223281 13.9728 0.0446561 13.7538 0.0714498 13.5079C0.148345 12.4743 0.427531 11.4658 0.893123 10.54C1.13731 10.0535 1.49635 9.63393 1.93912 9.3177C2.38189 9.00147 2.89503 8.7981 3.43406 8.72521C3.63759 8.68237 3.84777 8.68209 4.05141 8.7244C4.25505 8.7667 4.44776 8.85067 4.61745 8.97105C4.81393 9.11855 5.02382 9.24371 5.2337 9.37333C5.89969 9.82588 6.68611 10.0678 7.49107 10.0678C8.29603 10.0678 9.08244 9.82588 9.74844 9.37333C10.003 9.21242 10.2531 9.03363 10.5165 8.89059C10.6734 8.78839 10.8527 8.72553 11.039 8.70733C11.8196 8.68098 12.5832 8.93997 13.187 9.43591C13.855 10.0285 14.3322 10.8064 14.5579 11.6708C14.8904 12.7911 15.0382 13.9581 14.9955 15.126Z" fill="#D5D5D5"/>
<path d="M11.0481 6.65557C10.6878 7.23851 10.1915 7.72525 9.60198 8.07403C9.01241 8.42281 8.34711 8.62322 7.66316 8.65806C6.78189 8.71418 5.90444 8.50048 5.14744 8.04538C4.39045 7.59028 3.78978 6.91532 3.42529 6.11026C3.09895 5.36136 2.98791 4.53615 3.10467 3.72751C3.22143 2.91888 3.56136 2.15891 4.0862 1.53315C4.70422 0.795523 5.55188 0.287078 6.49316 0.0893966L6.98885 0H7.79712C8.03827 0.0446983 8.26601 0.0893966 8.48483 0.143035C9.29631 0.361686 10.0273 0.810496 10.5899 1.43541C11.1524 2.06033 11.5224 2.8347 11.6554 3.66526C11.8332 4.70297 11.6165 5.76971 11.0481 6.65557Z" fill="#D5D5D5"/>
</g>
<defs>
<clipPath id="clip0_278_4">
<rect width="15" height="18" fill="white"/>
</clipPath>
</defs>
</svg>
